<svg xmlns="http://www.w3.org/2000/svg" xmlns:xlink="http://www.w3.org/1999/xlink" width="302" zoomAndPan="magnify" viewBox="0 0 226.5 48.75" height="65" preserveAspectRatio="xMidYMid meet" version="1.0"><defs><g/><clipPath id="d37bfcb508"><path d="M 21.519531 10.058594 L 36.207031 10.058594 L 36.207031 24.097656 L 21.519531 24.097656 Z M 21.519531 10.058594 " clip-rule="nonzero"/></clipPath><clipPath id="f4a175a7cf"><path d="M 0.328125 0 L 225.121094 0 L 225.121094 48.195312 L 0.328125 48.195312 Z M 0.328125 0 " clip-rule="nonzero"/></clipPath></defs><g clip-path="url(#d37bfcb508)"><path fill="#feca08" d="M 21.519531 10.058594 L 36.214844 10.058594 L 36.214844 24.097656 L 21.519531 24.097656 Z M 21.519531 10.058594 " fill-opacity="1" fill-rule="nonzero"/></g><g clip-path="url(#f4a175a7cf)"><path fill="#51a31f" d="M 0.328125 0 L 225.109375 0 L 225.109375 48.195312 L 0.328125 48.195312 Z M 0.328125 0 " fill-opacity="1" fill-rule="nonzero"/></g><g fill="#ffffff" fill-opacity="1"><g transform="translate(44.17843, 20.146685)"><g><path d="M 3.84375 -6.96875 C 4.457031 -6.96875 4.988281 -6.863281 5.4375 -6.65625 C 5.894531 -6.445312 6.25 -6.15625 6.5 -5.78125 C 6.75 -5.40625 6.875 -4.957031 6.875 -4.4375 C 6.875 -3.925781 6.75 -3.476562 6.5 -3.09375 C 6.25 -2.71875 5.894531 -2.425781 5.4375 -2.21875 C 4.988281 -2.019531 4.457031 -1.921875 3.84375 -1.921875 L 2.4375 -1.921875 L 2.4375 0 L 0.828125 0 L 0.828125 -6.96875 Z M 3.75 -3.234375 C 4.238281 -3.234375 4.609375 -3.335938 4.859375 -3.546875 C 5.109375 -3.753906 5.234375 -4.050781 5.234375 -4.4375 C 5.234375 -4.832031 5.109375 -5.132812 4.859375 -5.34375 C 4.609375 -5.550781 4.238281 -5.65625 3.75 -5.65625 L 2.4375 -5.65625 L 2.4375 -3.234375 Z M 3.75 -3.234375 "/></g></g></g><g fill="#ffffff" fill-opacity="1"><g transform="translate(51.458209, 20.146685)"><g><path d="M 5.265625 0 L 3.921875 -1.9375 L 2.4375 -1.9375 L 2.4375 0 L 0.828125 0 L 0.828125 -6.96875 L 3.84375 -6.96875 C 4.457031 -6.96875 4.988281 -6.863281 5.4375 -6.65625 C 5.894531 -6.445312 6.25 -6.15625 6.5 -5.78125 C 6.75 -5.40625 6.875 -4.957031 6.875 -4.4375 C 6.875 -3.914062 6.75 -3.46875 6.5 -3.09375 C 6.25 -2.71875 5.894531 -2.429688 5.4375 -2.234375 L 7 0 Z M 5.234375 -4.4375 C 5.234375 -4.832031 5.109375 -5.132812 4.859375 -5.34375 C 4.609375 -5.550781 4.238281 -5.65625 3.75 -5.65625 L 2.4375 -5.65625 L 2.4375 -3.21875 L 3.75 -3.21875 C 4.238281 -3.21875 4.609375 -3.320312 4.859375 -3.53125 C 5.109375 -3.75 5.234375 -4.050781 5.234375 -4.4375 Z M 5.234375 -4.4375 "/></g></g></g><g fill="#ffffff" fill-opacity="1"><g transform="translate(58.767831, 20.146685)"><g><path d="M 4.203125 0.125 C 3.472656 0.125 2.816406 -0.03125 2.234375 -0.34375 C 1.660156 -0.65625 1.207031 -1.082031 0.875 -1.625 C 0.550781 -2.175781 0.390625 -2.796875 0.390625 -3.484375 C 0.390625 -4.171875 0.550781 -4.785156 0.875 -5.328125 C 1.207031 -5.878906 1.660156 -6.3125 2.234375 -6.625 C 2.816406 -6.9375 3.472656 -7.09375 4.203125 -7.09375 C 4.921875 -7.09375 5.566406 -6.9375 6.140625 -6.625 C 6.722656 -6.3125 7.179688 -5.878906 7.515625 -5.328125 C 7.847656 -4.785156 8.015625 -4.171875 8.015625 -3.484375 C 8.015625 -2.796875 7.847656 -2.175781 7.515625 -1.625 C 7.179688 -1.082031 6.722656 -0.65625 6.140625 -0.34375 C 5.566406 -0.03125 4.921875 0.125 4.203125 0.125 Z M 4.203125 -1.25 C 4.609375 -1.25 4.976562 -1.34375 5.3125 -1.53125 C 5.644531 -1.726562 5.90625 -1.992188 6.09375 -2.328125 C 6.28125 -2.671875 6.375 -3.054688 6.375 -3.484375 C 6.375 -3.910156 6.28125 -4.289062 6.09375 -4.625 C 5.90625 -4.96875 5.644531 -5.234375 5.3125 -5.421875 C 4.976562 -5.617188 4.609375 -5.71875 4.203125 -5.71875 C 3.785156 -5.71875 3.410156 -5.617188 3.078125 -5.421875 C 2.753906 -5.234375 2.492188 -4.96875 2.296875 -4.625 C 2.109375 -4.289062 2.015625 -3.910156 2.015625 -3.484375 C 2.015625 -3.054688 2.109375 -2.671875 2.296875 -2.328125 C 2.492188 -1.992188 2.753906 -1.726562 3.078125 -1.53125 C 3.410156 -1.34375 3.785156 -1.25 4.203125 -1.25 Z M 4.203125 -1.25 "/></g></g></g><g fill="#ffffff" fill-opacity="1"><g transform="translate(67.161462, 20.146685)"><g><path d="M 5.9375 -3.625 C 6.34375 -3.5 6.65625 -3.285156 6.875 -2.984375 C 7.101562 -2.691406 7.21875 -2.332031 7.21875 -1.90625 C 7.21875 -1.289062 6.976562 -0.816406 6.5 -0.484375 C 6.03125 -0.160156 5.335938 0 4.421875 0 L 0.828125 0 L 0.828125 -6.96875 L 4.234375 -6.96875 C 5.078125 -6.96875 5.726562 -6.800781 6.1875 -6.46875 C 6.644531 -6.144531 6.875 -5.707031 6.875 -5.15625 C 6.875 -4.8125 6.789062 -4.507812 6.625 -4.25 C 6.457031 -3.988281 6.226562 -3.78125 5.9375 -3.625 Z M 2.421875 -5.75 L 2.421875 -4.109375 L 4.03125 -4.109375 C 4.425781 -4.109375 4.726562 -4.175781 4.9375 -4.3125 C 5.144531 -4.457031 5.25 -4.664062 5.25 -4.9375 C 5.25 -5.207031 5.144531 -5.410156 4.9375 -5.546875 C 4.726562 -5.679688 4.425781 -5.75 4.03125 -5.75 Z M 4.3125 -1.21875 C 4.738281 -1.21875 5.054688 -1.285156 5.265625 -1.421875 C 5.484375 -1.554688 5.59375 -1.769531 5.59375 -2.0625 C 5.59375 -2.644531 5.164062 -2.9375 4.3125 -2.9375 L 2.421875 -2.9375 L 2.421875 -1.21875 Z M 4.3125 -1.21875 "/></g></g></g><g fill="#ffffff" fill-opacity="1"><g transform="translate(74.769434, 20.146685)"><g><path d="M 0.828125 -6.96875 L 2.4375 -6.96875 L 2.4375 0 L 0.828125 0 Z M 0.828125 -6.96875 "/></g></g></g><g fill="#ffffff" fill-opacity="1"><g transform="translate(78.031416, 20.146685)"><g><path d="M 4.203125 0.125 C 3.472656 0.125 2.816406 -0.03125 2.234375 -0.34375 C 1.660156 -0.65625 1.207031 -1.082031 0.875 -1.625 C 0.550781 -2.175781 0.390625 -2.796875 0.390625 -3.484375 C 0.390625 -4.171875 0.550781 -4.785156 0.875 -5.328125 C 1.207031 -5.878906 1.660156 -6.3125 2.234375 -6.625 C 2.816406 -6.9375 3.472656 -7.09375 4.203125 -7.09375 C 4.921875 -7.09375 5.566406 -6.9375 6.140625 -6.625 C 6.722656 -6.3125 7.179688 -5.878906 7.515625 -5.328125 C 7.847656 -4.785156 8.015625 -4.171875 8.015625 -3.484375 C 8.015625 -2.796875 7.847656 -2.175781 7.515625 -1.625 C 7.179688 -1.082031 6.722656 -0.65625 6.140625 -0.34375 C 5.566406 -0.03125 4.921875 0.125 4.203125 0.125 Z M 4.203125 -1.25 C 4.609375 -1.25 4.976562 -1.34375 5.3125 -1.53125 C 5.644531 -1.726562 5.90625 -1.992188 6.09375 -2.328125 C 6.28125 -2.671875 6.375 -3.054688 6.375 -3.484375 C 6.375 -3.910156 6.28125 -4.289062 6.09375 -4.625 C 5.90625 -4.96875 5.644531 -5.234375 5.3125 -5.421875 C 4.976562 -5.617188 4.609375 -5.71875 4.203125 -5.71875 C 3.785156 -5.71875 3.410156 -5.617188 3.078125 -5.421875 C 2.753906 -5.234375 2.492188 -4.96875 2.296875 -4.625 C 2.109375 -4.289062 2.015625 -3.910156 2.015625 -3.484375 C 2.015625 -3.054688 2.109375 -2.671875 2.296875 -2.328125 C 2.492188 -1.992188 2.753906 -1.726562 3.078125 -1.53125 C 3.410156 -1.34375 3.785156 -1.25 4.203125 -1.25 Z M 4.203125 -1.25 "/></g></g></g><g fill="#ffffff" fill-opacity="1"><g transform="translate(86.425047, 20.146685)"><g><path d="M 2.265625 -5.65625 L 0.046875 -5.65625 L 0.046875 -6.96875 L 6.109375 -6.96875 L 6.109375 -5.65625 L 3.875 -5.65625 L 3.875 0 L 2.265625 0 Z M 2.265625 -5.65625 "/></g></g></g><g fill="#ffffff" fill-opacity="1"><g transform="translate(92.571095, 20.146685)"><g><path d="M 0.828125 -6.96875 L 2.4375 -6.96875 L 2.4375 0 L 0.828125 0 Z M 0.828125 -6.96875 "/></g></g></g><g fill="#ffffff" fill-opacity="1"><g transform="translate(95.833076, 20.146685)"><g><path d="M 4.15625 0.125 C 3.445312 0.125 2.804688 -0.03125 2.234375 -0.34375 C 1.660156 -0.65625 1.207031 -1.082031 0.875 -1.625 C 0.550781 -2.175781 0.390625 -2.796875 0.390625 -3.484375 C 0.390625 -4.171875 0.550781 -4.785156 0.875 -5.328125 C 1.207031 -5.878906 1.660156 -6.3125 2.234375 -6.625 C 2.804688 -6.9375 3.453125 -7.09375 4.171875 -7.09375 C 4.773438 -7.09375 5.320312 -6.984375 5.8125 -6.765625 C 6.300781 -6.554688 6.707031 -6.253906 7.03125 -5.859375 L 6 -4.890625 C 5.53125 -5.441406 4.945312 -5.71875 4.25 -5.71875 C 3.820312 -5.71875 3.4375 -5.617188 3.09375 -5.421875 C 2.757812 -5.234375 2.492188 -4.96875 2.296875 -4.625 C 2.109375 -4.289062 2.015625 -3.910156 2.015625 -3.484375 C 2.015625 -3.054688 2.109375 -2.671875 2.296875 -2.328125 C 2.492188 -1.992188 2.757812 -1.726562 3.09375 -1.53125 C 3.4375 -1.34375 3.820312 -1.25 4.25 -1.25 C 4.945312 -1.25 5.53125 -1.523438 6 -2.078125 L 7.03125 -1.125 C 6.707031 -0.71875 6.296875 -0.40625 5.796875 -0.1875 C 5.304688 0.0195312 4.757812 0.125 4.15625 0.125 Z M 4.15625 0.125 "/></g></g></g><g fill="#ffffff" fill-opacity="1"><g transform="translate(103.122807, 20.146685)"><g/></g></g><g fill="#ffffff" fill-opacity="1"><g transform="translate(105.937262, 20.146685)"><g><path d="M 6.1875 0.125 L 5.34375 -0.65625 C 4.675781 -0.132812 3.898438 0.125 3.015625 0.125 C 2.515625 0.125 2.0625 0.0390625 1.65625 -0.125 C 1.25 -0.289062 0.929688 -0.519531 0.703125 -0.8125 C 0.472656 -1.101562 0.359375 -1.429688 0.359375 -1.796875 C 0.359375 -2.222656 0.476562 -2.597656 0.71875 -2.921875 C 0.957031 -3.253906 1.347656 -3.570312 1.890625 -3.875 C 1.640625 -4.132812 1.457031 -4.378906 1.34375 -4.609375 C 1.226562 -4.847656 1.171875 -5.09375 1.171875 -5.34375 C 1.171875 -5.6875 1.257812 -5.984375 1.4375 -6.234375 C 1.625 -6.492188 1.878906 -6.695312 2.203125 -6.84375 C 2.535156 -6.988281 2.914062 -7.0625 3.34375 -7.0625 C 3.945312 -7.0625 4.429688 -6.914062 4.796875 -6.625 C 5.160156 -6.332031 5.34375 -5.941406 5.34375 -5.453125 C 5.34375 -5.097656 5.234375 -4.78125 5.015625 -4.5 C 4.804688 -4.21875 4.460938 -3.945312 3.984375 -3.6875 L 5.25 -2.515625 C 5.40625 -2.828125 5.523438 -3.1875 5.609375 -3.59375 L 6.84375 -3.203125 C 6.71875 -2.585938 6.503906 -2.0625 6.203125 -1.625 L 7.03125 -0.859375 Z M 3.34375 -6 C 3.113281 -6 2.929688 -5.9375 2.796875 -5.8125 C 2.660156 -5.695312 2.59375 -5.546875 2.59375 -5.359375 C 2.59375 -5.222656 2.628906 -5.09375 2.703125 -4.96875 C 2.773438 -4.84375 2.914062 -4.679688 3.125 -4.484375 C 3.46875 -4.660156 3.703125 -4.816406 3.828125 -4.953125 C 3.960938 -5.097656 4.03125 -5.253906 4.03125 -5.421875 C 4.03125 -5.597656 3.96875 -5.738281 3.84375 -5.84375 C 3.726562 -5.945312 3.5625 -6 3.34375 -6 Z M 3.125 -1.09375 C 3.613281 -1.09375 4.046875 -1.226562 4.421875 -1.5 L 2.75 -3.078125 C 2.4375 -2.898438 2.210938 -2.722656 2.078125 -2.546875 C 1.941406 -2.378906 1.875 -2.179688 1.875 -1.953125 C 1.875 -1.703125 1.988281 -1.492188 2.21875 -1.328125 C 2.445312 -1.171875 2.75 -1.09375 3.125 -1.09375 Z M 3.125 -1.09375 "/></g></g></g><g fill="#ffffff" fill-opacity="1"><g transform="translate(113.17726, 20.146685)"><g/></g></g><g fill="#ffffff" fill-opacity="1"><g transform="translate(115.991714, 20.146685)"><g><path d="M 3.109375 0.125 C 2.566406 0.125 2.035156 0.0507812 1.515625 -0.09375 C 1.003906 -0.25 0.59375 -0.445312 0.28125 -0.6875 L 0.828125 -1.90625 C 1.128906 -1.6875 1.484375 -1.507812 1.890625 -1.375 C 2.304688 -1.238281 2.71875 -1.171875 3.125 -1.171875 C 3.582031 -1.171875 3.921875 -1.238281 4.140625 -1.375 C 4.359375 -1.507812 4.46875 -1.691406 4.46875 -1.921875 C 4.46875 -2.085938 4.398438 -2.222656 4.265625 -2.328125 C 4.140625 -2.441406 3.972656 -2.53125 3.765625 -2.59375 C 3.566406 -2.664062 3.296875 -2.738281 2.953125 -2.8125 C 2.421875 -2.9375 1.984375 -3.0625 1.640625 -3.1875 C 1.304688 -3.320312 1.019531 -3.523438 0.78125 -3.796875 C 0.539062 -4.078125 0.421875 -4.453125 0.421875 -4.921875 C 0.421875 -5.328125 0.53125 -5.691406 0.75 -6.015625 C 0.96875 -6.347656 1.296875 -6.609375 1.734375 -6.796875 C 2.179688 -6.992188 2.722656 -7.09375 3.359375 -7.09375 C 3.796875 -7.09375 4.226562 -7.035156 4.65625 -6.921875 C 5.082031 -6.816406 5.453125 -6.664062 5.765625 -6.46875 L 5.28125 -5.25 C 4.632812 -5.613281 3.988281 -5.796875 3.34375 -5.796875 C 2.894531 -5.796875 2.5625 -5.722656 2.34375 -5.578125 C 2.125 -5.429688 2.015625 -5.238281 2.015625 -5 C 2.015625 -4.757812 2.140625 -4.582031 2.390625 -4.46875 C 2.640625 -4.351562 3.019531 -4.238281 3.53125 -4.125 C 4.0625 -4 4.492188 -3.867188 4.828125 -3.734375 C 5.171875 -3.609375 5.460938 -3.410156 5.703125 -3.140625 C 5.953125 -2.867188 6.078125 -2.503906 6.078125 -2.046875 C 6.078125 -1.640625 5.960938 -1.269531 5.734375 -0.9375 C 5.515625 -0.613281 5.179688 -0.351562 4.734375 -0.15625 C 4.296875 0.03125 3.753906 0.125 3.109375 0.125 Z M 3.109375 0.125 "/></g></g></g><g fill="#ffffff" fill-opacity="1"><g transform="translate(122.336659, 20.146685)"><g><path d="M 4.203125 0.125 C 3.472656 0.125 2.816406 -0.03125 2.234375 -0.34375 C 1.660156 -0.65625 1.207031 -1.082031 0.875 -1.625 C 0.550781 -2.175781 0.390625 -2.796875 0.390625 -3.484375 C 0.390625 -4.171875 0.550781 -4.785156 0.875 -5.328125 C 1.207031 -5.878906 1.660156 -6.3125 2.234375 -6.625 C 2.816406 -6.9375 3.472656 -7.09375 4.203125 -7.09375 C 4.921875 -7.09375 5.566406 -6.9375 6.140625 -6.625 C 6.722656 -6.3125 7.179688 -5.878906 7.515625 -5.328125 C 7.847656 -4.785156 8.015625 -4.171875 8.015625 -3.484375 C 8.015625 -2.796875 7.847656 -2.175781 7.515625 -1.625 C 7.179688 -1.082031 6.722656 -0.65625 6.140625 -0.34375 C 5.566406 -0.03125 4.921875 0.125 4.203125 0.125 Z M 4.203125 -1.25 C 4.609375 -1.25 4.976562 -1.34375 5.3125 -1.53125 C 5.644531 -1.726562 5.90625 -1.992188 6.09375 -2.328125 C 6.28125 -2.671875 6.375 -3.054688 6.375 -3.484375 C 6.375 -3.910156 6.28125 -4.289062 6.09375 -4.625 C 5.90625 -4.96875 5.644531 -5.234375 5.3125 -5.421875 C 4.976562 -5.617188 4.609375 -5.71875 4.203125 -5.71875 C 3.785156 -5.71875 3.410156 -5.617188 3.078125 -5.421875 C 2.753906 -5.234375 2.492188 -4.96875 2.296875 -4.625 C 2.109375 -4.289062 2.015625 -3.910156 2.015625 -3.484375 C 2.015625 -3.054688 2.109375 -2.671875 2.296875 -2.328125 C 2.492188 -1.992188 2.753906 -1.726562 3.078125 -1.53125 C 3.410156 -1.34375 3.785156 -1.25 4.203125 -1.25 Z M 4.203125 -1.25 "/></g></g></g><g fill="#ffffff" fill-opacity="1"><g transform="translate(130.730291, 20.146685)"><g><path d="M 5.421875 -1.5 L 2.1875 -1.5 L 1.5625 0 L -0.09375 0 L 3.015625 -6.96875 L 4.609375 -6.96875 L 7.71875 0 L 6.03125 0 Z M 4.90625 -2.71875 L 3.796875 -5.390625 L 2.703125 -2.71875 Z M 4.90625 -2.71875 "/></g></g></g><g fill="#ffffff" fill-opacity="1"><g transform="translate(138.348203, 20.146685)"><g><path d="M 3.84375 -6.96875 C 4.457031 -6.96875 4.988281 -6.863281 5.4375 -6.65625 C 5.894531 -6.445312 6.25 -6.15625 6.5 -5.78125 C 6.75 -5.40625 6.875 -4.957031 6.875 -4.4375 C 6.875 -3.925781 6.75 -3.476562 6.5 -3.09375 C 6.25 -2.71875 5.894531 -2.425781 5.4375 -2.21875 C 4.988281 -2.019531 4.457031 -1.921875 3.84375 -1.921875 L 2.4375 -1.921875 L 2.4375 0 L 0.828125 0 L 0.828125 -6.96875 Z M 3.75 -3.234375 C 4.238281 -3.234375 4.609375 -3.335938 4.859375 -3.546875 C 5.109375 -3.753906 5.234375 -4.050781 5.234375 -4.4375 C 5.234375 -4.832031 5.109375 -5.132812 4.859375 -5.34375 C 4.609375 -5.550781 4.238281 -5.65625 3.75 -5.65625 L 2.4375 -5.65625 L 2.4375 -3.234375 Z M 3.75 -3.234375 "/></g></g></g><g fill="#ffffff" fill-opacity="1"><g transform="translate(145.627983, 20.146685)"><g><path d="M 5.9375 -3.625 C 6.34375 -3.5 6.65625 -3.285156 6.875 -2.984375 C 7.101562 -2.691406 7.21875 -2.332031 7.21875 -1.90625 C 7.21875 -1.289062 6.976562 -0.816406 6.5 -0.484375 C 6.03125 -0.160156 5.335938 0 4.421875 0 L 0.828125 0 L 0.828125 -6.96875 L 4.234375 -6.96875 C 5.078125 -6.96875 5.726562 -6.800781 6.1875 -6.46875 C 6.644531 -6.144531 6.875 -5.707031 6.875 -5.15625 C 6.875 -4.8125 6.789062 -4.507812 6.625 -4.25 C 6.457031 -3.988281 6.226562 -3.78125 5.9375 -3.625 Z M 2.421875 -5.75 L 2.421875 -4.109375 L 4.03125 -4.109375 C 4.425781 -4.109375 4.726562 -4.175781 4.9375 -4.3125 C 5.144531 -4.457031 5.25 -4.664062 5.25 -4.9375 C 5.25 -5.207031 5.144531 -5.410156 4.9375 -5.546875 C 4.726562 -5.679688 4.425781 -5.75 4.03125 -5.75 Z M 4.3125 -1.21875 C 4.738281 -1.21875 5.054688 -1.285156 5.265625 -1.421875 C 5.484375 -1.554688 5.59375 -1.769531 5.59375 -2.0625 C 5.59375 -2.644531 5.164062 -2.9375 4.3125 -2.9375 L 2.421875 -2.9375 L 2.421875 -1.21875 Z M 4.3125 -1.21875 "/></g></g></g><g fill="#ffffff" fill-opacity="1"><g transform="translate(153.235955, 20.146685)"><g><path d="M 6.21875 -1.296875 L 6.21875 0 L 0.828125 0 L 0.828125 -6.96875 L 6.09375 -6.96875 L 6.09375 -5.671875 L 2.421875 -5.671875 L 2.421875 -4.15625 L 5.65625 -4.15625 L 5.65625 -2.90625 L 2.421875 -2.90625 L 2.421875 -1.296875 Z M 6.21875 -1.296875 "/></g></g></g><g fill="#ffffff" fill-opacity="1"><g transform="translate(159.909093, 20.146685)"><g><path d="M 5.265625 0 L 3.921875 -1.9375 L 2.4375 -1.9375 L 2.4375 0 L 0.828125 0 L 0.828125 -6.96875 L 3.84375 -6.96875 C 4.457031 -6.96875 4.988281 -6.863281 5.4375 -6.65625 C 5.894531 -6.445312 6.25 -6.15625 6.5 -5.78125 C 6.75 -5.40625 6.875 -4.957031 6.875 -4.4375 C 6.875 -3.914062 6.75 -3.46875 6.5 -3.09375 C 6.25 -2.71875 5.894531 -2.429688 5.4375 -2.234375 L 7 0 Z M 5.234375 -4.4375 C 5.234375 -4.832031 5.109375 -5.132812 4.859375 -5.34375 C 4.609375 -5.550781 4.238281 -5.65625 3.75 -5.65625 L 2.4375 -5.65625 L 2.4375 -3.21875 L 3.75 -3.21875 C 4.238281 -3.21875 4.609375 -3.320312 4.859375 -3.53125 C 5.109375 -3.75 5.234375 -4.050781 5.234375 -4.4375 Z M 5.234375 -4.4375 "/></g></g></g><g fill="#ffffff" fill-opacity="1"><g transform="translate(167.218714, 20.146685)"><g><path d="M 5.265625 0 L 3.921875 -1.9375 L 2.4375 -1.9375 L 2.4375 0 L 0.828125 0 L 0.828125 -6.96875 L 3.84375 -6.96875 C 4.457031 -6.96875 4.988281 -6.863281 5.4375 -6.65625 C 5.894531 -6.445312 6.25 -6.15625 6.5 -5.78125 C 6.75 -5.40625 6.875 -4.957031 6.875 -4.4375 C 6.875 -3.914062 6.75 -3.46875 6.5 -3.09375 C 6.25 -2.71875 5.894531 -2.429688 5.4375 -2.234375 L 7 0 Z M 5.234375 -4.4375 C 5.234375 -4.832031 5.109375 -5.132812 4.859375 -5.34375 C 4.609375 -5.550781 4.238281 -5.65625 3.75 -5.65625 L 2.4375 -5.65625 L 2.4375 -3.21875 L 3.75 -3.21875 C 4.238281 -3.21875 4.609375 -3.320312 4.859375 -3.53125 C 5.109375 -3.75 5.234375 -4.050781 5.234375 -4.4375 Z M 5.234375 -4.4375 "/></g></g></g><g fill="#ffffff" fill-opacity="1"><g transform="translate(174.528336, 20.146685)"><g><path d="M 4.171875 -2.46875 L 4.171875 0 L 2.5625 0 L 2.5625 -2.484375 L -0.140625 -6.96875 L 1.578125 -6.96875 L 3.4375 -3.875 L 5.296875 -6.96875 L 6.875 -6.96875 Z M 4.171875 -2.46875 "/></g></g></g><g fill="#ffffff" fill-opacity="1"><g transform="translate(14.634625, 32.831634)"><g><path d="M 8.375 -6.96875 L 8.375 0 L 7.65625 0 L 7.65625 -5.578125 L 4.921875 -0.890625 L 4.578125 -0.890625 L 1.84375 -5.546875 L 1.84375 0 L 1.140625 0 L 1.140625 -6.96875 L 1.734375 -6.96875 L 4.765625 -1.796875 L 7.765625 -6.96875 Z M 8.375 -6.96875 "/></g></g></g><g fill="#ffffff" fill-opacity="1"><g transform="translate(24.132157, 32.831634)"><g><path d="M 0.984375 -5.234375 L 1.6875 -5.234375 L 1.6875 0 L 0.984375 0 Z M 1.34375 -6.375 C 1.195312 -6.375 1.070312 -6.421875 0.96875 -6.515625 C 0.875 -6.617188 0.828125 -6.742188 0.828125 -6.890625 C 0.828125 -7.023438 0.875 -7.140625 0.96875 -7.234375 C 1.070312 -7.335938 1.195312 -7.390625 1.34375 -7.390625 C 1.488281 -7.390625 1.609375 -7.335938 1.703125 -7.234375 C 1.804688 -7.140625 1.859375 -7.023438 1.859375 -6.890625 C 1.859375 -6.742188 1.804688 -6.617188 1.703125 -6.515625 C 1.609375 -6.421875 1.488281 -6.375 1.34375 -6.375 Z M 1.34375 -6.375 "/></g></g></g><g fill="#ffffff" fill-opacity="1"><g transform="translate(26.807376, 32.831634)"><g><path d="M 3.15625 0.046875 C 2.632812 0.046875 2.171875 -0.0625 1.765625 -0.28125 C 1.359375 -0.507812 1.035156 -0.828125 0.796875 -1.234375 C 0.566406 -1.640625 0.453125 -2.101562 0.453125 -2.625 C 0.453125 -3.132812 0.566406 -3.585938 0.796875 -3.984375 C 1.035156 -4.390625 1.359375 -4.707031 1.765625 -4.9375 C 2.171875 -5.164062 2.632812 -5.28125 3.15625 -5.28125 C 3.601562 -5.28125 4.003906 -5.191406 4.359375 -5.015625 C 4.710938 -4.835938 4.992188 -4.578125 5.203125 -4.234375 L 4.671875 -3.875 C 4.503906 -4.132812 4.285156 -4.328125 4.015625 -4.453125 C 3.753906 -4.585938 3.46875 -4.65625 3.15625 -4.65625 C 2.78125 -4.65625 2.441406 -4.570312 2.140625 -4.40625 C 1.835938 -4.238281 1.597656 -4 1.421875 -3.6875 C 1.253906 -3.375 1.171875 -3.019531 1.171875 -2.625 C 1.171875 -2.21875 1.253906 -1.859375 1.421875 -1.546875 C 1.597656 -1.234375 1.835938 -0.992188 2.140625 -0.828125 C 2.441406 -0.660156 2.78125 -0.578125 3.15625 -0.578125 C 3.46875 -0.578125 3.753906 -0.640625 4.015625 -0.765625 C 4.285156 -0.890625 4.503906 -1.082031 4.671875 -1.34375 L 5.203125 -0.984375 C 4.992188 -0.648438 4.710938 -0.394531 4.359375 -0.21875 C 4.003906 -0.0390625 3.601562 0.046875 3.15625 0.046875 Z M 3.15625 0.046875 "/></g></g></g><g fill="#ffffff" fill-opacity="1"><g transform="translate(32.406444, 32.831634)"><g><path d="M 1.65625 -4.203125 C 1.820312 -4.554688 2.066406 -4.820312 2.390625 -5 C 2.722656 -5.1875 3.132812 -5.28125 3.625 -5.28125 L 3.625 -4.59375 L 3.453125 -4.59375 C 2.898438 -4.59375 2.46875 -4.421875 2.15625 -4.078125 C 1.84375 -3.742188 1.6875 -3.273438 1.6875 -2.671875 L 1.6875 0 L 0.984375 0 L 0.984375 -5.234375 L 1.65625 -5.234375 Z M 1.65625 -4.203125 "/></g></g></g><g fill="#ffffff" fill-opacity="1"><g transform="translate(36.394411, 32.831634)"><g><path d="M 3.125 0.046875 C 2.625 0.046875 2.171875 -0.0664062 1.765625 -0.296875 C 1.359375 -0.523438 1.035156 -0.835938 0.796875 -1.234375 C 0.566406 -1.640625 0.453125 -2.101562 0.453125 -2.625 C 0.453125 -3.132812 0.566406 -3.585938 0.796875 -3.984375 C 1.035156 -4.390625 1.359375 -4.707031 1.765625 -4.9375 C 2.171875 -5.164062 2.625 -5.28125 3.125 -5.28125 C 3.625 -5.28125 4.078125 -5.164062 4.484375 -4.9375 C 4.890625 -4.707031 5.207031 -4.390625 5.4375 -3.984375 C 5.664062 -3.585938 5.78125 -3.132812 5.78125 -2.625 C 5.78125 -2.101562 5.664062 -1.640625 5.4375 -1.234375 C 5.207031 -0.835938 4.890625 -0.523438 4.484375 -0.296875 C 4.078125 -0.0664062 3.625 0.046875 3.125 0.046875 Z M 3.125 -0.578125 C 3.5 -0.578125 3.832031 -0.660156 4.125 -0.828125 C 4.414062 -0.992188 4.644531 -1.234375 4.8125 -1.546875 C 4.976562 -1.859375 5.0625 -2.21875 5.0625 -2.625 C 5.0625 -3.019531 4.976562 -3.375 4.8125 -3.6875 C 4.644531 -4 4.414062 -4.238281 4.125 -4.40625 C 3.832031 -4.570312 3.5 -4.65625 3.125 -4.65625 C 2.75 -4.65625 2.414062 -4.570312 2.125 -4.40625 C 1.832031 -4.238281 1.597656 -4 1.421875 -3.6875 C 1.253906 -3.375 1.171875 -3.019531 1.171875 -2.625 C 1.171875 -2.21875 1.253906 -1.859375 1.421875 -1.546875 C 1.597656 -1.234375 1.832031 -0.992188 2.125 -0.828125 C 2.414062 -0.660156 2.75 -0.578125 3.125 -0.578125 Z M 3.125 -0.578125 "/></g></g></g><g fill="#ffffff" fill-opacity="1"><g transform="translate(42.629963, 32.831634)"><g><path d="M 3.6875 -5.28125 C 4.175781 -5.28125 4.617188 -5.164062 5.015625 -4.9375 C 5.410156 -4.71875 5.722656 -4.40625 5.953125 -4 C 6.179688 -3.59375 6.296875 -3.132812 6.296875 -2.625 C 6.296875 -2.101562 6.179688 -1.640625 5.953125 -1.234375 C 5.722656 -0.828125 5.410156 -0.507812 5.015625 -0.28125 C 4.617188 -0.0625 4.175781 0.046875 3.6875 0.046875 C 3.25 0.046875 2.851562 -0.0390625 2.5 -0.21875 C 2.15625 -0.40625 1.875 -0.675781 1.65625 -1.03125 L 1.65625 0 L 0.984375 0 L 0.984375 -7.390625 L 1.6875 -7.390625 L 1.6875 -4.234375 C 1.90625 -4.578125 2.1875 -4.835938 2.53125 -5.015625 C 2.875 -5.191406 3.257812 -5.28125 3.6875 -5.28125 Z M 3.640625 -0.578125 C 4.003906 -0.578125 4.332031 -0.660156 4.625 -0.828125 C 4.925781 -0.992188 5.160156 -1.234375 5.328125 -1.546875 C 5.492188 -1.859375 5.578125 -2.21875 5.578125 -2.625 C 5.578125 -3.019531 5.492188 -3.375 5.328125 -3.6875 C 5.160156 -4 4.925781 -4.238281 4.625 -4.40625 C 4.332031 -4.570312 4.003906 -4.65625 3.640625 -4.65625 C 3.265625 -4.65625 2.925781 -4.570312 2.625 -4.40625 C 2.332031 -4.238281 2.101562 -4 1.9375 -3.6875 C 1.769531 -3.375 1.6875 -3.019531 1.6875 -2.625 C 1.6875 -2.21875 1.769531 -1.859375 1.9375 -1.546875 C 2.101562 -1.234375 2.332031 -0.992188 2.625 -0.828125 C 2.925781 -0.660156 3.265625 -0.578125 3.640625 -0.578125 Z M 3.640625 -0.578125 "/></g></g></g><g fill="#ffffff" fill-opacity="1"><g transform="translate(49.372713, 32.831634)"><g><path d="M 0.984375 -5.234375 L 1.6875 -5.234375 L 1.6875 0 L 0.984375 0 Z M 1.34375 -6.375 C 1.195312 -6.375 1.070312 -6.421875 0.96875 -6.515625 C 0.875 -6.617188 0.828125 -6.742188 0.828125 -6.890625 C 0.828125 -7.023438 0.875 -7.140625 0.96875 -7.234375 C 1.070312 -7.335938 1.195312 -7.390625 1.34375 -7.390625 C 1.488281 -7.390625 1.609375 -7.335938 1.703125 -7.234375 C 1.804688 -7.140625 1.859375 -7.023438 1.859375 -6.890625 C 1.859375 -6.742188 1.804688 -6.617188 1.703125 -6.515625 C 1.609375 -6.421875 1.488281 -6.375 1.34375 -6.375 Z M 1.34375 -6.375 "/></g></g></g><g fill="#ffffff" fill-opacity="1"><g transform="translate(52.047932, 32.831634)"><g><path d="M 2.8125 -5.28125 C 3.5 -5.28125 4.023438 -5.109375 4.390625 -4.765625 C 4.753906 -4.421875 4.9375 -3.914062 4.9375 -3.25 L 4.9375 0 L 4.265625 0 L 4.265625 -0.8125 C 4.097656 -0.539062 3.859375 -0.328125 3.546875 -0.171875 C 3.242188 -0.0234375 2.878906 0.046875 2.453125 0.046875 C 1.867188 0.046875 1.40625 -0.0859375 1.0625 -0.359375 C 0.71875 -0.640625 0.546875 -1.007812 0.546875 -1.46875 C 0.546875 -1.914062 0.707031 -2.273438 1.03125 -2.546875 C 1.351562 -2.816406 1.863281 -2.953125 2.5625 -2.953125 L 4.234375 -2.953125 L 4.234375 -3.28125 C 4.234375 -3.726562 4.101562 -4.066406 3.84375 -4.296875 C 3.59375 -4.535156 3.226562 -4.65625 2.75 -4.65625 C 2.414062 -4.65625 2.09375 -4.597656 1.78125 -4.484375 C 1.476562 -4.378906 1.21875 -4.234375 1 -4.046875 L 0.6875 -4.5625 C 0.945312 -4.789062 1.265625 -4.96875 1.640625 -5.09375 C 2.015625 -5.21875 2.40625 -5.28125 2.8125 -5.28125 Z M 2.5625 -0.5 C 2.96875 -0.5 3.3125 -0.59375 3.59375 -0.78125 C 3.875 -0.96875 4.085938 -1.234375 4.234375 -1.578125 L 4.234375 -2.421875 L 2.59375 -2.421875 C 1.695312 -2.421875 1.25 -2.113281 1.25 -1.5 C 1.25 -1.1875 1.363281 -0.941406 1.59375 -0.765625 C 1.820312 -0.585938 2.144531 -0.5 2.5625 -0.5 Z M 2.5625 -0.5 "/></g></g></g><g fill="#ffffff" fill-opacity="1"><g transform="translate(57.91552, 32.831634)"><g><path d="M 0.984375 -7.390625 L 1.6875 -7.390625 L 1.6875 0 L 0.984375 0 Z M 0.984375 -7.390625 "/></g></g></g><g fill="#ffffff" fill-opacity="1"><g transform="translate(60.590739, 32.831634)"><g/></g></g><g fill="#ffffff" fill-opacity="1"><g transform="translate(63.196345, 32.831634)"><g><path d="M 5.765625 -7.390625 L 5.765625 0 L 5.09375 0 L 5.09375 -1.03125 C 4.875 -0.675781 4.585938 -0.40625 4.234375 -0.21875 C 3.890625 -0.0390625 3.5 0.046875 3.0625 0.046875 C 2.570312 0.046875 2.128906 -0.0625 1.734375 -0.28125 C 1.335938 -0.507812 1.023438 -0.828125 0.796875 -1.234375 C 0.566406 -1.640625 0.453125 -2.101562 0.453125 -2.625 C 0.453125 -3.132812 0.566406 -3.59375 0.796875 -4 C 1.023438 -4.40625 1.335938 -4.71875 1.734375 -4.9375 C 2.128906 -5.164062 2.570312 -5.28125 3.0625 -5.28125 C 3.488281 -5.28125 3.875 -5.191406 4.21875 -5.015625 C 4.5625 -4.835938 4.84375 -4.578125 5.0625 -4.234375 L 5.0625 -7.390625 Z M 3.125 -0.578125 C 3.488281 -0.578125 3.816406 -0.660156 4.109375 -0.828125 C 4.410156 -0.992188 4.644531 -1.234375 4.8125 -1.546875 C 4.976562 -1.859375 5.0625 -2.21875 5.0625 -2.625 C 5.0625 -3.019531 4.976562 -3.375 4.8125 -3.6875 C 4.644531 -4 4.410156 -4.238281 4.109375 -4.40625 C 3.816406 -4.570312 3.488281 -4.65625 3.125 -4.65625 C 2.75 -4.65625 2.414062 -4.570312 2.125 -4.40625 C 1.832031 -4.238281 1.597656 -4 1.421875 -3.6875 C 1.253906 -3.375 1.171875 -3.019531 1.171875 -2.625 C 1.171875 -2.21875 1.253906 -1.859375 1.421875 -1.546875 C 1.597656 -1.234375 1.832031 -0.992188 2.125 -0.828125 C 2.414062 -0.660156 2.75 -0.578125 3.125 -0.578125 Z M 3.125 -0.578125 "/></g></g></g><g fill="#ffffff" fill-opacity="1"><g transform="translate(69.939096, 32.831634)"><g><path d="M 5.546875 -2.40625 L 1.171875 -2.40625 C 1.203125 -1.851562 1.40625 -1.410156 1.78125 -1.078125 C 2.164062 -0.742188 2.644531 -0.578125 3.21875 -0.578125 C 3.550781 -0.578125 3.851562 -0.632812 4.125 -0.75 C 4.394531 -0.863281 4.628906 -1.035156 4.828125 -1.265625 L 5.21875 -0.8125 C 4.988281 -0.53125 4.695312 -0.316406 4.34375 -0.171875 C 4 -0.0234375 3.617188 0.046875 3.203125 0.046875 C 2.671875 0.046875 2.195312 -0.0664062 1.78125 -0.296875 C 1.363281 -0.523438 1.035156 -0.835938 0.796875 -1.234375 C 0.566406 -1.640625 0.453125 -2.101562 0.453125 -2.625 C 0.453125 -3.132812 0.5625 -3.585938 0.78125 -3.984375 C 1.007812 -4.390625 1.316406 -4.707031 1.703125 -4.9375 C 2.097656 -5.164062 2.535156 -5.28125 3.015625 -5.28125 C 3.503906 -5.28125 3.9375 -5.164062 4.3125 -4.9375 C 4.695312 -4.707031 5 -4.390625 5.21875 -3.984375 C 5.4375 -3.585938 5.546875 -3.132812 5.546875 -2.625 Z M 3.015625 -4.671875 C 2.515625 -4.671875 2.09375 -4.507812 1.75 -4.1875 C 1.40625 -3.863281 1.210938 -3.441406 1.171875 -2.921875 L 4.875 -2.921875 C 4.832031 -3.441406 4.640625 -3.863281 4.296875 -4.1875 C 3.953125 -4.507812 3.523438 -4.671875 3.015625 -4.671875 Z M 3.015625 -4.671875 "/></g></g></g><g fill="#ffffff" fill-opacity="1"><g transform="translate(75.945908, 32.831634)"><g><path d="M 2.71875 -6.84375 C 2.414062 -6.84375 2.1875 -6.757812 2.03125 -6.59375 C 1.875 -6.425781 1.796875 -6.179688 1.796875 -5.859375 L 1.796875 -5.234375 L 3.40625 -5.234375 L 3.40625 -4.640625 L 1.8125 -4.640625 L 1.8125 0 L 1.109375 0 L 1.109375 -4.640625 L 0.171875 -4.640625 L 0.171875 -5.234375 L 1.109375 -5.234375 L 1.109375 -5.875 C 1.109375 -6.351562 1.242188 -6.734375 1.515625 -7.015625 C 1.796875 -7.296875 2.1875 -7.4375 2.6875 -7.4375 C 2.882812 -7.4375 3.078125 -7.40625 3.265625 -7.34375 C 3.453125 -7.289062 3.609375 -7.210938 3.734375 -7.109375 L 3.5 -6.578125 C 3.289062 -6.753906 3.03125 -6.84375 2.71875 -6.84375 Z M 2.71875 -6.84375 "/></g></g></g><g fill="#ffffff" fill-opacity="1"><g transform="translate(79.317283, 32.831634)"><g><path d="M 5.546875 -2.40625 L 1.171875 -2.40625 C 1.203125 -1.851562 1.40625 -1.410156 1.78125 -1.078125 C 2.164062 -0.742188 2.644531 -0.578125 3.21875 -0.578125 C 3.550781 -0.578125 3.851562 -0.632812 4.125 -0.75 C 4.394531 -0.863281 4.628906 -1.035156 4.828125 -1.265625 L 5.21875 -0.8125 C 4.988281 -0.53125 4.695312 -0.316406 4.34375 -0.171875 C 4 -0.0234375 3.617188 0.046875 3.203125 0.046875 C 2.671875 0.046875 2.195312 -0.0664062 1.78125 -0.296875 C 1.363281 -0.523438 1.035156 -0.835938 0.796875 -1.234375 C 0.566406 -1.640625 0.453125 -2.101562 0.453125 -2.625 C 0.453125 -3.132812 0.5625 -3.585938 0.78125 -3.984375 C 1.007812 -4.390625 1.316406 -4.707031 1.703125 -4.9375 C 2.097656 -5.164062 2.535156 -5.28125 3.015625 -5.28125 C 3.503906 -5.28125 3.9375 -5.164062 4.3125 -4.9375 C 4.695312 -4.707031 5 -4.390625 5.21875 -3.984375 C 5.4375 -3.585938 5.546875 -3.132812 5.546875 -2.625 Z M 3.015625 -4.671875 C 2.515625 -4.671875 2.09375 -4.507812 1.75 -4.1875 C 1.40625 -3.863281 1.210938 -3.441406 1.171875 -2.921875 L 4.875 -2.921875 C 4.832031 -3.441406 4.640625 -3.863281 4.296875 -4.1875 C 3.953125 -4.507812 3.523438 -4.671875 3.015625 -4.671875 Z M 3.015625 -4.671875 "/></g></g></g><g fill="#ffffff" fill-opacity="1"><g transform="translate(85.324095, 32.831634)"><g><path d="M 3.65625 -5.28125 C 4.3125 -5.28125 4.832031 -5.085938 5.21875 -4.703125 C 5.601562 -4.316406 5.796875 -3.757812 5.796875 -3.03125 L 5.796875 0 L 5.09375 0 L 5.09375 -2.96875 C 5.09375 -3.507812 4.957031 -3.921875 4.6875 -4.203125 C 4.414062 -4.492188 4.023438 -4.640625 3.515625 -4.640625 C 2.953125 -4.640625 2.503906 -4.472656 2.171875 -4.140625 C 1.847656 -3.804688 1.6875 -3.34375 1.6875 -2.75 L 1.6875 0 L 0.984375 0 L 0.984375 -5.234375 L 1.65625 -5.234375 L 1.65625 -4.265625 C 1.851562 -4.585938 2.117188 -4.835938 2.453125 -5.015625 C 2.796875 -5.191406 3.195312 -5.28125 3.65625 -5.28125 Z M 3.65625 -5.28125 "/></g></g></g><g fill="#ffffff" fill-opacity="1"><g transform="translate(92.056894, 32.831634)"><g><path d="M 2.390625 0.046875 C 1.960938 0.046875 1.554688 -0.0078125 1.171875 -0.125 C 0.785156 -0.25 0.484375 -0.40625 0.265625 -0.59375 L 0.578125 -1.15625 C 0.796875 -0.976562 1.070312 -0.832031 1.40625 -0.71875 C 1.738281 -0.613281 2.082031 -0.5625 2.4375 -0.5625 C 2.914062 -0.5625 3.269531 -0.632812 3.5 -0.78125 C 3.726562 -0.9375 3.84375 -1.148438 3.84375 -1.421875 C 3.84375 -1.617188 3.78125 -1.769531 3.65625 -1.875 C 3.53125 -1.988281 3.367188 -2.070312 3.171875 -2.125 C 2.984375 -2.175781 2.726562 -2.234375 2.40625 -2.296875 C 1.976562 -2.367188 1.632812 -2.445312 1.375 -2.53125 C 1.125 -2.613281 0.90625 -2.753906 0.71875 -2.953125 C 0.539062 -3.148438 0.453125 -3.425781 0.453125 -3.78125 C 0.453125 -4.21875 0.632812 -4.578125 1 -4.859375 C 1.363281 -5.140625 1.867188 -5.28125 2.515625 -5.28125 C 2.859375 -5.28125 3.195312 -5.234375 3.53125 -5.140625 C 3.875 -5.046875 4.15625 -4.925781 4.375 -4.78125 L 4.0625 -4.21875 C 3.625 -4.519531 3.109375 -4.671875 2.515625 -4.671875 C 2.066406 -4.671875 1.726562 -4.585938 1.5 -4.421875 C 1.269531 -4.265625 1.15625 -4.054688 1.15625 -3.796875 C 1.15625 -3.597656 1.21875 -3.4375 1.34375 -3.3125 C 1.476562 -3.195312 1.640625 -3.109375 1.828125 -3.046875 C 2.023438 -2.992188 2.289062 -2.941406 2.625 -2.890625 C 3.039062 -2.804688 3.375 -2.722656 3.625 -2.640625 C 3.882812 -2.566406 4.101562 -2.429688 4.28125 -2.234375 C 4.457031 -2.046875 4.546875 -1.78125 4.546875 -1.4375 C 4.546875 -0.976562 4.351562 -0.613281 3.96875 -0.34375 C 3.59375 -0.0820312 3.066406 0.046875 2.390625 0.046875 Z M 2.390625 0.046875 "/></g></g></g><g fill="#ffffff" fill-opacity="1"><g transform="translate(96.920024, 32.831634)"><g><path d="M 5.546875 -2.40625 L 1.171875 -2.40625 C 1.203125 -1.851562 1.40625 -1.410156 1.78125 -1.078125 C 2.164062 -0.742188 2.644531 -0.578125 3.21875 -0.578125 C 3.550781 -0.578125 3.851562 -0.632812 4.125 -0.75 C 4.394531 -0.863281 4.628906 -1.035156 4.828125 -1.265625 L 5.21875 -0.8125 C 4.988281 -0.53125 4.695312 -0.316406 4.34375 -0.171875 C 4 -0.0234375 3.617188 0.046875 3.203125 0.046875 C 2.671875 0.046875 2.195312 -0.0664062 1.78125 -0.296875 C 1.363281 -0.523438 1.035156 -0.835938 0.796875 -1.234375 C 0.566406 -1.640625 0.453125 -2.101562 0.453125 -2.625 C 0.453125 -3.132812 0.5625 -3.585938 0.78125 -3.984375 C 1.007812 -4.390625 1.316406 -4.707031 1.703125 -4.9375 C 2.097656 -5.164062 2.535156 -5.28125 3.015625 -5.28125 C 3.503906 -5.28125 3.9375 -5.164062 4.3125 -4.9375 C 4.695312 -4.707031 5 -4.390625 5.21875 -3.984375 C 5.4375 -3.585938 5.546875 -3.132812 5.546875 -2.625 Z M 3.015625 -4.671875 C 2.515625 -4.671875 2.09375 -4.507812 1.75 -4.1875 C 1.40625 -3.863281 1.210938 -3.441406 1.171875 -2.921875 L 4.875 -2.921875 C 4.832031 -3.441406 4.640625 -3.863281 4.296875 -4.1875 C 3.953125 -4.507812 3.523438 -4.671875 3.015625 -4.671875 Z M 3.015625 -4.671875 "/></g></g></g><g fill="#ffffff" fill-opacity="1"><g transform="translate(102.926836, 32.831634)"><g/></g></g><g fill="#ffffff" fill-opacity="1"><g transform="translate(105.532443, 32.831634)"><g><path d="M 6.125 0.109375 L 5.15625 -0.890625 C 4.5625 -0.253906 3.785156 0.0625 2.828125 0.0625 C 2.378906 0.0625 1.972656 -0.0078125 1.609375 -0.15625 C 1.253906 -0.3125 0.976562 -0.519531 0.78125 -0.78125 C 0.582031 -1.050781 0.484375 -1.363281 0.484375 -1.71875 C 0.484375 -2.132812 0.613281 -2.503906 0.875 -2.828125 C 1.144531 -3.160156 1.597656 -3.507812 2.234375 -3.875 C 1.898438 -4.226562 1.671875 -4.523438 1.546875 -4.765625 C 1.421875 -5.003906 1.359375 -5.257812 1.359375 -5.53125 C 1.359375 -5.976562 1.515625 -6.335938 1.828125 -6.609375 C 2.148438 -6.878906 2.582031 -7.015625 3.125 -7.015625 C 3.625 -7.015625 4.019531 -6.890625 4.3125 -6.640625 C 4.601562 -6.398438 4.75 -6.066406 4.75 -5.640625 C 4.75 -5.285156 4.628906 -4.972656 4.390625 -4.703125 C 4.160156 -4.429688 3.757812 -4.128906 3.1875 -3.796875 L 5.109375 -1.828125 C 5.316406 -2.203125 5.472656 -2.648438 5.578125 -3.171875 L 6.15625 -2.984375 C 6.03125 -2.359375 5.820312 -1.828125 5.53125 -1.390625 L 6.53125 -0.359375 Z M 3.125 -6.484375 C 2.78125 -6.484375 2.507812 -6.394531 2.3125 -6.21875 C 2.113281 -6.050781 2.015625 -5.828125 2.015625 -5.546875 C 2.015625 -5.335938 2.066406 -5.140625 2.171875 -4.953125 C 2.285156 -4.765625 2.5 -4.515625 2.8125 -4.203125 C 3.3125 -4.492188 3.65625 -4.738281 3.84375 -4.9375 C 4.039062 -5.144531 4.140625 -5.375 4.140625 -5.625 C 4.140625 -5.882812 4.050781 -6.09375 3.875 -6.25 C 3.695312 -6.40625 3.445312 -6.484375 3.125 -6.484375 Z M 2.859375 -0.53125 C 3.628906 -0.53125 4.253906 -0.789062 4.734375 -1.3125 L 2.640625 -3.46875 C 2.085938 -3.15625 1.707031 -2.875 1.5 -2.625 C 1.289062 -2.375 1.1875 -2.09375 1.1875 -1.78125 C 1.1875 -1.40625 1.335938 -1.101562 1.640625 -0.875 C 1.953125 -0.644531 2.359375 -0.53125 2.859375 -0.53125 Z M 2.859375 -0.53125 "/></g></g></g><g fill="#ffffff" fill-opacity="1"><g transform="translate(112.18569, 32.831634)"><g/></g></g><g fill="#ffffff" fill-opacity="1"><g transform="translate(114.791297, 32.831634)"><g><path d="M 3.65625 -5.28125 C 4.3125 -5.28125 4.832031 -5.085938 5.21875 -4.703125 C 5.601562 -4.316406 5.796875 -3.757812 5.796875 -3.03125 L 5.796875 0 L 5.09375 0 L 5.09375 -2.96875 C 5.09375 -3.507812 4.957031 -3.921875 4.6875 -4.203125 C 4.414062 -4.492188 4.023438 -4.640625 3.515625 -4.640625 C 2.953125 -4.640625 2.503906 -4.472656 2.171875 -4.140625 C 1.847656 -3.804688 1.6875 -3.34375 1.6875 -2.75 L 1.6875 0 L 0.984375 0 L 0.984375 -7.390625 L 1.6875 -7.390625 L 1.6875 -4.3125 C 1.882812 -4.625 2.148438 -4.863281 2.484375 -5.03125 C 2.828125 -5.195312 3.21875 -5.28125 3.65625 -5.28125 Z M 3.65625 -5.28125 "/></g></g></g><g fill="#ffffff" fill-opacity="1"><g transform="translate(121.524096, 32.831634)"><g><path d="M 5.546875 -2.40625 L 1.171875 -2.40625 C 1.203125 -1.851562 1.40625 -1.410156 1.78125 -1.078125 C 2.164062 -0.742188 2.644531 -0.578125 3.21875 -0.578125 C 3.550781 -0.578125 3.851562 -0.632812 4.125 -0.75 C 4.394531 -0.863281 4.628906 -1.035156 4.828125 -1.265625 L 5.21875 -0.8125 C 4.988281 -0.53125 4.695312 -0.316406 4.34375 -0.171875 C 4 -0.0234375 3.617188 0.046875 3.203125 0.046875 C 2.671875 0.046875 2.195312 -0.0664062 1.78125 -0.296875 C 1.363281 -0.523438 1.035156 -0.835938 0.796875 -1.234375 C 0.566406 -1.640625 0.453125 -2.101562 0.453125 -2.625 C 0.453125 -3.132812 0.5625 -3.585938 0.78125 -3.984375 C 1.007812 -4.390625 1.316406 -4.707031 1.703125 -4.9375 C 2.097656 -5.164062 2.535156 -5.28125 3.015625 -5.28125 C 3.503906 -5.28125 3.9375 -5.164062 4.3125 -4.9375 C 4.695312 -4.707031 5 -4.390625 5.21875 -3.984375 C 5.4375 -3.585938 5.546875 -3.132812 5.546875 -2.625 Z M 3.015625 -4.671875 C 2.515625 -4.671875 2.09375 -4.507812 1.75 -4.1875 C 1.40625 -3.863281 1.210938 -3.441406 1.171875 -2.921875 L 4.875 -2.921875 C 4.832031 -3.441406 4.640625 -3.863281 4.296875 -4.1875 C 3.953125 -4.507812 3.523438 -4.671875 3.015625 -4.671875 Z M 3.015625 -4.671875 "/></g></g></g><g fill="#ffffff" fill-opacity="1"><g transform="translate(127.530908, 32.831634)"><g><path d="M 2.8125 -5.28125 C 3.5 -5.28125 4.023438 -5.109375 4.390625 -4.765625 C 4.753906 -4.421875 4.9375 -3.914062 4.9375 -3.25 L 4.9375 0 L 4.265625 0 L 4.265625 -0.8125 C 4.097656 -0.539062 3.859375 -0.328125 3.546875 -0.171875 C 3.242188 -0.0234375 2.878906 0.046875 2.453125 0.046875 C 1.867188 0.046875 1.40625 -0.0859375 1.0625 -0.359375 C 0.71875 -0.640625 0.546875 -1.007812 0.546875 -1.46875 C 0.546875 -1.914062 0.707031 -2.273438 1.03125 -2.546875 C 1.351562 -2.816406 1.863281 -2.953125 2.5625 -2.953125 L 4.234375 -2.953125 L 4.234375 -3.28125 C 4.234375 -3.726562 4.101562 -4.066406 3.84375 -4.296875 C 3.59375 -4.535156 3.226562 -4.65625 2.75 -4.65625 C 2.414062 -4.65625 2.09375 -4.597656 1.78125 -4.484375 C 1.476562 -4.378906 1.21875 -4.234375 1 -4.046875 L 0.6875 -4.5625 C 0.945312 -4.789062 1.265625 -4.96875 1.640625 -5.09375 C 2.015625 -5.21875 2.40625 -5.28125 2.8125 -5.28125 Z M 2.5625 -0.5 C 2.96875 -0.5 3.3125 -0.59375 3.59375 -0.78125 C 3.875 -0.96875 4.085938 -1.234375 4.234375 -1.578125 L 4.234375 -2.421875 L 2.59375 -2.421875 C 1.695312 -2.421875 1.25 -2.113281 1.25 -1.5 C 1.25 -1.1875 1.363281 -0.941406 1.59375 -0.765625 C 1.820312 -0.585938 2.144531 -0.5 2.5625 -0.5 Z M 2.5625 -0.5 "/></g></g></g><g fill="#ffffff" fill-opacity="1"><g transform="translate(133.398496, 32.831634)"><g><path d="M 0.984375 -7.390625 L 1.6875 -7.390625 L 1.6875 0 L 0.984375 0 Z M 0.984375 -7.390625 "/></g></g></g><g fill="#ffffff" fill-opacity="1"><g transform="translate(136.073715, 32.831634)"><g><path d="M 3.75 -0.3125 C 3.613281 -0.195312 3.445312 -0.109375 3.25 -0.046875 C 3.050781 0.015625 2.847656 0.046875 2.640625 0.046875 C 2.148438 0.046875 1.769531 -0.0820312 1.5 -0.34375 C 1.238281 -0.613281 1.109375 -0.988281 1.109375 -1.46875 L 1.109375 -4.640625 L 0.171875 -4.640625 L 0.171875 -5.234375 L 1.109375 -5.234375 L 1.109375 -6.375 L 1.8125 -6.375 L 1.8125 -5.234375 L 3.40625 -5.234375 L 3.40625 -4.640625 L 1.8125 -4.640625 L 1.8125 -1.515625 C 1.8125 -1.203125 1.890625 -0.960938 2.046875 -0.796875 C 2.203125 -0.640625 2.425781 -0.5625 2.71875 -0.5625 C 2.863281 -0.5625 3.003906 -0.582031 3.140625 -0.625 C 3.273438 -0.675781 3.394531 -0.742188 3.5 -0.828125 Z M 3.75 -0.3125 "/></g></g></g><g fill="#ffffff" fill-opacity="1"><g transform="translate(140.111404, 32.831634)"><g><path d="M 3.65625 -5.28125 C 4.3125 -5.28125 4.832031 -5.085938 5.21875 -4.703125 C 5.601562 -4.316406 5.796875 -3.757812 5.796875 -3.03125 L 5.796875 0 L 5.09375 0 L 5.09375 -2.96875 C 5.09375 -3.507812 4.957031 -3.921875 4.6875 -4.203125 C 4.414062 -4.492188 4.023438 -4.640625 3.515625 -4.640625 C 2.953125 -4.640625 2.503906 -4.472656 2.171875 -4.140625 C 1.847656 -3.804688 1.6875 -3.34375 1.6875 -2.75 L 1.6875 0 L 0.984375 0 L 0.984375 -7.390625 L 1.6875 -7.390625 L 1.6875 -4.3125 C 1.882812 -4.625 2.148438 -4.863281 2.484375 -5.03125 C 2.828125 -5.195312 3.21875 -5.28125 3.65625 -5.28125 Z M 3.65625 -5.28125 "/></g></g></g><g fill="#ffffff" fill-opacity="1"><g transform="translate(146.844203, 32.831634)"><g><path d="M 5.390625 -5.234375 L 2.765625 0.625 C 2.554688 1.113281 2.3125 1.460938 2.03125 1.671875 C 1.75 1.878906 1.414062 1.984375 1.03125 1.984375 C 0.769531 1.984375 0.53125 1.941406 0.3125 1.859375 C 0.09375 1.773438 -0.09375 1.65625 -0.25 1.5 L 0.078125 0.96875 C 0.347656 1.238281 0.664062 1.375 1.03125 1.375 C 1.269531 1.375 1.472656 1.304688 1.640625 1.171875 C 1.816406 1.035156 1.976562 0.8125 2.125 0.5 L 2.34375 -0.015625 L 0.015625 -5.234375 L 0.75 -5.234375 L 2.71875 -0.78125 L 4.6875 -5.234375 Z M 5.390625 -5.234375 "/></g></g></g><g fill="#ffffff" fill-opacity="1"><g transform="translate(152.234423, 32.831634)"><g/></g></g><g fill="#ffffff" fill-opacity="1"><g transform="translate(154.84003, 32.831634)"><g><path d="M 2.71875 -6.84375 C 2.414062 -6.84375 2.1875 -6.757812 2.03125 -6.59375 C 1.875 -6.425781 1.796875 -6.179688 1.796875 -5.859375 L 1.796875 -5.234375 L 3.40625 -5.234375 L 3.40625 -4.640625 L 1.8125 -4.640625 L 1.8125 0 L 1.109375 0 L 1.109375 -4.640625 L 0.171875 -4.640625 L 0.171875 -5.234375 L 1.109375 -5.234375 L 1.109375 -5.875 C 1.109375 -6.351562 1.242188 -6.734375 1.515625 -7.015625 C 1.796875 -7.296875 2.1875 -7.4375 2.6875 -7.4375 C 2.882812 -7.4375 3.078125 -7.40625 3.265625 -7.34375 C 3.453125 -7.289062 3.609375 -7.210938 3.734375 -7.109375 L 3.5 -6.578125 C 3.289062 -6.753906 3.03125 -6.84375 2.71875 -6.84375 Z M 2.71875 -6.84375 "/></g></g></g><g fill="#ffffff" fill-opacity="1"><g transform="translate(158.211405, 32.831634)"><g><path d="M 5.703125 -5.234375 L 5.703125 0 L 5.03125 0 L 5.03125 -0.953125 C 4.84375 -0.640625 4.582031 -0.394531 4.25 -0.21875 C 3.925781 -0.0390625 3.554688 0.046875 3.140625 0.046875 C 2.460938 0.046875 1.925781 -0.140625 1.53125 -0.515625 C 1.132812 -0.898438 0.9375 -1.460938 0.9375 -2.203125 L 0.9375 -5.234375 L 1.640625 -5.234375 L 1.640625 -2.265625 C 1.640625 -1.710938 1.773438 -1.296875 2.046875 -1.015625 C 2.316406 -0.734375 2.707031 -0.59375 3.21875 -0.59375 C 3.769531 -0.59375 4.203125 -0.757812 4.515625 -1.09375 C 4.835938 -1.425781 5 -1.890625 5 -2.484375 L 5 -5.234375 Z M 5.703125 -5.234375 "/></g></g></g><g fill="#ffffff" fill-opacity="1"><g transform="translate(164.904422, 32.831634)"><g><path d="M 1.65625 -4.203125 C 1.820312 -4.554688 2.066406 -4.820312 2.390625 -5 C 2.722656 -5.1875 3.132812 -5.28125 3.625 -5.28125 L 3.625 -4.59375 L 3.453125 -4.59375 C 2.898438 -4.59375 2.46875 -4.421875 2.15625 -4.078125 C 1.84375 -3.742188 1.6875 -3.273438 1.6875 -2.671875 L 1.6875 0 L 0.984375 0 L 0.984375 -5.234375 L 1.65625 -5.234375 Z M 1.65625 -4.203125 "/></g></g></g><g fill="#ffffff" fill-opacity="1"><g transform="translate(168.89239, 32.831634)"><g/></g></g><g fill="#ffffff" fill-opacity="1"><g transform="translate(171.497997, 32.831634)"><g><path d="M 2.390625 0.046875 C 1.960938 0.046875 1.554688 -0.0078125 1.171875 -0.125 C 0.785156 -0.25 0.484375 -0.40625 0.265625 -0.59375 L 0.578125 -1.15625 C 0.796875 -0.976562 1.070312 -0.832031 1.40625 -0.71875 C 1.738281 -0.613281 2.082031 -0.5625 2.4375 -0.5625 C 2.914062 -0.5625 3.269531 -0.632812 3.5 -0.78125 C 3.726562 -0.9375 3.84375 -1.148438 3.84375 -1.421875 C 3.84375 -1.617188 3.78125 -1.769531 3.65625 -1.875 C 3.53125 -1.988281 3.367188 -2.070312 3.171875 -2.125 C 2.984375 -2.175781 2.726562 -2.234375 2.40625 -2.296875 C 1.976562 -2.367188 1.632812 -2.445312 1.375 -2.53125 C 1.125 -2.613281 0.90625 -2.753906 0.71875 -2.953125 C 0.539062 -3.148438 0.453125 -3.425781 0.453125 -3.78125 C 0.453125 -4.21875 0.632812 -4.578125 1 -4.859375 C 1.363281 -5.140625 1.867188 -5.28125 2.515625 -5.28125 C 2.859375 -5.28125 3.195312 -5.234375 3.53125 -5.140625 C 3.875 -5.046875 4.15625 -4.925781 4.375 -4.78125 L 4.0625 -4.21875 C 3.625 -4.519531 3.109375 -4.671875 2.515625 -4.671875 C 2.066406 -4.671875 1.726562 -4.585938 1.5 -4.421875 C 1.269531 -4.265625 1.15625 -4.054688 1.15625 -3.796875 C 1.15625 -3.597656 1.21875 -3.4375 1.34375 -3.3125 C 1.476562 -3.195312 1.640625 -3.109375 1.828125 -3.046875 C 2.023438 -2.992188 2.289062 -2.941406 2.625 -2.890625 C 3.039062 -2.804688 3.375 -2.722656 3.625 -2.640625 C 3.882812 -2.566406 4.101562 -2.429688 4.28125 -2.234375 C 4.457031 -2.046875 4.546875 -1.78125 4.546875 -1.4375 C 4.546875 -0.976562 4.351562 -0.613281 3.96875 -0.34375 C 3.59375 -0.0820312 3.066406 0.046875 2.390625 0.046875 Z M 2.390625 0.046875 "/></g></g></g><g fill="#ffffff" fill-opacity="1"><g transform="translate(176.361126, 32.831634)"><g><path d="M 5.703125 -5.234375 L 5.703125 0 L 5.03125 0 L 5.03125 -0.953125 C 4.84375 -0.640625 4.582031 -0.394531 4.25 -0.21875 C 3.925781 -0.0390625 3.554688 0.046875 3.140625 0.046875 C 2.460938 0.046875 1.925781 -0.140625 1.53125 -0.515625 C 1.132812 -0.898438 0.9375 -1.460938 0.9375 -2.203125 L 0.9375 -5.234375 L 1.640625 -5.234375 L 1.640625 -2.265625 C 1.640625 -1.710938 1.773438 -1.296875 2.046875 -1.015625 C 2.316406 -0.734375 2.707031 -0.59375 3.21875 -0.59375 C 3.769531 -0.59375 4.203125 -0.757812 4.515625 -1.09375 C 4.835938 -1.425781 5 -1.890625 5 -2.484375 L 5 -5.234375 Z M 5.703125 -5.234375 "/></g></g></g><g fill="#ffffff" fill-opacity="1"><g transform="translate(183.054144, 32.831634)"><g><path d="M 3.6875 -5.28125 C 4.175781 -5.28125 4.617188 -5.164062 5.015625 -4.9375 C 5.410156 -4.71875 5.722656 -4.40625 5.953125 -4 C 6.179688 -3.59375 6.296875 -3.132812 6.296875 -2.625 C 6.296875 -2.09375 6.179688 -1.625 5.953125 -1.21875 C 5.722656 -0.8125 5.410156 -0.5 5.015625 -0.28125 C 4.617188 -0.0625 4.175781 0.046875 3.6875 0.046875 C 3.257812 0.046875 2.875 -0.0390625 2.53125 -0.21875 C 2.1875 -0.394531 1.90625 -0.648438 1.6875 -0.984375 L 1.6875 1.9375 L 0.984375 1.9375 L 0.984375 -5.234375 L 1.65625 -5.234375 L 1.65625 -4.203125 C 1.875 -4.546875 2.15625 -4.8125 2.5 -5 C 2.851562 -5.1875 3.25 -5.28125 3.6875 -5.28125 Z M 3.640625 -0.578125 C 4.003906 -0.578125 4.332031 -0.660156 4.625 -0.828125 C 4.925781 -0.992188 5.160156 -1.234375 5.328125 -1.546875 C 5.492188 -1.859375 5.578125 -2.21875 5.578125 -2.625 C 5.578125 -3.019531 5.492188 -3.367188 5.328125 -3.671875 C 5.160156 -3.984375 4.925781 -4.222656 4.625 -4.390625 C 4.332031 -4.566406 4.003906 -4.65625 3.640625 -4.65625 C 3.265625 -4.65625 2.925781 -4.566406 2.625 -4.390625 C 2.332031 -4.222656 2.101562 -3.984375 1.9375 -3.671875 C 1.769531 -3.367188 1.6875 -3.019531 1.6875 -2.625 C 1.6875 -2.21875 1.769531 -1.859375 1.9375 -1.546875 C 2.101562 -1.234375 2.332031 -0.992188 2.625 -0.828125 C 2.925781 -0.660156 3.265625 -0.578125 3.640625 -0.578125 Z M 3.640625 -0.578125 "/></g></g></g><g fill="#ffffff" fill-opacity="1"><g transform="translate(189.796894, 32.831634)"><g><path d="M 3.6875 -5.28125 C 4.175781 -5.28125 4.617188 -5.164062 5.015625 -4.9375 C 5.410156 -4.71875 5.722656 -4.40625 5.953125 -4 C 6.179688 -3.59375 6.296875 -3.132812 6.296875 -2.625 C 6.296875 -2.09375 6.179688 -1.625 5.953125 -1.21875 C 5.722656 -0.8125 5.410156 -0.5 5.015625 -0.28125 C 4.617188 -0.0625 4.175781 0.046875 3.6875 0.046875 C 3.257812 0.046875 2.875 -0.0390625 2.53125 -0.21875 C 2.1875 -0.394531 1.90625 -0.648438 1.6875 -0.984375 L 1.6875 1.9375 L 0.984375 1.9375 L 0.984375 -5.234375 L 1.65625 -5.234375 L 1.65625 -4.203125 C 1.875 -4.546875 2.15625 -4.8125 2.5 -5 C 2.851562 -5.1875 3.25 -5.28125 3.6875 -5.28125 Z M 3.640625 -0.578125 C 4.003906 -0.578125 4.332031 -0.660156 4.625 -0.828125 C 4.925781 -0.992188 5.160156 -1.234375 5.328125 -1.546875 C 5.492188 -1.859375 5.578125 -2.21875 5.578125 -2.625 C 5.578125 -3.019531 5.492188 -3.367188 5.328125 -3.671875 C 5.160156 -3.984375 4.925781 -4.222656 4.625 -4.390625 C 4.332031 -4.566406 4.003906 -4.65625 3.640625 -4.65625 C 3.265625 -4.65625 2.925781 -4.566406 2.625 -4.390625 C 2.332031 -4.222656 2.101562 -3.984375 1.9375 -3.671875 C 1.769531 -3.367188 1.6875 -3.019531 1.6875 -2.625 C 1.6875 -2.21875 1.769531 -1.859375 1.9375 -1.546875 C 2.101562 -1.234375 2.332031 -0.992188 2.625 -0.828125 C 2.925781 -0.660156 3.265625 -0.578125 3.640625 -0.578125 Z M 3.640625 -0.578125 "/></g></g></g><g fill="#ffffff" fill-opacity="1"><g transform="translate(196.539644, 32.831634)"><g><path d="M 3.125 0.046875 C 2.625 0.046875 2.171875 -0.0664062 1.765625 -0.296875 C 1.359375 -0.523438 1.035156 -0.835938 0.796875 -1.234375 C 0.566406 -1.640625 0.453125 -2.101562 0.453125 -2.625 C 0.453125 -3.132812 0.566406 -3.585938 0.796875 -3.984375 C 1.035156 -4.390625 1.359375 -4.707031 1.765625 -4.9375 C 2.171875 -5.164062 2.625 -5.28125 3.125 -5.28125 C 3.625 -5.28125 4.078125 -5.164062 4.484375 -4.9375 C 4.890625 -4.707031 5.207031 -4.390625 5.4375 -3.984375 C 5.664062 -3.585938 5.78125 -3.132812 5.78125 -2.625 C 5.78125 -2.101562 5.664062 -1.640625 5.4375 -1.234375 C 5.207031 -0.835938 4.890625 -0.523438 4.484375 -0.296875 C 4.078125 -0.0664062 3.625 0.046875 3.125 0.046875 Z M 3.125 -0.578125 C 3.5 -0.578125 3.832031 -0.660156 4.125 -0.828125 C 4.414062 -0.992188 4.644531 -1.234375 4.8125 -1.546875 C 4.976562 -1.859375 5.0625 -2.21875 5.0625 -2.625 C 5.0625 -3.019531 4.976562 -3.375 4.8125 -3.6875 C 4.644531 -4 4.414062 -4.238281 4.125 -4.40625 C 3.832031 -4.570312 3.5 -4.65625 3.125 -4.65625 C 2.75 -4.65625 2.414062 -4.570312 2.125 -4.40625 C 1.832031 -4.238281 1.597656 -4 1.421875 -3.6875 C 1.253906 -3.375 1.171875 -3.019531 1.171875 -2.625 C 1.171875 -2.21875 1.253906 -1.859375 1.421875 -1.546875 C 1.597656 -1.234375 1.832031 -0.992188 2.125 -0.828125 C 2.414062 -0.660156 2.75 -0.578125 3.125 -0.578125 Z M 3.125 -0.578125 "/></g></g></g><g fill="#ffffff" fill-opacity="1"><g transform="translate(202.775195, 32.831634)"><g><path d="M 1.65625 -4.203125 C 1.820312 -4.554688 2.066406 -4.820312 2.390625 -5 C 2.722656 -5.1875 3.132812 -5.28125 3.625 -5.28125 L 3.625 -4.59375 L 3.453125 -4.59375 C 2.898438 -4.59375 2.46875 -4.421875 2.15625 -4.078125 C 1.84375 -3.742188 1.6875 -3.273438 1.6875 -2.671875 L 1.6875 0 L 0.984375 0 L 0.984375 -5.234375 L 1.65625 -5.234375 Z M 1.65625 -4.203125 "/></g></g></g><g fill="#ffffff" fill-opacity="1"><g transform="translate(206.763174, 32.831634)"><g><path d="M 3.75 -0.3125 C 3.613281 -0.195312 3.445312 -0.109375 3.25 -0.046875 C 3.050781 0.015625 2.847656 0.046875 2.640625 0.046875 C 2.148438 0.046875 1.769531 -0.0820312 1.5 -0.34375 C 1.238281 -0.613281 1.109375 -0.988281 1.109375 -1.46875 L 1.109375 -4.640625 L 0.171875 -4.640625 L 0.171875 -5.234375 L 1.109375 -5.234375 L 1.109375 -6.375 L 1.8125 -6.375 L 1.8125 -5.234375 L 3.40625 -5.234375 L 3.40625 -4.640625 L 1.8125 -4.640625 L 1.8125 -1.515625 C 1.8125 -1.203125 1.890625 -0.960938 2.046875 -0.796875 C 2.203125 -0.640625 2.425781 -0.5625 2.71875 -0.5625 C 2.863281 -0.5625 3.003906 -0.582031 3.140625 -0.625 C 3.273438 -0.675781 3.394531 -0.742188 3.5 -0.828125 Z M 3.75 -0.3125 "/></g></g></g></svg>