<svg xmlns="http://www.w3.org/2000/svg" xmlns:xlink="http://www.w3.org/1999/xlink" width="301" zoomAndPan="magnify" viewBox="0 0 225.75 49.499998" height="66" preserveAspectRatio="xMidYMid meet" version="1.0"><defs><g/><clipPath id="802e3e0591"><path d="M 33.527344 17.089844 L 48.140625 17.089844 L 48.140625 31.058594 L 33.527344 31.058594 Z M 33.527344 17.089844 " clip-rule="nonzero"/></clipPath><clipPath id="ec9baf431f"><path d="M 1.003906 0 L 224.316406 0 L 224.316406 48.339844 L 1.003906 48.339844 Z M 1.003906 0 " clip-rule="nonzero"/></clipPath></defs><g clip-path="url(#802e3e0591)"><path fill="#feca08" d="M 33.527344 17.089844 L 48.152344 17.089844 L 48.152344 31.058594 L 33.527344 31.058594 Z M 33.527344 17.089844 " fill-opacity="1" fill-rule="nonzero"/></g><g clip-path="url(#ec9baf431f)"><path fill="#51a31f" d="M 1.003906 0 L 224.378906 0 L 224.378906 48.339844 L 1.003906 48.339844 Z M 1.003906 0 " fill-opacity="1" fill-rule="nonzero"/></g><g fill="#ffffff" fill-opacity="1"><g transform="translate(36.552189, 20.789998)"><g><path d="M 3.0625 -6.921875 L 3.0625 0 L 1.453125 0 L 1.453125 -5.640625 L 0.0625 -5.640625 L 0.0625 -6.921875 Z M 3.0625 -6.921875 "/></g></g></g><g fill="#ffffff" fill-opacity="1"><g transform="translate(40.431461, 20.789998)"><g><path d="M 3.359375 0.125 C 2.785156 0.125 2.269531 -0.015625 1.8125 -0.296875 C 1.363281 -0.585938 1.015625 -1 0.765625 -1.53125 C 0.515625 -2.070312 0.390625 -2.71875 0.390625 -3.46875 C 0.390625 -4.207031 0.515625 -4.84375 0.765625 -5.375 C 1.015625 -5.914062 1.363281 -6.328125 1.8125 -6.609375 C 2.269531 -6.898438 2.785156 -7.046875 3.359375 -7.046875 C 3.929688 -7.046875 4.441406 -6.898438 4.890625 -6.609375 C 5.335938 -6.328125 5.6875 -5.914062 5.9375 -5.375 C 6.1875 -4.84375 6.3125 -4.207031 6.3125 -3.46875 C 6.3125 -2.71875 6.1875 -2.070312 5.9375 -1.53125 C 5.6875 -1 5.335938 -0.585938 4.890625 -0.296875 C 4.441406 -0.015625 3.929688 0.125 3.359375 0.125 Z M 3.359375 -1.234375 C 3.773438 -1.234375 4.101562 -1.414062 4.34375 -1.78125 C 4.582031 -2.144531 4.703125 -2.707031 4.703125 -3.46875 C 4.703125 -4.21875 4.582031 -4.773438 4.34375 -5.140625 C 4.101562 -5.503906 3.773438 -5.6875 3.359375 -5.6875 C 2.941406 -5.6875 2.609375 -5.503906 2.359375 -5.140625 C 2.117188 -4.773438 2 -4.21875 2 -3.46875 C 2 -2.707031 2.117188 -2.144531 2.359375 -1.78125 C 2.609375 -1.414062 2.941406 -1.234375 3.359375 -1.234375 Z M 3.359375 -1.234375 "/></g></g></g><g fill="#ffffff" fill-opacity="1"><g transform="translate(47.150906, 20.789998)"><g><path d="M 3.359375 0.125 C 2.785156 0.125 2.269531 -0.015625 1.8125 -0.296875 C 1.363281 -0.585938 1.015625 -1 0.765625 -1.53125 C 0.515625 -2.070312 0.390625 -2.71875 0.390625 -3.46875 C 0.390625 -4.207031 0.515625 -4.84375 0.765625 -5.375 C 1.015625 -5.914062 1.363281 -6.328125 1.8125 -6.609375 C 2.269531 -6.898438 2.785156 -7.046875 3.359375 -7.046875 C 3.929688 -7.046875 4.441406 -6.898438 4.890625 -6.609375 C 5.335938 -6.328125 5.6875 -5.914062 5.9375 -5.375 C 6.1875 -4.84375 6.3125 -4.207031 6.3125 -3.46875 C 6.3125 -2.71875 6.1875 -2.070312 5.9375 -1.53125 C 5.6875 -1 5.335938 -0.585938 4.890625 -0.296875 C 4.441406 -0.015625 3.929688 0.125 3.359375 0.125 Z M 3.359375 -1.234375 C 3.773438 -1.234375 4.101562 -1.414062 4.34375 -1.78125 C 4.582031 -2.144531 4.703125 -2.707031 4.703125 -3.46875 C 4.703125 -4.21875 4.582031 -4.773438 4.34375 -5.140625 C 4.101562 -5.503906 3.773438 -5.6875 3.359375 -5.6875 C 2.941406 -5.6875 2.609375 -5.503906 2.359375 -5.140625 C 2.117188 -4.773438 2 -4.21875 2 -3.46875 C 2 -2.707031 2.117188 -2.144531 2.359375 -1.78125 C 2.609375 -1.414062 2.941406 -1.234375 3.359375 -1.234375 Z M 3.359375 -1.234375 "/></g></g></g><g fill="#ffffff" fill-opacity="1"><g transform="translate(53.870352, 20.789998)"><g><path d="M 1.984375 -3.1875 C 1.472656 -3.1875 1.054688 -3.359375 0.734375 -3.703125 C 0.421875 -4.046875 0.265625 -4.507812 0.265625 -5.09375 C 0.265625 -5.675781 0.421875 -6.140625 0.734375 -6.484375 C 1.054688 -6.828125 1.472656 -7 1.984375 -7 C 2.492188 -7 2.90625 -6.828125 3.21875 -6.484375 C 3.539062 -6.140625 3.703125 -5.675781 3.703125 -5.09375 C 3.703125 -4.507812 3.539062 -4.046875 3.21875 -3.703125 C 2.90625 -3.359375 2.492188 -3.1875 1.984375 -3.1875 Z M 6.109375 -6.921875 L 7.296875 -6.921875 L 2.5625 0 L 1.390625 0 Z M 1.984375 -4 C 2.210938 -4 2.390625 -4.085938 2.515625 -4.265625 C 2.640625 -4.453125 2.703125 -4.726562 2.703125 -5.09375 C 2.703125 -5.457031 2.640625 -5.726562 2.515625 -5.90625 C 2.390625 -6.09375 2.210938 -6.1875 1.984375 -6.1875 C 1.765625 -6.1875 1.585938 -6.09375 1.453125 -5.90625 C 1.328125 -5.71875 1.265625 -5.445312 1.265625 -5.09375 C 1.265625 -4.738281 1.328125 -4.46875 1.453125 -4.28125 C 1.585938 -4.09375 1.765625 -4 1.984375 -4 Z M 6.6875 0.078125 C 6.351562 0.078125 6.054688 0 5.796875 -0.15625 C 5.535156 -0.3125 5.332031 -0.53125 5.1875 -0.8125 C 5.039062 -1.101562 4.96875 -1.441406 4.96875 -1.828125 C 4.96875 -2.210938 5.039062 -2.550781 5.1875 -2.84375 C 5.332031 -3.132812 5.535156 -3.351562 5.796875 -3.5 C 6.054688 -3.65625 6.351562 -3.734375 6.6875 -3.734375 C 7.195312 -3.734375 7.609375 -3.5625 7.921875 -3.21875 C 8.242188 -2.875 8.40625 -2.410156 8.40625 -1.828125 C 8.40625 -1.242188 8.242188 -0.78125 7.921875 -0.4375 C 7.609375 -0.09375 7.195312 0.078125 6.6875 0.078125 Z M 6.6875 -0.734375 C 6.90625 -0.734375 7.078125 -0.828125 7.203125 -1.015625 C 7.335938 -1.203125 7.40625 -1.472656 7.40625 -1.828125 C 7.40625 -2.179688 7.335938 -2.453125 7.203125 -2.640625 C 7.078125 -2.828125 6.90625 -2.921875 6.6875 -2.921875 C 6.46875 -2.921875 6.289062 -2.828125 6.15625 -2.640625 C 6.03125 -2.460938 5.96875 -2.191406 5.96875 -1.828125 C 5.96875 -1.460938 6.03125 -1.1875 6.15625 -1 C 6.289062 -0.820312 6.46875 -0.734375 6.6875 -0.734375 Z M 6.6875 -0.734375 "/></g></g></g><g fill="#ffffff" fill-opacity="1"><g transform="translate(62.549226, 20.789998)"><g/></g></g><g fill="#ffffff" fill-opacity="1"><g transform="translate(65.349825, 20.789998)"><g><path d="M 4.171875 0.125 C 3.453125 0.125 2.800781 -0.03125 2.21875 -0.34375 C 1.644531 -0.65625 1.195312 -1.082031 0.875 -1.625 C 0.550781 -2.164062 0.390625 -2.78125 0.390625 -3.46875 C 0.390625 -4.144531 0.550781 -4.753906 0.875 -5.296875 C 1.195312 -5.835938 1.644531 -6.265625 2.21875 -6.578125 C 2.800781 -6.890625 3.453125 -7.046875 4.171875 -7.046875 C 4.890625 -7.046875 5.535156 -6.890625 6.109375 -6.578125 C 6.679688 -6.265625 7.132812 -5.835938 7.46875 -5.296875 C 7.800781 -4.753906 7.96875 -4.144531 7.96875 -3.46875 C 7.96875 -2.78125 7.800781 -2.164062 7.46875 -1.625 C 7.132812 -1.082031 6.679688 -0.65625 6.109375 -0.34375 C 5.535156 -0.03125 4.890625 0.125 4.171875 0.125 Z M 4.171875 -1.25 C 4.578125 -1.25 4.945312 -1.34375 5.28125 -1.53125 C 5.613281 -1.71875 5.875 -1.976562 6.0625 -2.3125 C 6.25 -2.644531 6.34375 -3.03125 6.34375 -3.46875 C 6.34375 -3.894531 6.25 -4.273438 6.0625 -4.609375 C 5.875 -4.941406 5.613281 -5.203125 5.28125 -5.390625 C 4.945312 -5.578125 4.578125 -5.671875 4.171875 -5.671875 C 3.765625 -5.671875 3.394531 -5.578125 3.0625 -5.390625 C 2.738281 -5.203125 2.476562 -4.941406 2.28125 -4.609375 C 2.09375 -4.273438 2 -3.894531 2 -3.46875 C 2 -3.03125 2.09375 -2.644531 2.28125 -2.3125 C 2.476562 -1.976562 2.738281 -1.71875 3.0625 -1.53125 C 3.394531 -1.34375 3.765625 -1.25 4.171875 -1.25 Z M 4.171875 -1.25 "/></g></g></g><g fill="#ffffff" fill-opacity="1"><g transform="translate(73.702134, 20.789998)"><g><path d="M 5.234375 0 L 3.890625 -1.921875 L 2.421875 -1.921875 L 2.421875 0 L 0.828125 0 L 0.828125 -6.921875 L 3.8125 -6.921875 C 4.425781 -6.921875 4.957031 -6.816406 5.40625 -6.609375 C 5.863281 -6.410156 6.210938 -6.125 6.453125 -5.75 C 6.703125 -5.375 6.828125 -4.925781 6.828125 -4.40625 C 6.828125 -3.894531 6.703125 -3.453125 6.453125 -3.078125 C 6.203125 -2.703125 5.851562 -2.414062 5.40625 -2.21875 L 6.953125 0 Z M 5.203125 -4.40625 C 5.203125 -4.800781 5.078125 -5.101562 4.828125 -5.3125 C 4.578125 -5.519531 4.210938 -5.625 3.734375 -5.625 L 2.421875 -5.625 L 2.421875 -3.203125 L 3.734375 -3.203125 C 4.210938 -3.203125 4.578125 -3.304688 4.828125 -3.515625 C 5.078125 -3.734375 5.203125 -4.03125 5.203125 -4.40625 Z M 5.203125 -4.40625 "/></g></g></g><g fill="#ffffff" fill-opacity="1"><g transform="translate(80.975769, 20.789998)"><g><path d="M 5.5 -3.578125 L 6.96875 -3.578125 L 6.96875 -0.765625 C 6.59375 -0.484375 6.15625 -0.265625 5.65625 -0.109375 C 5.164062 0.046875 4.664062 0.125 4.15625 0.125 C 3.4375 0.125 2.789062 -0.0234375 2.21875 -0.328125 C 1.644531 -0.640625 1.195312 -1.066406 0.875 -1.609375 C 0.550781 -2.160156 0.390625 -2.78125 0.390625 -3.46875 C 0.390625 -4.144531 0.550781 -4.753906 0.875 -5.296875 C 1.195312 -5.847656 1.648438 -6.273438 2.234375 -6.578125 C 2.816406 -6.890625 3.46875 -7.046875 4.1875 -7.046875 C 4.800781 -7.046875 5.351562 -6.941406 5.84375 -6.734375 C 6.34375 -6.523438 6.757812 -6.226562 7.09375 -5.84375 L 6.0625 -4.890625 C 5.570312 -5.410156 4.972656 -5.671875 4.265625 -5.671875 C 3.828125 -5.671875 3.4375 -5.578125 3.09375 -5.390625 C 2.75 -5.210938 2.476562 -4.953125 2.28125 -4.609375 C 2.09375 -4.273438 2 -3.894531 2 -3.46875 C 2 -3.03125 2.09375 -2.644531 2.28125 -2.3125 C 2.476562 -1.976562 2.742188 -1.71875 3.078125 -1.53125 C 3.421875 -1.34375 3.8125 -1.25 4.25 -1.25 C 4.707031 -1.25 5.125 -1.347656 5.5 -1.546875 Z M 5.5 -3.578125 "/></g></g></g><g fill="#ffffff" fill-opacity="1"><g transform="translate(88.605654, 20.789998)"><g><path d="M 5.375 -1.484375 L 2.171875 -1.484375 L 1.546875 0 L -0.09375 0 L 3 -6.921875 L 4.578125 -6.921875 L 7.671875 0 L 6 0 Z M 4.875 -2.703125 L 3.78125 -5.34375 L 2.6875 -2.703125 Z M 4.875 -2.703125 "/></g></g></g><g fill="#ffffff" fill-opacity="1"><g transform="translate(96.186062, 20.789998)"><g><path d="M 7.171875 -6.921875 L 7.171875 0 L 5.859375 0 L 2.40625 -4.203125 L 2.40625 0 L 0.828125 0 L 0.828125 -6.921875 L 2.140625 -6.921875 L 5.59375 -2.71875 L 5.59375 -6.921875 Z M 7.171875 -6.921875 "/></g></g></g><g fill="#ffffff" fill-opacity="1"><g transform="translate(104.18211, 20.789998)"><g><path d="M 0.828125 -6.921875 L 2.421875 -6.921875 L 2.421875 0 L 0.828125 0 Z M 0.828125 -6.921875 "/></g></g></g><g fill="#ffffff" fill-opacity="1"><g transform="translate(107.428032, 20.789998)"><g><path d="M 4.140625 0.125 C 3.429688 0.125 2.789062 -0.0234375 2.21875 -0.328125 C 1.644531 -0.640625 1.195312 -1.066406 0.875 -1.609375 C 0.550781 -2.160156 0.390625 -2.78125 0.390625 -3.46875 C 0.390625 -4.144531 0.550781 -4.753906 0.875 -5.296875 C 1.195312 -5.847656 1.644531 -6.273438 2.21875 -6.578125 C 2.789062 -6.890625 3.429688 -7.046875 4.140625 -7.046875 C 4.742188 -7.046875 5.285156 -6.9375 5.765625 -6.71875 C 6.253906 -6.507812 6.664062 -6.207031 7 -5.8125 L 5.96875 -4.859375 C 5.5 -5.398438 4.914062 -5.671875 4.21875 -5.671875 C 3.789062 -5.671875 3.410156 -5.578125 3.078125 -5.390625 C 2.742188 -5.203125 2.476562 -4.941406 2.28125 -4.609375 C 2.09375 -4.273438 2 -3.894531 2 -3.46875 C 2 -3.03125 2.09375 -2.644531 2.28125 -2.3125 C 2.476562 -1.976562 2.742188 -1.71875 3.078125 -1.53125 C 3.410156 -1.34375 3.789062 -1.25 4.21875 -1.25 C 4.914062 -1.25 5.5 -1.519531 5.96875 -2.0625 L 7 -1.125 C 6.664062 -0.71875 6.253906 -0.40625 5.765625 -0.1875 C 5.273438 0.0195312 4.734375 0.125 4.140625 0.125 Z M 4.140625 0.125 "/></g></g></g><g fill="#ffffff" fill-opacity="1"><g transform="translate(114.681874, 20.789998)"><g/></g></g><g fill="#ffffff" fill-opacity="1"><g transform="translate(117.482473, 20.789998)"><g><path d="M 0.828125 -6.921875 L 2.421875 -6.921875 L 2.421875 0 L 0.828125 0 Z M 0.828125 -6.921875 "/></g></g></g><g fill="#ffffff" fill-opacity="1"><g transform="translate(120.728395, 20.789998)"><g><path d="M 7.171875 -6.921875 L 7.171875 0 L 5.859375 0 L 2.40625 -4.203125 L 2.40625 0 L 0.828125 0 L 0.828125 -6.921875 L 2.140625 -6.921875 L 5.59375 -2.71875 L 5.59375 -6.921875 Z M 7.171875 -6.921875 "/></g></g></g><g fill="#ffffff" fill-opacity="1"><g transform="translate(128.724443, 20.789998)"><g><path d="M 5.5 -3.578125 L 6.96875 -3.578125 L 6.96875 -0.765625 C 6.59375 -0.484375 6.15625 -0.265625 5.65625 -0.109375 C 5.164062 0.046875 4.664062 0.125 4.15625 0.125 C 3.4375 0.125 2.789062 -0.0234375 2.21875 -0.328125 C 1.644531 -0.640625 1.195312 -1.066406 0.875 -1.609375 C 0.550781 -2.160156 0.390625 -2.78125 0.390625 -3.46875 C 0.390625 -4.144531 0.550781 -4.753906 0.875 -5.296875 C 1.195312 -5.847656 1.648438 -6.273438 2.234375 -6.578125 C 2.816406 -6.890625 3.46875 -7.046875 4.1875 -7.046875 C 4.800781 -7.046875 5.351562 -6.941406 5.84375 -6.734375 C 6.34375 -6.523438 6.757812 -6.226562 7.09375 -5.84375 L 6.0625 -4.890625 C 5.570312 -5.410156 4.972656 -5.671875 4.265625 -5.671875 C 3.828125 -5.671875 3.4375 -5.578125 3.09375 -5.390625 C 2.75 -5.210938 2.476562 -4.953125 2.28125 -4.609375 C 2.09375 -4.273438 2 -3.894531 2 -3.46875 C 2 -3.03125 2.09375 -2.644531 2.28125 -2.3125 C 2.476562 -1.976562 2.742188 -1.71875 3.078125 -1.53125 C 3.421875 -1.34375 3.8125 -1.25 4.25 -1.25 C 4.707031 -1.25 5.125 -1.347656 5.5 -1.546875 Z M 5.5 -3.578125 "/></g></g></g><g fill="#ffffff" fill-opacity="1"><g transform="translate(136.354328, 20.789998)"><g><path d="M 5.234375 0 L 3.890625 -1.921875 L 2.421875 -1.921875 L 2.421875 0 L 0.828125 0 L 0.828125 -6.921875 L 3.8125 -6.921875 C 4.425781 -6.921875 4.957031 -6.816406 5.40625 -6.609375 C 5.863281 -6.410156 6.210938 -6.125 6.453125 -5.75 C 6.703125 -5.375 6.828125 -4.925781 6.828125 -4.40625 C 6.828125 -3.894531 6.703125 -3.453125 6.453125 -3.078125 C 6.203125 -2.703125 5.851562 -2.414062 5.40625 -2.21875 L 6.953125 0 Z M 5.203125 -4.40625 C 5.203125 -4.800781 5.078125 -5.101562 4.828125 -5.3125 C 4.578125 -5.519531 4.210938 -5.625 3.734375 -5.625 L 2.421875 -5.625 L 2.421875 -3.203125 L 3.734375 -3.203125 C 4.210938 -3.203125 4.578125 -3.304688 4.828125 -3.515625 C 5.078125 -3.734375 5.203125 -4.03125 5.203125 -4.40625 Z M 5.203125 -4.40625 "/></g></g></g><g fill="#ffffff" fill-opacity="1"><g transform="translate(143.627963, 20.789998)"><g><path d="M 6.1875 -1.28125 L 6.1875 0 L 0.828125 0 L 0.828125 -6.921875 L 6.046875 -6.921875 L 6.046875 -5.640625 L 2.40625 -5.640625 L 2.40625 -4.140625 L 5.625 -4.140625 L 5.625 -2.890625 L 2.40625 -2.890625 L 2.40625 -1.28125 Z M 6.1875 -1.28125 "/></g></g></g><g fill="#ffffff" fill-opacity="1"><g transform="translate(150.268248, 20.789998)"><g><path d="M 0.828125 -6.921875 L 3.96875 -6.921875 C 4.71875 -6.921875 5.378906 -6.773438 5.953125 -6.484375 C 6.535156 -6.203125 6.984375 -5.800781 7.296875 -5.28125 C 7.617188 -4.757812 7.78125 -4.15625 7.78125 -3.46875 C 7.78125 -2.769531 7.617188 -2.160156 7.296875 -1.640625 C 6.984375 -1.117188 6.535156 -0.710938 5.953125 -0.421875 C 5.378906 -0.140625 4.71875 0 3.96875 0 L 0.828125 0 Z M 3.890625 -1.3125 C 4.578125 -1.3125 5.125 -1.503906 5.53125 -1.890625 C 5.945312 -2.273438 6.15625 -2.800781 6.15625 -3.46875 C 6.15625 -4.125 5.945312 -4.644531 5.53125 -5.03125 C 5.125 -5.414062 4.578125 -5.609375 3.890625 -5.609375 L 2.421875 -5.609375 L 2.421875 -1.3125 Z M 3.890625 -1.3125 "/></g></g></g><g fill="#ffffff" fill-opacity="1"><g transform="translate(158.442421, 20.789998)"><g><path d="M 0.828125 -6.921875 L 2.421875 -6.921875 L 2.421875 0 L 0.828125 0 Z M 0.828125 -6.921875 "/></g></g></g><g fill="#ffffff" fill-opacity="1"><g transform="translate(161.688343, 20.789998)"><g><path d="M 6.1875 -1.28125 L 6.1875 0 L 0.828125 0 L 0.828125 -6.921875 L 6.046875 -6.921875 L 6.046875 -5.640625 L 2.40625 -5.640625 L 2.40625 -4.140625 L 5.625 -4.140625 L 5.625 -2.890625 L 2.40625 -2.890625 L 2.40625 -1.28125 Z M 6.1875 -1.28125 "/></g></g></g><g fill="#ffffff" fill-opacity="1"><g transform="translate(168.328628, 20.789998)"><g><path d="M 7.171875 -6.921875 L 7.171875 0 L 5.859375 0 L 2.40625 -4.203125 L 2.40625 0 L 0.828125 0 L 0.828125 -6.921875 L 2.140625 -6.921875 L 5.59375 -2.71875 L 5.59375 -6.921875 Z M 7.171875 -6.921875 "/></g></g></g><g fill="#ffffff" fill-opacity="1"><g transform="translate(176.324676, 20.789998)"><g><path d="M 2.25 -5.625 L 0.046875 -5.625 L 0.046875 -6.921875 L 6.078125 -6.921875 L 6.078125 -5.625 L 3.859375 -5.625 L 3.859375 0 L 2.25 0 Z M 2.25 -5.625 "/></g></g></g><g fill="#ffffff" fill-opacity="1"><g transform="translate(182.440466, 20.789998)"><g><path d="M 3.09375 0.125 C 2.550781 0.125 2.019531 0.0507812 1.5 -0.09375 C 0.988281 -0.25 0.582031 -0.445312 0.28125 -0.6875 L 0.828125 -1.890625 C 1.117188 -1.671875 1.46875 -1.492188 1.875 -1.359375 C 2.289062 -1.234375 2.703125 -1.171875 3.109375 -1.171875 C 3.554688 -1.171875 3.890625 -1.238281 4.109375 -1.375 C 4.328125 -1.507812 4.4375 -1.6875 4.4375 -1.90625 C 4.4375 -2.070312 4.375 -2.207031 4.25 -2.3125 C 4.125 -2.425781 3.957031 -2.515625 3.75 -2.578125 C 3.550781 -2.648438 3.28125 -2.722656 2.9375 -2.796875 C 2.40625 -2.921875 1.972656 -3.046875 1.640625 -3.171875 C 1.304688 -3.296875 1.019531 -3.492188 0.78125 -3.765625 C 0.539062 -4.046875 0.421875 -4.421875 0.421875 -4.890625 C 0.421875 -5.285156 0.523438 -5.644531 0.734375 -5.96875 C 0.953125 -6.300781 1.28125 -6.5625 1.71875 -6.75 C 2.164062 -6.945312 2.703125 -7.046875 3.328125 -7.046875 C 3.773438 -7.046875 4.207031 -6.988281 4.625 -6.875 C 5.050781 -6.769531 5.421875 -6.617188 5.734375 -6.421875 L 5.234375 -5.21875 C 4.597656 -5.570312 3.960938 -5.75 3.328125 -5.75 C 2.878906 -5.75 2.546875 -5.675781 2.328125 -5.53125 C 2.109375 -5.394531 2 -5.207031 2 -4.96875 C 2 -4.726562 2.125 -4.550781 2.375 -4.4375 C 2.625 -4.320312 3.003906 -4.207031 3.515625 -4.09375 C 4.035156 -3.96875 4.460938 -3.84375 4.796875 -3.71875 C 5.140625 -3.59375 5.429688 -3.394531 5.671875 -3.125 C 5.910156 -2.851562 6.03125 -2.488281 6.03125 -2.03125 C 6.03125 -1.632812 5.921875 -1.269531 5.703125 -0.9375 C 5.484375 -0.613281 5.148438 -0.351562 4.703125 -0.15625 C 4.265625 0.03125 3.726562 0.125 3.09375 0.125 Z M 3.09375 0.125 "/></g></g></g><g fill="#ffffff" fill-opacity="1"><g transform="translate(18.674182, 33.412497)"><g><path d="M 3.921875 0.0625 C 3.023438 0.0625 2.320312 -0.191406 1.8125 -0.703125 C 1.3125 -1.222656 1.0625 -1.972656 1.0625 -2.953125 L 1.0625 -6.921875 L 1.796875 -6.921875 L 1.796875 -2.984375 C 1.796875 -2.179688 1.976562 -1.582031 2.34375 -1.1875 C 2.707031 -0.789062 3.234375 -0.59375 3.921875 -0.59375 C 4.609375 -0.59375 5.132812 -0.789062 5.5 -1.1875 C 5.863281 -1.582031 6.046875 -2.179688 6.046875 -2.984375 L 6.046875 -6.921875 L 6.75 -6.921875 L 6.75 -2.953125 C 6.75 -1.972656 6.5 -1.222656 6 -0.703125 C 5.507812 -0.191406 4.816406 0.0625 3.921875 0.0625 Z M 3.921875 0.0625 "/></g></g></g><g fill="#ffffff" fill-opacity="1"><g transform="translate(26.511887, 33.412497)"><g><path d="M 0.984375 -7.34375 L 1.6875 -7.34375 L 1.6875 0 L 0.984375 0 Z M 0.984375 -7.34375 "/></g></g></g><g fill="#ffffff" fill-opacity="1"><g transform="translate(29.173935, 33.412497)"><g><path d="M 3.71875 -0.3125 C 3.582031 -0.195312 3.414062 -0.109375 3.21875 -0.046875 C 3.03125 0.015625 2.832031 0.046875 2.625 0.046875 C 2.132812 0.046875 1.753906 -0.0820312 1.484375 -0.34375 C 1.222656 -0.601562 1.09375 -0.976562 1.09375 -1.46875 L 1.09375 -4.609375 L 0.171875 -4.609375 L 0.171875 -5.203125 L 1.09375 -5.203125 L 1.09375 -6.34375 L 1.796875 -6.34375 L 1.796875 -5.203125 L 3.375 -5.203125 L 3.375 -4.609375 L 1.796875 -4.609375 L 1.796875 -1.5 C 1.796875 -1.1875 1.875 -0.945312 2.03125 -0.78125 C 2.1875 -0.625 2.410156 -0.546875 2.703125 -0.546875 C 2.847656 -0.546875 2.988281 -0.566406 3.125 -0.609375 C 3.257812 -0.660156 3.375 -0.734375 3.46875 -0.828125 Z M 3.71875 -0.3125 "/></g></g></g><g fill="#ffffff" fill-opacity="1"><g transform="translate(33.191746, 33.412497)"><g><path d="M 1.65625 -4.1875 C 1.820312 -4.53125 2.066406 -4.789062 2.390625 -4.96875 C 2.710938 -5.144531 3.113281 -5.234375 3.59375 -5.234375 L 3.59375 -4.5625 L 3.4375 -4.5625 C 2.882812 -4.5625 2.453125 -4.394531 2.140625 -4.0625 C 1.835938 -3.726562 1.6875 -3.257812 1.6875 -2.65625 L 1.6875 0 L 0.984375 0 L 0.984375 -5.203125 L 1.65625 -5.203125 Z M 1.65625 -4.1875 "/></g></g></g><g fill="#ffffff" fill-opacity="1"><g transform="translate(37.160081, 33.412497)"><g><path d="M 2.796875 -5.234375 C 3.472656 -5.234375 3.992188 -5.0625 4.359375 -4.71875 C 4.722656 -4.382812 4.90625 -3.882812 4.90625 -3.21875 L 4.90625 0 L 4.234375 0 L 4.234375 -0.8125 C 4.078125 -0.539062 3.84375 -0.328125 3.53125 -0.171875 C 3.226562 -0.0234375 2.863281 0.046875 2.4375 0.046875 C 1.863281 0.046875 1.40625 -0.0859375 1.0625 -0.359375 C 0.71875 -0.640625 0.546875 -1.007812 0.546875 -1.46875 C 0.546875 -1.90625 0.703125 -2.257812 1.015625 -2.53125 C 1.335938 -2.800781 1.847656 -2.9375 2.546875 -2.9375 L 4.203125 -2.9375 L 4.203125 -3.25 C 4.203125 -3.695312 4.078125 -4.035156 3.828125 -4.265625 C 3.578125 -4.503906 3.210938 -4.625 2.734375 -4.625 C 2.398438 -4.625 2.082031 -4.566406 1.78125 -4.453125 C 1.476562 -4.347656 1.21875 -4.203125 1 -4.015625 L 0.6875 -4.546875 C 0.945312 -4.765625 1.257812 -4.929688 1.625 -5.046875 C 2 -5.171875 2.390625 -5.234375 2.796875 -5.234375 Z M 2.546875 -0.5 C 2.941406 -0.5 3.28125 -0.585938 3.5625 -0.765625 C 3.851562 -0.953125 4.066406 -1.21875 4.203125 -1.5625 L 4.203125 -2.40625 L 2.578125 -2.40625 C 1.679688 -2.40625 1.234375 -2.097656 1.234375 -1.484375 C 1.234375 -1.179688 1.347656 -0.941406 1.578125 -0.765625 C 1.804688 -0.585938 2.128906 -0.5 2.546875 -0.5 Z M 2.546875 -0.5 "/></g></g></g><g fill="#ffffff" fill-opacity="1"><g transform="translate(42.998782, 33.412497)"><g><path d="M 0.59375 -2.984375 L 3.1875 -2.984375 L 3.1875 -2.375 L 0.59375 -2.375 Z M 0.59375 -2.984375 "/></g></g></g><g fill="#ffffff" fill-opacity="1"><g transform="translate(46.77909, 33.412497)"><g><path d="M 5.796875 -5.203125 L 5.796875 -0.640625 C 5.796875 0.242188 5.578125 0.898438 5.140625 1.328125 C 4.710938 1.753906 4.0625 1.96875 3.1875 1.96875 C 2.707031 1.96875 2.25 1.894531 1.8125 1.75 C 1.382812 1.613281 1.035156 1.421875 0.765625 1.171875 L 1.125 0.640625 C 1.375 0.859375 1.675781 1.03125 2.03125 1.15625 C 2.394531 1.28125 2.773438 1.34375 3.171875 1.34375 C 3.828125 1.34375 4.3125 1.1875 4.625 0.875 C 4.9375 0.570312 5.09375 0.0976562 5.09375 -0.546875 L 5.09375 -1.203125 C 4.875 -0.878906 4.585938 -0.628906 4.234375 -0.453125 C 3.878906 -0.285156 3.488281 -0.203125 3.0625 -0.203125 C 2.570312 -0.203125 2.128906 -0.304688 1.734375 -0.515625 C 1.335938 -0.734375 1.023438 -1.035156 0.796875 -1.421875 C 0.566406 -1.804688 0.453125 -2.242188 0.453125 -2.734375 C 0.453125 -3.222656 0.566406 -3.65625 0.796875 -4.03125 C 1.023438 -4.414062 1.335938 -4.710938 1.734375 -4.921875 C 2.128906 -5.128906 2.570312 -5.234375 3.0625 -5.234375 C 3.507812 -5.234375 3.910156 -5.144531 4.265625 -4.96875 C 4.617188 -4.789062 4.90625 -4.535156 5.125 -4.203125 L 5.125 -5.203125 Z M 3.140625 -0.828125 C 3.515625 -0.828125 3.851562 -0.90625 4.15625 -1.0625 C 4.457031 -1.226562 4.691406 -1.453125 4.859375 -1.734375 C 5.023438 -2.023438 5.109375 -2.359375 5.109375 -2.734375 C 5.109375 -3.097656 5.023438 -3.421875 4.859375 -3.703125 C 4.691406 -3.992188 4.457031 -4.21875 4.15625 -4.375 C 3.851562 -4.539062 3.515625 -4.625 3.140625 -4.625 C 2.765625 -4.625 2.425781 -4.546875 2.125 -4.390625 C 1.820312 -4.234375 1.585938 -4.007812 1.421875 -3.71875 C 1.253906 -3.425781 1.171875 -3.097656 1.171875 -2.734375 C 1.171875 -2.359375 1.253906 -2.023438 1.421875 -1.734375 C 1.585938 -1.453125 1.820312 -1.226562 2.125 -1.0625 C 2.425781 -0.90625 2.765625 -0.828125 3.140625 -0.828125 Z M 3.140625 -0.828125 "/></g></g></g><g fill="#ffffff" fill-opacity="1"><g transform="translate(53.567816, 33.412497)"><g><path d="M 5.515625 -2.390625 L 1.15625 -2.390625 C 1.195312 -1.847656 1.40625 -1.410156 1.78125 -1.078125 C 2.15625 -0.742188 2.628906 -0.578125 3.203125 -0.578125 C 3.523438 -0.578125 3.820312 -0.632812 4.09375 -0.75 C 4.363281 -0.863281 4.597656 -1.03125 4.796875 -1.25 L 5.1875 -0.796875 C 4.957031 -0.523438 4.671875 -0.316406 4.328125 -0.171875 C 3.984375 -0.0234375 3.601562 0.046875 3.1875 0.046875 C 2.65625 0.046875 2.179688 -0.0664062 1.765625 -0.296875 C 1.347656 -0.523438 1.023438 -0.835938 0.796875 -1.234375 C 0.566406 -1.640625 0.453125 -2.09375 0.453125 -2.59375 C 0.453125 -3.101562 0.5625 -3.554688 0.78125 -3.953125 C 1.007812 -4.359375 1.316406 -4.671875 1.703125 -4.890625 C 2.085938 -5.117188 2.519531 -5.234375 3 -5.234375 C 3.476562 -5.234375 3.90625 -5.117188 4.28125 -4.890625 C 4.664062 -4.671875 4.96875 -4.363281 5.1875 -3.96875 C 5.40625 -3.570312 5.515625 -3.113281 5.515625 -2.59375 Z M 3 -4.640625 C 2.5 -4.640625 2.078125 -4.476562 1.734375 -4.15625 C 1.390625 -3.832031 1.195312 -3.414062 1.15625 -2.90625 L 4.84375 -2.90625 C 4.800781 -3.414062 4.609375 -3.832031 4.265625 -4.15625 C 3.929688 -4.476562 3.507812 -4.640625 3 -4.640625 Z M 3 -4.640625 "/></g></g></g><g fill="#ffffff" fill-opacity="1"><g transform="translate(59.545056, 33.412497)"><g><path d="M 3.625 -5.234375 C 4.28125 -5.234375 4.800781 -5.046875 5.1875 -4.671875 C 5.570312 -4.296875 5.765625 -3.742188 5.765625 -3.015625 L 5.765625 0 L 5.0625 0 L 5.0625 -2.953125 C 5.0625 -3.492188 4.925781 -3.90625 4.65625 -4.1875 C 4.382812 -4.46875 4 -4.609375 3.5 -4.609375 C 2.9375 -4.609375 2.492188 -4.441406 2.171875 -4.109375 C 1.847656 -3.773438 1.6875 -3.316406 1.6875 -2.734375 L 1.6875 0 L 0.984375 0 L 0.984375 -5.203125 L 1.65625 -5.203125 L 1.65625 -4.25 C 1.84375 -4.5625 2.101562 -4.800781 2.4375 -4.96875 C 2.78125 -5.144531 3.175781 -5.234375 3.625 -5.234375 Z M 3.625 -5.234375 "/></g></g></g><g fill="#ffffff" fill-opacity="1"><g transform="translate(66.244709, 33.412497)"><g><path d="M 3.71875 -0.3125 C 3.582031 -0.195312 3.414062 -0.109375 3.21875 -0.046875 C 3.03125 0.015625 2.832031 0.046875 2.625 0.046875 C 2.132812 0.046875 1.753906 -0.0820312 1.484375 -0.34375 C 1.222656 -0.601562 1.09375 -0.976562 1.09375 -1.46875 L 1.09375 -4.609375 L 0.171875 -4.609375 L 0.171875 -5.203125 L 1.09375 -5.203125 L 1.09375 -6.34375 L 1.796875 -6.34375 L 1.796875 -5.203125 L 3.375 -5.203125 L 3.375 -4.609375 L 1.796875 -4.609375 L 1.796875 -1.5 C 1.796875 -1.1875 1.875 -0.945312 2.03125 -0.78125 C 2.1875 -0.625 2.410156 -0.546875 2.703125 -0.546875 C 2.847656 -0.546875 2.988281 -0.566406 3.125 -0.609375 C 3.257812 -0.660156 3.375 -0.734375 3.46875 -0.828125 Z M 3.71875 -0.3125 "/></g></g></g><g fill="#ffffff" fill-opacity="1"><g transform="translate(70.26252, 33.412497)"><g><path d="M 0.984375 -7.34375 L 1.6875 -7.34375 L 1.6875 0 L 0.984375 0 Z M 0.984375 -7.34375 "/></g></g></g><g fill="#ffffff" fill-opacity="1"><g transform="translate(72.924568, 33.412497)"><g><path d="M 5.515625 -2.390625 L 1.15625 -2.390625 C 1.195312 -1.847656 1.40625 -1.410156 1.78125 -1.078125 C 2.15625 -0.742188 2.628906 -0.578125 3.203125 -0.578125 C 3.523438 -0.578125 3.820312 -0.632812 4.09375 -0.75 C 4.363281 -0.863281 4.597656 -1.03125 4.796875 -1.25 L 5.1875 -0.796875 C 4.957031 -0.523438 4.671875 -0.316406 4.328125 -0.171875 C 3.984375 -0.0234375 3.601562 0.046875 3.1875 0.046875 C 2.65625 0.046875 2.179688 -0.0664062 1.765625 -0.296875 C 1.347656 -0.523438 1.023438 -0.835938 0.796875 -1.234375 C 0.566406 -1.640625 0.453125 -2.09375 0.453125 -2.59375 C 0.453125 -3.101562 0.5625 -3.554688 0.78125 -3.953125 C 1.007812 -4.359375 1.316406 -4.671875 1.703125 -4.890625 C 2.085938 -5.117188 2.519531 -5.234375 3 -5.234375 C 3.476562 -5.234375 3.90625 -5.117188 4.28125 -4.890625 C 4.664062 -4.671875 4.96875 -4.363281 5.1875 -3.96875 C 5.40625 -3.570312 5.515625 -3.113281 5.515625 -2.59375 Z M 3 -4.640625 C 2.5 -4.640625 2.078125 -4.476562 1.734375 -4.15625 C 1.390625 -3.832031 1.195312 -3.414062 1.15625 -2.90625 L 4.84375 -2.90625 C 4.800781 -3.414062 4.609375 -3.832031 4.265625 -4.15625 C 3.929688 -4.476562 3.507812 -4.640625 3 -4.640625 Z M 3 -4.640625 "/></g></g></g><g fill="#ffffff" fill-opacity="1"><g transform="translate(78.901809, 33.412497)"><g/></g></g><g fill="#ffffff" fill-opacity="1"><g transform="translate(81.494588, 33.412497)"><g><path d="M 3.140625 0.046875 C 2.617188 0.046875 2.15625 -0.0625 1.75 -0.28125 C 1.34375 -0.507812 1.023438 -0.828125 0.796875 -1.234375 C 0.566406 -1.640625 0.453125 -2.09375 0.453125 -2.59375 C 0.453125 -3.101562 0.566406 -3.554688 0.796875 -3.953125 C 1.023438 -4.359375 1.34375 -4.671875 1.75 -4.890625 C 2.15625 -5.117188 2.617188 -5.234375 3.140625 -5.234375 C 3.585938 -5.234375 3.984375 -5.144531 4.328125 -4.96875 C 4.679688 -4.800781 4.960938 -4.550781 5.171875 -4.21875 L 4.65625 -3.859375 C 4.476562 -4.117188 4.253906 -4.3125 3.984375 -4.4375 C 3.722656 -4.5625 3.441406 -4.625 3.140625 -4.625 C 2.765625 -4.625 2.425781 -4.539062 2.125 -4.375 C 1.820312 -4.207031 1.585938 -3.96875 1.421875 -3.65625 C 1.253906 -3.34375 1.171875 -2.988281 1.171875 -2.59375 C 1.171875 -2.195312 1.253906 -1.84375 1.421875 -1.53125 C 1.585938 -1.226562 1.820312 -0.992188 2.125 -0.828125 C 2.425781 -0.660156 2.765625 -0.578125 3.140625 -0.578125 C 3.441406 -0.578125 3.722656 -0.640625 3.984375 -0.765625 C 4.253906 -0.890625 4.476562 -1.078125 4.65625 -1.328125 L 5.171875 -0.984375 C 4.960938 -0.640625 4.679688 -0.378906 4.328125 -0.203125 C 3.972656 -0.0351562 3.578125 0.046875 3.140625 0.046875 Z M 3.140625 0.046875 "/></g></g></g><g fill="#ffffff" fill-opacity="1"><g transform="translate(87.06609, 33.412497)"><g><path d="M 2.796875 -5.234375 C 3.472656 -5.234375 3.992188 -5.0625 4.359375 -4.71875 C 4.722656 -4.382812 4.90625 -3.882812 4.90625 -3.21875 L 4.90625 0 L 4.234375 0 L 4.234375 -0.8125 C 4.078125 -0.539062 3.84375 -0.328125 3.53125 -0.171875 C 3.226562 -0.0234375 2.863281 0.046875 2.4375 0.046875 C 1.863281 0.046875 1.40625 -0.0859375 1.0625 -0.359375 C 0.71875 -0.640625 0.546875 -1.007812 0.546875 -1.46875 C 0.546875 -1.90625 0.703125 -2.257812 1.015625 -2.53125 C 1.335938 -2.800781 1.847656 -2.9375 2.546875 -2.9375 L 4.203125 -2.9375 L 4.203125 -3.25 C 4.203125 -3.695312 4.078125 -4.035156 3.828125 -4.265625 C 3.578125 -4.503906 3.210938 -4.625 2.734375 -4.625 C 2.398438 -4.625 2.082031 -4.566406 1.78125 -4.453125 C 1.476562 -4.347656 1.21875 -4.203125 1 -4.015625 L 0.6875 -4.546875 C 0.945312 -4.765625 1.257812 -4.929688 1.625 -5.046875 C 2 -5.171875 2.390625 -5.234375 2.796875 -5.234375 Z M 2.546875 -0.5 C 2.941406 -0.5 3.28125 -0.585938 3.5625 -0.765625 C 3.851562 -0.953125 4.066406 -1.21875 4.203125 -1.5625 L 4.203125 -2.40625 L 2.578125 -2.40625 C 1.679688 -2.40625 1.234375 -2.097656 1.234375 -1.484375 C 1.234375 -1.179688 1.347656 -0.941406 1.578125 -0.765625 C 1.804688 -0.585938 2.128906 -0.5 2.546875 -0.5 Z M 2.546875 -0.5 "/></g></g></g><g fill="#ffffff" fill-opacity="1"><g transform="translate(92.904792, 33.412497)"><g><path d="M 1.65625 -4.1875 C 1.820312 -4.53125 2.066406 -4.789062 2.390625 -4.96875 C 2.710938 -5.144531 3.113281 -5.234375 3.59375 -5.234375 L 3.59375 -4.5625 L 3.4375 -4.5625 C 2.882812 -4.5625 2.453125 -4.394531 2.140625 -4.0625 C 1.835938 -3.726562 1.6875 -3.257812 1.6875 -2.65625 L 1.6875 0 L 0.984375 0 L 0.984375 -5.203125 L 1.65625 -5.203125 Z M 1.65625 -4.1875 "/></g></g></g><g fill="#ffffff" fill-opacity="1"><g transform="translate(96.873126, 33.412497)"><g><path d="M 5.515625 -2.390625 L 1.15625 -2.390625 C 1.195312 -1.847656 1.40625 -1.410156 1.78125 -1.078125 C 2.15625 -0.742188 2.628906 -0.578125 3.203125 -0.578125 C 3.523438 -0.578125 3.820312 -0.632812 4.09375 -0.75 C 4.363281 -0.863281 4.597656 -1.03125 4.796875 -1.25 L 5.1875 -0.796875 C 4.957031 -0.523438 4.671875 -0.316406 4.328125 -0.171875 C 3.984375 -0.0234375 3.601562 0.046875 3.1875 0.046875 C 2.65625 0.046875 2.179688 -0.0664062 1.765625 -0.296875 C 1.347656 -0.523438 1.023438 -0.835938 0.796875 -1.234375 C 0.566406 -1.640625 0.453125 -2.09375 0.453125 -2.59375 C 0.453125 -3.101562 0.5625 -3.554688 0.78125 -3.953125 C 1.007812 -4.359375 1.316406 -4.671875 1.703125 -4.890625 C 2.085938 -5.117188 2.519531 -5.234375 3 -5.234375 C 3.476562 -5.234375 3.90625 -5.117188 4.28125 -4.890625 C 4.664062 -4.671875 4.96875 -4.363281 5.1875 -3.96875 C 5.40625 -3.570312 5.515625 -3.113281 5.515625 -2.59375 Z M 3 -4.640625 C 2.5 -4.640625 2.078125 -4.476562 1.734375 -4.15625 C 1.390625 -3.832031 1.195312 -3.414062 1.15625 -2.90625 L 4.84375 -2.90625 C 4.800781 -3.414062 4.609375 -3.832031 4.265625 -4.15625 C 3.929688 -4.476562 3.507812 -4.640625 3 -4.640625 Z M 3 -4.640625 "/></g></g></g><g fill="#ffffff" fill-opacity="1"><g transform="translate(102.850366, 33.412497)"><g/></g></g><g fill="#ffffff" fill-opacity="1"><g transform="translate(105.443145, 33.412497)"><g><path d="M 2.703125 -6.796875 C 2.398438 -6.796875 2.171875 -6.710938 2.015625 -6.546875 C 1.859375 -6.378906 1.78125 -6.132812 1.78125 -5.8125 L 1.78125 -5.203125 L 3.375 -5.203125 L 3.375 -4.609375 L 1.796875 -4.609375 L 1.796875 0 L 1.09375 0 L 1.09375 -4.609375 L 0.171875 -4.609375 L 0.171875 -5.203125 L 1.09375 -5.203125 L 1.09375 -5.84375 C 1.09375 -6.320312 1.226562 -6.695312 1.5 -6.96875 C 1.78125 -7.25 2.171875 -7.390625 2.671875 -7.390625 C 2.867188 -7.390625 3.054688 -7.359375 3.234375 -7.296875 C 3.421875 -7.242188 3.578125 -7.164062 3.703125 -7.0625 L 3.46875 -6.53125 C 3.269531 -6.707031 3.015625 -6.796875 2.703125 -6.796875 Z M 2.703125 -6.796875 "/></g></g></g><g fill="#ffffff" fill-opacity="1"><g transform="translate(108.797923, 33.412497)"><g><path d="M 3.109375 0.046875 C 2.609375 0.046875 2.15625 -0.0664062 1.75 -0.296875 C 1.34375 -0.523438 1.023438 -0.835938 0.796875 -1.234375 C 0.566406 -1.640625 0.453125 -2.09375 0.453125 -2.59375 C 0.453125 -3.101562 0.566406 -3.554688 0.796875 -3.953125 C 1.023438 -4.359375 1.34375 -4.671875 1.75 -4.890625 C 2.15625 -5.117188 2.609375 -5.234375 3.109375 -5.234375 C 3.609375 -5.234375 4.054688 -5.117188 4.453125 -4.890625 C 4.859375 -4.671875 5.175781 -4.359375 5.40625 -3.953125 C 5.632812 -3.554688 5.75 -3.101562 5.75 -2.59375 C 5.75 -2.09375 5.632812 -1.640625 5.40625 -1.234375 C 5.175781 -0.835938 4.859375 -0.523438 4.453125 -0.296875 C 4.054688 -0.0664062 3.609375 0.046875 3.109375 0.046875 Z M 3.109375 -0.578125 C 3.472656 -0.578125 3.800781 -0.660156 4.09375 -0.828125 C 4.394531 -0.992188 4.625 -1.226562 4.78125 -1.53125 C 4.945312 -1.84375 5.03125 -2.195312 5.03125 -2.59375 C 5.03125 -2.988281 4.945312 -3.34375 4.78125 -3.65625 C 4.625 -3.96875 4.394531 -4.207031 4.09375 -4.375 C 3.800781 -4.539062 3.472656 -4.625 3.109375 -4.625 C 2.734375 -4.625 2.398438 -4.539062 2.109375 -4.375 C 1.816406 -4.207031 1.585938 -3.96875 1.421875 -3.65625 C 1.253906 -3.34375 1.171875 -2.988281 1.171875 -2.59375 C 1.171875 -2.195312 1.253906 -1.84375 1.421875 -1.53125 C 1.585938 -1.226562 1.816406 -0.992188 2.109375 -0.828125 C 2.398438 -0.660156 2.734375 -0.578125 3.109375 -0.578125 Z M 3.109375 -0.578125 "/></g></g></g><g fill="#ffffff" fill-opacity="1"><g transform="translate(115.002775, 33.412497)"><g><path d="M 1.65625 -4.1875 C 1.820312 -4.53125 2.066406 -4.789062 2.390625 -4.96875 C 2.710938 -5.144531 3.113281 -5.234375 3.59375 -5.234375 L 3.59375 -4.5625 L 3.4375 -4.5625 C 2.882812 -4.5625 2.453125 -4.394531 2.140625 -4.0625 C 1.835938 -3.726562 1.6875 -3.257812 1.6875 -2.65625 L 1.6875 0 L 0.984375 0 L 0.984375 -5.203125 L 1.65625 -5.203125 Z M 1.65625 -4.1875 "/></g></g></g><g fill="#ffffff" fill-opacity="1"><g transform="translate(118.97111, 33.412497)"><g/></g></g><g fill="#ffffff" fill-opacity="1"><g transform="translate(121.563889, 33.412497)"><g><path d="M 2.375 0.046875 C 1.945312 0.046875 1.539062 -0.0078125 1.15625 -0.125 C 0.769531 -0.25 0.46875 -0.40625 0.25 -0.59375 L 0.578125 -1.140625 C 0.796875 -0.972656 1.066406 -0.832031 1.390625 -0.71875 C 1.722656 -0.613281 2.066406 -0.5625 2.421875 -0.5625 C 2.898438 -0.5625 3.25 -0.632812 3.46875 -0.78125 C 3.695312 -0.9375 3.8125 -1.148438 3.8125 -1.421875 C 3.8125 -1.609375 3.75 -1.753906 3.625 -1.859375 C 3.5 -1.972656 3.34375 -2.054688 3.15625 -2.109375 C 2.96875 -2.171875 2.710938 -2.226562 2.390625 -2.28125 C 1.972656 -2.351562 1.632812 -2.429688 1.375 -2.515625 C 1.113281 -2.597656 0.890625 -2.738281 0.703125 -2.9375 C 0.523438 -3.132812 0.4375 -3.410156 0.4375 -3.765625 C 0.4375 -4.191406 0.617188 -4.539062 0.984375 -4.8125 C 1.347656 -5.09375 1.851562 -5.234375 2.5 -5.234375 C 2.832031 -5.234375 3.164062 -5.1875 3.5 -5.09375 C 3.84375 -5.007812 4.125 -4.894531 4.34375 -4.75 L 4.03125 -4.1875 C 3.601562 -4.488281 3.09375 -4.640625 2.5 -4.640625 C 2.050781 -4.640625 1.710938 -4.554688 1.484375 -4.390625 C 1.253906 -4.234375 1.140625 -4.03125 1.140625 -3.78125 C 1.140625 -3.582031 1.203125 -3.421875 1.328125 -3.296875 C 1.460938 -3.179688 1.625 -3.09375 1.8125 -3.03125 C 2.007812 -2.976562 2.273438 -2.925781 2.609375 -2.875 C 3.023438 -2.789062 3.359375 -2.707031 3.609375 -2.625 C 3.859375 -2.550781 4.070312 -2.414062 4.25 -2.21875 C 4.425781 -2.03125 4.515625 -1.769531 4.515625 -1.4375 C 4.515625 -0.976562 4.320312 -0.613281 3.9375 -0.34375 C 3.5625 -0.0820312 3.039062 0.046875 2.375 0.046875 Z M 2.375 0.046875 "/></g></g></g><g fill="#ffffff" fill-opacity="1"><g transform="translate(126.403077, 33.412497)"><g><path d="M 5.515625 -2.390625 L 1.15625 -2.390625 C 1.195312 -1.847656 1.40625 -1.410156 1.78125 -1.078125 C 2.15625 -0.742188 2.628906 -0.578125 3.203125 -0.578125 C 3.523438 -0.578125 3.820312 -0.632812 4.09375 -0.75 C 4.363281 -0.863281 4.597656 -1.03125 4.796875 -1.25 L 5.1875 -0.796875 C 4.957031 -0.523438 4.671875 -0.316406 4.328125 -0.171875 C 3.984375 -0.0234375 3.601562 0.046875 3.1875 0.046875 C 2.65625 0.046875 2.179688 -0.0664062 1.765625 -0.296875 C 1.347656 -0.523438 1.023438 -0.835938 0.796875 -1.234375 C 0.566406 -1.640625 0.453125 -2.09375 0.453125 -2.59375 C 0.453125 -3.101562 0.5625 -3.554688 0.78125 -3.953125 C 1.007812 -4.359375 1.316406 -4.671875 1.703125 -4.890625 C 2.085938 -5.117188 2.519531 -5.234375 3 -5.234375 C 3.476562 -5.234375 3.90625 -5.117188 4.28125 -4.890625 C 4.664062 -4.671875 4.96875 -4.363281 5.1875 -3.96875 C 5.40625 -3.570312 5.515625 -3.113281 5.515625 -2.59375 Z M 3 -4.640625 C 2.5 -4.640625 2.078125 -4.476562 1.734375 -4.15625 C 1.390625 -3.832031 1.195312 -3.414062 1.15625 -2.90625 L 4.84375 -2.90625 C 4.800781 -3.414062 4.609375 -3.832031 4.265625 -4.15625 C 3.929688 -4.476562 3.507812 -4.640625 3 -4.640625 Z M 3 -4.640625 "/></g></g></g><g fill="#ffffff" fill-opacity="1"><g transform="translate(132.380317, 33.412497)"><g><path d="M 3.625 -5.234375 C 4.28125 -5.234375 4.800781 -5.046875 5.1875 -4.671875 C 5.570312 -4.296875 5.765625 -3.742188 5.765625 -3.015625 L 5.765625 0 L 5.0625 0 L 5.0625 -2.953125 C 5.0625 -3.492188 4.925781 -3.90625 4.65625 -4.1875 C 4.382812 -4.46875 4 -4.609375 3.5 -4.609375 C 2.9375 -4.609375 2.492188 -4.441406 2.171875 -4.109375 C 1.847656 -3.773438 1.6875 -3.316406 1.6875 -2.734375 L 1.6875 0 L 0.984375 0 L 0.984375 -5.203125 L 1.65625 -5.203125 L 1.65625 -4.25 C 1.84375 -4.5625 2.101562 -4.800781 2.4375 -4.96875 C 2.78125 -5.144531 3.175781 -5.234375 3.625 -5.234375 Z M 3.625 -5.234375 "/></g></g></g><g fill="#ffffff" fill-opacity="1"><g transform="translate(139.07997, 33.412497)"><g><path d="M 2.375 0.046875 C 1.945312 0.046875 1.539062 -0.0078125 1.15625 -0.125 C 0.769531 -0.25 0.46875 -0.40625 0.25 -0.59375 L 0.578125 -1.140625 C 0.796875 -0.972656 1.066406 -0.832031 1.390625 -0.71875 C 1.722656 -0.613281 2.066406 -0.5625 2.421875 -0.5625 C 2.898438 -0.5625 3.25 -0.632812 3.46875 -0.78125 C 3.695312 -0.9375 3.8125 -1.148438 3.8125 -1.421875 C 3.8125 -1.609375 3.75 -1.753906 3.625 -1.859375 C 3.5 -1.972656 3.34375 -2.054688 3.15625 -2.109375 C 2.96875 -2.171875 2.710938 -2.226562 2.390625 -2.28125 C 1.972656 -2.351562 1.632812 -2.429688 1.375 -2.515625 C 1.113281 -2.597656 0.890625 -2.738281 0.703125 -2.9375 C 0.523438 -3.132812 0.4375 -3.410156 0.4375 -3.765625 C 0.4375 -4.191406 0.617188 -4.539062 0.984375 -4.8125 C 1.347656 -5.09375 1.851562 -5.234375 2.5 -5.234375 C 2.832031 -5.234375 3.164062 -5.1875 3.5 -5.09375 C 3.84375 -5.007812 4.125 -4.894531 4.34375 -4.75 L 4.03125 -4.1875 C 3.601562 -4.488281 3.09375 -4.640625 2.5 -4.640625 C 2.050781 -4.640625 1.710938 -4.554688 1.484375 -4.390625 C 1.253906 -4.234375 1.140625 -4.03125 1.140625 -3.78125 C 1.140625 -3.582031 1.203125 -3.421875 1.328125 -3.296875 C 1.460938 -3.179688 1.625 -3.09375 1.8125 -3.03125 C 2.007812 -2.976562 2.273438 -2.925781 2.609375 -2.875 C 3.023438 -2.789062 3.359375 -2.707031 3.609375 -2.625 C 3.859375 -2.550781 4.070312 -2.414062 4.25 -2.21875 C 4.425781 -2.03125 4.515625 -1.769531 4.515625 -1.4375 C 4.515625 -0.976562 4.320312 -0.613281 3.9375 -0.34375 C 3.5625 -0.0820312 3.039062 0.046875 2.375 0.046875 Z M 2.375 0.046875 "/></g></g></g><g fill="#ffffff" fill-opacity="1"><g transform="translate(143.919158, 33.412497)"><g><path d="M 0.984375 -5.203125 L 1.6875 -5.203125 L 1.6875 0 L 0.984375 0 Z M 1.328125 -6.34375 C 1.179688 -6.34375 1.054688 -6.390625 0.953125 -6.484375 C 0.859375 -6.585938 0.8125 -6.707031 0.8125 -6.84375 C 0.8125 -6.976562 0.859375 -7.09375 0.953125 -7.1875 C 1.054688 -7.289062 1.179688 -7.34375 1.328125 -7.34375 C 1.472656 -7.34375 1.59375 -7.289062 1.6875 -7.1875 C 1.789062 -7.09375 1.84375 -6.984375 1.84375 -6.859375 C 1.84375 -6.710938 1.789062 -6.585938 1.6875 -6.484375 C 1.59375 -6.390625 1.472656 -6.34375 1.328125 -6.34375 Z M 1.328125 -6.34375 "/></g></g></g><g fill="#ffffff" fill-opacity="1"><g transform="translate(146.581206, 33.412497)"><g><path d="M 3.71875 -0.3125 C 3.582031 -0.195312 3.414062 -0.109375 3.21875 -0.046875 C 3.03125 0.015625 2.832031 0.046875 2.625 0.046875 C 2.132812 0.046875 1.753906 -0.0820312 1.484375 -0.34375 C 1.222656 -0.601562 1.09375 -0.976562 1.09375 -1.46875 L 1.09375 -4.609375 L 0.171875 -4.609375 L 0.171875 -5.203125 L 1.09375 -5.203125 L 1.09375 -6.34375 L 1.796875 -6.34375 L 1.796875 -5.203125 L 3.375 -5.203125 L 3.375 -4.609375 L 1.796875 -4.609375 L 1.796875 -1.5 C 1.796875 -1.1875 1.875 -0.945312 2.03125 -0.78125 C 2.1875 -0.625 2.410156 -0.546875 2.703125 -0.546875 C 2.847656 -0.546875 2.988281 -0.566406 3.125 -0.609375 C 3.257812 -0.660156 3.375 -0.734375 3.46875 -0.828125 Z M 3.71875 -0.3125 "/></g></g></g><g fill="#ffffff" fill-opacity="1"><g transform="translate(150.599017, 33.412497)"><g><path d="M 0.984375 -5.203125 L 1.6875 -5.203125 L 1.6875 0 L 0.984375 0 Z M 1.328125 -6.34375 C 1.179688 -6.34375 1.054688 -6.390625 0.953125 -6.484375 C 0.859375 -6.585938 0.8125 -6.707031 0.8125 -6.84375 C 0.8125 -6.976562 0.859375 -7.09375 0.953125 -7.1875 C 1.054688 -7.289062 1.179688 -7.34375 1.328125 -7.34375 C 1.472656 -7.34375 1.59375 -7.289062 1.6875 -7.1875 C 1.789062 -7.09375 1.84375 -6.984375 1.84375 -6.859375 C 1.84375 -6.710938 1.789062 -6.585938 1.6875 -6.484375 C 1.59375 -6.390625 1.472656 -6.34375 1.328125 -6.34375 Z M 1.328125 -6.34375 "/></g></g></g><g fill="#ffffff" fill-opacity="1"><g transform="translate(153.261066, 33.412497)"><g><path d="M 5.34375 -5.203125 L 3.03125 0 L 2.3125 0 L 0.015625 -5.203125 L 0.734375 -5.203125 L 2.6875 -0.765625 L 4.65625 -5.203125 Z M 5.34375 -5.203125 "/></g></g></g><g fill="#ffffff" fill-opacity="1"><g transform="translate(158.624749, 33.412497)"><g><path d="M 5.515625 -2.390625 L 1.15625 -2.390625 C 1.195312 -1.847656 1.40625 -1.410156 1.78125 -1.078125 C 2.15625 -0.742188 2.628906 -0.578125 3.203125 -0.578125 C 3.523438 -0.578125 3.820312 -0.632812 4.09375 -0.75 C 4.363281 -0.863281 4.597656 -1.03125 4.796875 -1.25 L 5.1875 -0.796875 C 4.957031 -0.523438 4.671875 -0.316406 4.328125 -0.171875 C 3.984375 -0.0234375 3.601562 0.046875 3.1875 0.046875 C 2.65625 0.046875 2.179688 -0.0664062 1.765625 -0.296875 C 1.347656 -0.523438 1.023438 -0.835938 0.796875 -1.234375 C 0.566406 -1.640625 0.453125 -2.09375 0.453125 -2.59375 C 0.453125 -3.101562 0.5625 -3.554688 0.78125 -3.953125 C 1.007812 -4.359375 1.316406 -4.671875 1.703125 -4.890625 C 2.085938 -5.117188 2.519531 -5.234375 3 -5.234375 C 3.476562 -5.234375 3.90625 -5.117188 4.28125 -4.890625 C 4.664062 -4.671875 4.96875 -4.363281 5.1875 -3.96875 C 5.40625 -3.570312 5.515625 -3.113281 5.515625 -2.59375 Z M 3 -4.640625 C 2.5 -4.640625 2.078125 -4.476562 1.734375 -4.15625 C 1.390625 -3.832031 1.195312 -3.414062 1.15625 -2.90625 L 4.84375 -2.90625 C 4.800781 -3.414062 4.609375 -3.832031 4.265625 -4.15625 C 3.929688 -4.476562 3.507812 -4.640625 3 -4.640625 Z M 3 -4.640625 "/></g></g></g><g fill="#ffffff" fill-opacity="1"><g transform="translate(164.601989, 33.412497)"><g/></g></g><g fill="#ffffff" fill-opacity="1"><g transform="translate(167.194768, 33.412497)"><g><path d="M 3.65625 -5.234375 C 4.144531 -5.234375 4.585938 -5.125 4.984375 -4.90625 C 5.378906 -4.6875 5.6875 -4.375 5.90625 -3.96875 C 6.132812 -3.570312 6.25 -3.113281 6.25 -2.59375 C 6.25 -2.070312 6.132812 -1.609375 5.90625 -1.203125 C 5.6875 -0.804688 5.378906 -0.5 4.984375 -0.28125 C 4.597656 -0.0625 4.15625 0.046875 3.65625 0.046875 C 3.238281 0.046875 2.859375 -0.0351562 2.515625 -0.203125 C 2.171875 -0.378906 1.894531 -0.640625 1.6875 -0.984375 L 1.6875 1.921875 L 0.984375 1.921875 L 0.984375 -5.203125 L 1.65625 -5.203125 L 1.65625 -4.171875 C 1.863281 -4.515625 2.140625 -4.773438 2.484375 -4.953125 C 2.828125 -5.140625 3.21875 -5.234375 3.65625 -5.234375 Z M 3.609375 -0.578125 C 3.972656 -0.578125 4.300781 -0.660156 4.59375 -0.828125 C 4.894531 -0.992188 5.128906 -1.226562 5.296875 -1.53125 C 5.460938 -1.84375 5.546875 -2.195312 5.546875 -2.59375 C 5.546875 -2.988281 5.460938 -3.335938 5.296875 -3.640625 C 5.128906 -3.953125 4.894531 -4.191406 4.59375 -4.359375 C 4.300781 -4.535156 3.972656 -4.625 3.609375 -4.625 C 3.242188 -4.625 2.910156 -4.535156 2.609375 -4.359375 C 2.316406 -4.191406 2.085938 -3.953125 1.921875 -3.640625 C 1.753906 -3.335938 1.671875 -2.988281 1.671875 -2.59375 C 1.671875 -2.195312 1.753906 -1.84375 1.921875 -1.53125 C 2.085938 -1.226562 2.316406 -0.992188 2.609375 -0.828125 C 2.910156 -0.660156 3.242188 -0.578125 3.609375 -0.578125 Z M 3.609375 -0.578125 "/></g></g></g><g fill="#ffffff" fill-opacity="1"><g transform="translate(173.904323, 33.412497)"><g><path d="M 5.515625 -2.390625 L 1.15625 -2.390625 C 1.195312 -1.847656 1.40625 -1.410156 1.78125 -1.078125 C 2.15625 -0.742188 2.628906 -0.578125 3.203125 -0.578125 C 3.523438 -0.578125 3.820312 -0.632812 4.09375 -0.75 C 4.363281 -0.863281 4.597656 -1.03125 4.796875 -1.25 L 5.1875 -0.796875 C 4.957031 -0.523438 4.671875 -0.316406 4.328125 -0.171875 C 3.984375 -0.0234375 3.601562 0.046875 3.1875 0.046875 C 2.65625 0.046875 2.179688 -0.0664062 1.765625 -0.296875 C 1.347656 -0.523438 1.023438 -0.835938 0.796875 -1.234375 C 0.566406 -1.640625 0.453125 -2.09375 0.453125 -2.59375 C 0.453125 -3.101562 0.5625 -3.554688 0.78125 -3.953125 C 1.007812 -4.359375 1.316406 -4.671875 1.703125 -4.890625 C 2.085938 -5.117188 2.519531 -5.234375 3 -5.234375 C 3.476562 -5.234375 3.90625 -5.117188 4.28125 -4.890625 C 4.664062 -4.671875 4.96875 -4.363281 5.1875 -3.96875 C 5.40625 -3.570312 5.515625 -3.113281 5.515625 -2.59375 Z M 3 -4.640625 C 2.5 -4.640625 2.078125 -4.476562 1.734375 -4.15625 C 1.390625 -3.832031 1.195312 -3.414062 1.15625 -2.90625 L 4.84375 -2.90625 C 4.800781 -3.414062 4.609375 -3.832031 4.265625 -4.15625 C 3.929688 -4.476562 3.507812 -4.640625 3 -4.640625 Z M 3 -4.640625 "/></g></g></g><g fill="#ffffff" fill-opacity="1"><g transform="translate(179.881563, 33.412497)"><g><path d="M 3.71875 -0.3125 C 3.582031 -0.195312 3.414062 -0.109375 3.21875 -0.046875 C 3.03125 0.015625 2.832031 0.046875 2.625 0.046875 C 2.132812 0.046875 1.753906 -0.0820312 1.484375 -0.34375 C 1.222656 -0.601562 1.09375 -0.976562 1.09375 -1.46875 L 1.09375 -4.609375 L 0.171875 -4.609375 L 0.171875 -5.203125 L 1.09375 -5.203125 L 1.09375 -6.34375 L 1.796875 -6.34375 L 1.796875 -5.203125 L 3.375 -5.203125 L 3.375 -4.609375 L 1.796875 -4.609375 L 1.796875 -1.5 C 1.796875 -1.1875 1.875 -0.945312 2.03125 -0.78125 C 2.1875 -0.625 2.410156 -0.546875 2.703125 -0.546875 C 2.847656 -0.546875 2.988281 -0.566406 3.125 -0.609375 C 3.257812 -0.660156 3.375 -0.734375 3.46875 -0.828125 Z M 3.71875 -0.3125 "/></g></g></g><g fill="#ffffff" fill-opacity="1"><g transform="translate(183.899374, 33.412497)"><g/></g></g><g fill="#ffffff" fill-opacity="1"><g transform="translate(186.492153, 33.412497)"><g><path d="M 2.375 0.046875 C 1.945312 0.046875 1.539062 -0.0078125 1.15625 -0.125 C 0.769531 -0.25 0.46875 -0.40625 0.25 -0.59375 L 0.578125 -1.140625 C 0.796875 -0.972656 1.066406 -0.832031 1.390625 -0.71875 C 1.722656 -0.613281 2.066406 -0.5625 2.421875 -0.5625 C 2.898438 -0.5625 3.25 -0.632812 3.46875 -0.78125 C 3.695312 -0.9375 3.8125 -1.148438 3.8125 -1.421875 C 3.8125 -1.609375 3.75 -1.753906 3.625 -1.859375 C 3.5 -1.972656 3.34375 -2.054688 3.15625 -2.109375 C 2.96875 -2.171875 2.710938 -2.226562 2.390625 -2.28125 C 1.972656 -2.351562 1.632812 -2.429688 1.375 -2.515625 C 1.113281 -2.597656 0.890625 -2.738281 0.703125 -2.9375 C 0.523438 -3.132812 0.4375 -3.410156 0.4375 -3.765625 C 0.4375 -4.191406 0.617188 -4.539062 0.984375 -4.8125 C 1.347656 -5.09375 1.851562 -5.234375 2.5 -5.234375 C 2.832031 -5.234375 3.164062 -5.1875 3.5 -5.09375 C 3.84375 -5.007812 4.125 -4.894531 4.34375 -4.75 L 4.03125 -4.1875 C 3.601562 -4.488281 3.09375 -4.640625 2.5 -4.640625 C 2.050781 -4.640625 1.710938 -4.554688 1.484375 -4.390625 C 1.253906 -4.234375 1.140625 -4.03125 1.140625 -3.78125 C 1.140625 -3.582031 1.203125 -3.421875 1.328125 -3.296875 C 1.460938 -3.179688 1.625 -3.09375 1.8125 -3.03125 C 2.007812 -2.976562 2.273438 -2.925781 2.609375 -2.875 C 3.023438 -2.789062 3.359375 -2.707031 3.609375 -2.625 C 3.859375 -2.550781 4.070312 -2.414062 4.25 -2.21875 C 4.425781 -2.03125 4.515625 -1.769531 4.515625 -1.4375 C 4.515625 -0.976562 4.320312 -0.613281 3.9375 -0.34375 C 3.5625 -0.0820312 3.039062 0.046875 2.375 0.046875 Z M 2.375 0.046875 "/></g></g></g><g fill="#ffffff" fill-opacity="1"><g transform="translate(191.331341, 33.412497)"><g><path d="M 2.90625 -2.609375 L 1.6875 -1.484375 L 1.6875 0 L 0.984375 0 L 0.984375 -7.34375 L 1.6875 -7.34375 L 1.6875 -2.359375 L 4.78125 -5.203125 L 5.65625 -5.203125 L 3.4375 -3.078125 L 5.859375 0 L 5 0 Z M 2.90625 -2.609375 "/></g></g></g><g fill="#ffffff" fill-opacity="1"><g transform="translate(197.278897, 33.412497)"><g><path d="M 0.984375 -5.203125 L 1.6875 -5.203125 L 1.6875 0 L 0.984375 0 Z M 1.328125 -6.34375 C 1.179688 -6.34375 1.054688 -6.390625 0.953125 -6.484375 C 0.859375 -6.585938 0.8125 -6.707031 0.8125 -6.84375 C 0.8125 -6.976562 0.859375 -7.09375 0.953125 -7.1875 C 1.054688 -7.289062 1.179688 -7.34375 1.328125 -7.34375 C 1.472656 -7.34375 1.59375 -7.289062 1.6875 -7.1875 C 1.789062 -7.09375 1.84375 -6.984375 1.84375 -6.859375 C 1.84375 -6.710938 1.789062 -6.585938 1.6875 -6.484375 C 1.59375 -6.390625 1.472656 -6.34375 1.328125 -6.34375 Z M 1.328125 -6.34375 "/></g></g></g><g fill="#ffffff" fill-opacity="1"><g transform="translate(199.940946, 33.412497)"><g><path d="M 3.625 -5.234375 C 4.28125 -5.234375 4.800781 -5.046875 5.1875 -4.671875 C 5.570312 -4.296875 5.765625 -3.742188 5.765625 -3.015625 L 5.765625 0 L 5.0625 0 L 5.0625 -2.953125 C 5.0625 -3.492188 4.925781 -3.90625 4.65625 -4.1875 C 4.382812 -4.46875 4 -4.609375 3.5 -4.609375 C 2.9375 -4.609375 2.492188 -4.441406 2.171875 -4.109375 C 1.847656 -3.773438 1.6875 -3.316406 1.6875 -2.734375 L 1.6875 0 L 0.984375 0 L 0.984375 -5.203125 L 1.65625 -5.203125 L 1.65625 -4.25 C 1.84375 -4.5625 2.101562 -4.800781 2.4375 -4.96875 C 2.78125 -5.144531 3.175781 -5.234375 3.625 -5.234375 Z M 3.625 -5.234375 "/></g></g></g></svg>