<svg xmlns="http://www.w3.org/2000/svg" xmlns:xlink="http://www.w3.org/1999/xlink" width="302" zoomAndPan="magnify" viewBox="0 0 226.5 48.75" height="65" preserveAspectRatio="xMidYMid meet" version="1.0"><defs><g/><clipPath id="0a292f8609"><path d="M 186.238281 16.078125 L 200.925781 16.078125 L 200.925781 30.117188 L 186.238281 30.117188 Z M 186.238281 16.078125 " clip-rule="nonzero"/></clipPath><clipPath id="164bfbf5c7"><path d="M 0.328125 0 L 225.125 0 L 225.125 48.386719 L 0.328125 48.386719 Z M 0.328125 0 " clip-rule="nonzero"/></clipPath></defs><g clip-path="url(#0a292f8609)"><path fill="#feca08" d="M 186.238281 16.078125 L 200.9375 16.078125 L 200.9375 30.117188 L 186.238281 30.117188 Z M 186.238281 16.078125 " fill-opacity="1" fill-rule="nonzero"/></g><g clip-path="url(#164bfbf5c7)"><path fill="#51a31f" d="M 0.328125 0 L 225.058594 0 L 225.058594 48.386719 L 0.328125 48.386719 Z M 0.328125 0 " fill-opacity="1" fill-rule="nonzero"/></g><g fill="#ffffff" fill-opacity="1"><g transform="translate(56.979968, 14.177297)"><g><path d="M 5.9375 -3.625 C 6.34375 -3.5 6.65625 -3.285156 6.875 -2.984375 C 7.101562 -2.691406 7.21875 -2.332031 7.21875 -1.90625 C 7.21875 -1.289062 6.976562 -0.816406 6.5 -0.484375 C 6.03125 -0.160156 5.335938 0 4.421875 0 L 0.828125 0 L 0.828125 -6.96875 L 4.234375 -6.96875 C 5.078125 -6.96875 5.726562 -6.800781 6.1875 -6.46875 C 6.644531 -6.144531 6.875 -5.707031 6.875 -5.15625 C 6.875 -4.8125 6.789062 -4.507812 6.625 -4.25 C 6.457031 -3.988281 6.226562 -3.78125 5.9375 -3.625 Z M 2.421875 -5.75 L 2.421875 -4.109375 L 4.03125 -4.109375 C 4.425781 -4.109375 4.726562 -4.175781 4.9375 -4.3125 C 5.144531 -4.457031 5.25 -4.664062 5.25 -4.9375 C 5.25 -5.207031 5.144531 -5.410156 4.9375 -5.546875 C 4.726562 -5.679688 4.425781 -5.75 4.03125 -5.75 Z M 4.3125 -1.21875 C 4.738281 -1.21875 5.054688 -1.285156 5.265625 -1.421875 C 5.484375 -1.554688 5.59375 -1.769531 5.59375 -2.0625 C 5.59375 -2.644531 5.164062 -2.9375 4.3125 -2.9375 L 2.421875 -2.9375 L 2.421875 -1.21875 Z M 4.3125 -1.21875 "/></g></g></g><g fill="#ffffff" fill-opacity="1"><g transform="translate(64.58794, 14.177297)"><g><path d="M 5.265625 0 L 3.921875 -1.9375 L 2.4375 -1.9375 L 2.4375 0 L 0.828125 0 L 0.828125 -6.96875 L 3.84375 -6.96875 C 4.457031 -6.96875 4.988281 -6.863281 5.4375 -6.65625 C 5.894531 -6.445312 6.25 -6.15625 6.5 -5.78125 C 6.75 -5.40625 6.875 -4.957031 6.875 -4.4375 C 6.875 -3.914062 6.75 -3.46875 6.5 -3.09375 C 6.25 -2.71875 5.894531 -2.429688 5.4375 -2.234375 L 7 0 Z M 5.234375 -4.4375 C 5.234375 -4.832031 5.109375 -5.132812 4.859375 -5.34375 C 4.609375 -5.550781 4.238281 -5.65625 3.75 -5.65625 L 2.4375 -5.65625 L 2.4375 -3.21875 L 3.75 -3.21875 C 4.238281 -3.21875 4.609375 -3.320312 4.859375 -3.53125 C 5.109375 -3.75 5.234375 -4.050781 5.234375 -4.4375 Z M 5.234375 -4.4375 "/></g></g></g><g fill="#ffffff" fill-opacity="1"><g transform="translate(71.897562, 14.177297)"><g><path d="M 4.203125 0.125 C 3.472656 0.125 2.816406 -0.03125 2.234375 -0.34375 C 1.660156 -0.65625 1.207031 -1.082031 0.875 -1.625 C 0.550781 -2.175781 0.390625 -2.796875 0.390625 -3.484375 C 0.390625 -4.171875 0.550781 -4.785156 0.875 -5.328125 C 1.207031 -5.878906 1.660156 -6.3125 2.234375 -6.625 C 2.816406 -6.9375 3.472656 -7.09375 4.203125 -7.09375 C 4.921875 -7.09375 5.566406 -6.9375 6.140625 -6.625 C 6.722656 -6.3125 7.179688 -5.878906 7.515625 -5.328125 C 7.847656 -4.785156 8.015625 -4.171875 8.015625 -3.484375 C 8.015625 -2.796875 7.847656 -2.175781 7.515625 -1.625 C 7.179688 -1.082031 6.722656 -0.65625 6.140625 -0.34375 C 5.566406 -0.03125 4.921875 0.125 4.203125 0.125 Z M 4.203125 -1.25 C 4.609375 -1.25 4.976562 -1.34375 5.3125 -1.53125 C 5.644531 -1.726562 5.90625 -1.992188 6.09375 -2.328125 C 6.28125 -2.671875 6.375 -3.054688 6.375 -3.484375 C 6.375 -3.910156 6.28125 -4.289062 6.09375 -4.625 C 5.90625 -4.96875 5.644531 -5.234375 5.3125 -5.421875 C 4.976562 -5.617188 4.609375 -5.71875 4.203125 -5.71875 C 3.785156 -5.71875 3.410156 -5.617188 3.078125 -5.421875 C 2.753906 -5.234375 2.492188 -4.96875 2.296875 -4.625 C 2.109375 -4.289062 2.015625 -3.910156 2.015625 -3.484375 C 2.015625 -3.054688 2.109375 -2.671875 2.296875 -2.328125 C 2.492188 -1.992188 2.753906 -1.726562 3.078125 -1.53125 C 3.410156 -1.34375 3.785156 -1.25 4.203125 -1.25 Z M 4.203125 -1.25 "/></g></g></g><g fill="#ffffff" fill-opacity="1"><g transform="translate(80.291193, 14.177297)"><g><path d="M 7.171875 0 L 7.15625 -4.1875 L 5.109375 -0.734375 L 4.375 -0.734375 L 2.34375 -4.09375 L 2.34375 0 L 0.828125 0 L 0.828125 -6.96875 L 2.15625 -6.96875 L 4.765625 -2.640625 L 7.328125 -6.96875 L 8.65625 -6.96875 L 8.671875 0 Z M 7.171875 0 "/></g></g></g><g fill="#ffffff" fill-opacity="1"><g transform="translate(89.788725, 14.177297)"><g><path d="M 6.21875 -1.296875 L 6.21875 0 L 0.828125 0 L 0.828125 -6.96875 L 6.09375 -6.96875 L 6.09375 -5.671875 L 2.421875 -5.671875 L 2.421875 -4.15625 L 5.65625 -4.15625 L 5.65625 -2.90625 L 2.421875 -2.90625 L 2.421875 -1.296875 Z M 6.21875 -1.296875 "/></g></g></g><g fill="#ffffff" fill-opacity="1"><g transform="translate(96.461863, 14.177297)"><g><path d="M 0.828125 -6.96875 L 2.4375 -6.96875 L 2.4375 -1.3125 L 5.9375 -1.3125 L 5.9375 0 L 0.828125 0 Z M 0.828125 -6.96875 "/></g></g></g><g fill="#ffffff" fill-opacity="1"><g transform="translate(102.468676, 14.177297)"><g><path d="M 5.421875 -1.5 L 2.1875 -1.5 L 1.5625 0 L -0.09375 0 L 3.015625 -6.96875 L 4.609375 -6.96875 L 7.71875 0 L 6.03125 0 Z M 4.90625 -2.71875 L 3.796875 -5.390625 L 2.703125 -2.71875 Z M 4.90625 -2.71875 "/></g></g></g><g fill="#ffffff" fill-opacity="1"><g transform="translate(110.086588, 14.177297)"><g><path d="M 0.828125 -6.96875 L 2.4375 -6.96875 L 2.4375 0 L 0.828125 0 Z M 0.828125 -6.96875 "/></g></g></g><g fill="#ffffff" fill-opacity="1"><g transform="translate(113.348569, 14.177297)"><g><path d="M 7.21875 -6.96875 L 7.21875 0 L 5.890625 0 L 2.421875 -4.234375 L 2.421875 0 L 0.828125 0 L 0.828125 -6.96875 L 2.15625 -6.96875 L 5.625 -2.734375 L 5.625 -6.96875 Z M 7.21875 -6.96875 "/></g></g></g><g fill="#ffffff" fill-opacity="1"><g transform="translate(121.384177, 14.177297)"><g/></g></g><g fill="#ffffff" fill-opacity="1"><g transform="translate(124.198632, 14.177297)"><g><path d="M 6.21875 -1.296875 L 6.21875 0 L 0.828125 0 L 0.828125 -6.96875 L 6.09375 -6.96875 L 6.09375 -5.671875 L 2.421875 -5.671875 L 2.421875 -4.15625 L 5.65625 -4.15625 L 5.65625 -2.90625 L 2.421875 -2.90625 L 2.421875 -1.296875 Z M 6.21875 -1.296875 "/></g></g></g><g fill="#ffffff" fill-opacity="1"><g transform="translate(130.87177, 14.177297)"><g><path d="M 7.21875 -6.96875 L 7.21875 0 L 5.890625 0 L 2.421875 -4.234375 L 2.421875 0 L 0.828125 0 L 0.828125 -6.96875 L 2.15625 -6.96875 L 5.625 -2.734375 L 5.625 -6.96875 Z M 7.21875 -6.96875 "/></g></g></g><g fill="#ffffff" fill-opacity="1"><g transform="translate(138.907378, 14.177297)"><g><path d="M 6.46875 -1.3125 L 6.46875 0 L 0.375 0 L 0.375 -1.046875 L 4.203125 -5.65625 L 0.453125 -5.65625 L 0.453125 -6.96875 L 6.3125 -6.96875 L 6.3125 -5.921875 L 2.515625 -1.3125 Z M 6.46875 -1.3125 "/></g></g></g><g fill="#ffffff" fill-opacity="1"><g transform="translate(145.580516, 14.177297)"><g><path d="M 4.171875 -2.46875 L 4.171875 0 L 2.5625 0 L 2.5625 -2.484375 L -0.140625 -6.96875 L 1.578125 -6.96875 L 3.4375 -3.875 L 5.296875 -6.96875 L 6.875 -6.96875 Z M 4.171875 -2.46875 "/></g></g></g><g fill="#ffffff" fill-opacity="1"><g transform="translate(152.303375, 14.177297)"><g><path d="M 7.171875 0 L 7.15625 -4.1875 L 5.109375 -0.734375 L 4.375 -0.734375 L 2.34375 -4.09375 L 2.34375 0 L 0.828125 0 L 0.828125 -6.96875 L 2.15625 -6.96875 L 4.765625 -2.640625 L 7.328125 -6.96875 L 8.65625 -6.96875 L 8.671875 0 Z M 7.171875 0 "/></g></g></g><g fill="#ffffff" fill-opacity="1"><g transform="translate(161.800907, 14.177297)"><g><path d="M 6.21875 -1.296875 L 6.21875 0 L 0.828125 0 L 0.828125 -6.96875 L 6.09375 -6.96875 L 6.09375 -5.671875 L 2.421875 -5.671875 L 2.421875 -4.15625 L 5.65625 -4.15625 L 5.65625 -2.90625 L 2.421875 -2.90625 L 2.421875 -1.296875 Z M 6.21875 -1.296875 "/></g></g></g><g fill="#ffffff" fill-opacity="1"><g transform="translate(24.754602, 26.862246)"><g><path d="M 6.953125 -6.96875 L 6.953125 0 L 6.34375 0 L 1.875 -5.65625 L 1.875 0 L 1.140625 0 L 1.140625 -6.96875 L 1.734375 -6.96875 L 6.234375 -1.3125 L 6.234375 -6.96875 Z M 6.953125 -6.96875 "/></g></g></g><g fill="#ffffff" fill-opacity="1"><g transform="translate(32.839931, 26.862246)"><g><path d="M 2.8125 -5.28125 C 3.5 -5.28125 4.023438 -5.109375 4.390625 -4.765625 C 4.753906 -4.421875 4.9375 -3.914062 4.9375 -3.25 L 4.9375 0 L 4.265625 0 L 4.265625 -0.8125 C 4.097656 -0.539062 3.859375 -0.328125 3.546875 -0.171875 C 3.242188 -0.0234375 2.878906 0.046875 2.453125 0.046875 C 1.867188 0.046875 1.40625 -0.0859375 1.0625 -0.359375 C 0.71875 -0.640625 0.546875 -1.007812 0.546875 -1.46875 C 0.546875 -1.914062 0.707031 -2.273438 1.03125 -2.546875 C 1.351562 -2.816406 1.863281 -2.953125 2.5625 -2.953125 L 4.234375 -2.953125 L 4.234375 -3.28125 C 4.234375 -3.726562 4.101562 -4.066406 3.84375 -4.296875 C 3.59375 -4.535156 3.226562 -4.65625 2.75 -4.65625 C 2.414062 -4.65625 2.09375 -4.597656 1.78125 -4.484375 C 1.476562 -4.378906 1.21875 -4.234375 1 -4.046875 L 0.6875 -4.5625 C 0.945312 -4.789062 1.265625 -4.96875 1.640625 -5.09375 C 2.015625 -5.21875 2.40625 -5.28125 2.8125 -5.28125 Z M 2.5625 -0.5 C 2.96875 -0.5 3.3125 -0.59375 3.59375 -0.78125 C 3.875 -0.96875 4.085938 -1.234375 4.234375 -1.578125 L 4.234375 -2.421875 L 2.59375 -2.421875 C 1.695312 -2.421875 1.25 -2.113281 1.25 -1.5 C 1.25 -1.1875 1.363281 -0.941406 1.59375 -0.765625 C 1.820312 -0.585938 2.144531 -0.5 2.5625 -0.5 Z M 2.5625 -0.5 "/></g></g></g><g fill="#ffffff" fill-opacity="1"><g transform="translate(38.707519, 26.862246)"><g><path d="M 3.75 -0.3125 C 3.613281 -0.195312 3.445312 -0.109375 3.25 -0.046875 C 3.050781 0.015625 2.847656 0.046875 2.640625 0.046875 C 2.148438 0.046875 1.769531 -0.0820312 1.5 -0.34375 C 1.238281 -0.613281 1.109375 -0.988281 1.109375 -1.46875 L 1.109375 -4.640625 L 0.171875 -4.640625 L 0.171875 -5.234375 L 1.109375 -5.234375 L 1.109375 -6.375 L 1.8125 -6.375 L 1.8125 -5.234375 L 3.40625 -5.234375 L 3.40625 -4.640625 L 1.8125 -4.640625 L 1.8125 -1.515625 C 1.8125 -1.203125 1.890625 -0.960938 2.046875 -0.796875 C 2.203125 -0.640625 2.425781 -0.5625 2.71875 -0.5625 C 2.863281 -0.5625 3.003906 -0.582031 3.140625 -0.625 C 3.273438 -0.675781 3.394531 -0.742188 3.5 -0.828125 Z M 3.75 -0.3125 "/></g></g></g><g fill="#ffffff" fill-opacity="1"><g transform="translate(42.745209, 26.862246)"><g><path d="M 5.703125 -5.234375 L 5.703125 0 L 5.03125 0 L 5.03125 -0.953125 C 4.84375 -0.640625 4.582031 -0.394531 4.25 -0.21875 C 3.925781 -0.0390625 3.554688 0.046875 3.140625 0.046875 C 2.460938 0.046875 1.925781 -0.140625 1.53125 -0.515625 C 1.132812 -0.898438 0.9375 -1.460938 0.9375 -2.203125 L 0.9375 -5.234375 L 1.640625 -5.234375 L 1.640625 -2.265625 C 1.640625 -1.710938 1.773438 -1.296875 2.046875 -1.015625 C 2.316406 -0.734375 2.707031 -0.59375 3.21875 -0.59375 C 3.769531 -0.59375 4.203125 -0.757812 4.515625 -1.09375 C 4.835938 -1.425781 5 -1.890625 5 -2.484375 L 5 -5.234375 Z M 5.703125 -5.234375 "/></g></g></g><g fill="#ffffff" fill-opacity="1"><g transform="translate(49.438226, 26.862246)"><g><path d="M 1.65625 -4.203125 C 1.820312 -4.554688 2.066406 -4.820312 2.390625 -5 C 2.722656 -5.1875 3.132812 -5.28125 3.625 -5.28125 L 3.625 -4.59375 L 3.453125 -4.59375 C 2.898438 -4.59375 2.46875 -4.421875 2.15625 -4.078125 C 1.84375 -3.742188 1.6875 -3.273438 1.6875 -2.671875 L 1.6875 0 L 0.984375 0 L 0.984375 -5.234375 L 1.65625 -5.234375 Z M 1.65625 -4.203125 "/></g></g></g><g fill="#ffffff" fill-opacity="1"><g transform="translate(53.426194, 26.862246)"><g><path d="M 2.8125 -5.28125 C 3.5 -5.28125 4.023438 -5.109375 4.390625 -4.765625 C 4.753906 -4.421875 4.9375 -3.914062 4.9375 -3.25 L 4.9375 0 L 4.265625 0 L 4.265625 -0.8125 C 4.097656 -0.539062 3.859375 -0.328125 3.546875 -0.171875 C 3.242188 -0.0234375 2.878906 0.046875 2.453125 0.046875 C 1.867188 0.046875 1.40625 -0.0859375 1.0625 -0.359375 C 0.71875 -0.640625 0.546875 -1.007812 0.546875 -1.46875 C 0.546875 -1.914062 0.707031 -2.273438 1.03125 -2.546875 C 1.351562 -2.816406 1.863281 -2.953125 2.5625 -2.953125 L 4.234375 -2.953125 L 4.234375 -3.28125 C 4.234375 -3.726562 4.101562 -4.066406 3.84375 -4.296875 C 3.59375 -4.535156 3.226562 -4.65625 2.75 -4.65625 C 2.414062 -4.65625 2.09375 -4.597656 1.78125 -4.484375 C 1.476562 -4.378906 1.21875 -4.234375 1 -4.046875 L 0.6875 -4.5625 C 0.945312 -4.789062 1.265625 -4.96875 1.640625 -5.09375 C 2.015625 -5.21875 2.40625 -5.28125 2.8125 -5.28125 Z M 2.5625 -0.5 C 2.96875 -0.5 3.3125 -0.59375 3.59375 -0.78125 C 3.875 -0.96875 4.085938 -1.234375 4.234375 -1.578125 L 4.234375 -2.421875 L 2.59375 -2.421875 C 1.695312 -2.421875 1.25 -2.113281 1.25 -1.5 C 1.25 -1.1875 1.363281 -0.941406 1.59375 -0.765625 C 1.820312 -0.585938 2.144531 -0.5 2.5625 -0.5 Z M 2.5625 -0.5 "/></g></g></g><g fill="#ffffff" fill-opacity="1"><g transform="translate(59.293782, 26.862246)"><g><path d="M 0.984375 -7.390625 L 1.6875 -7.390625 L 1.6875 0 L 0.984375 0 Z M 0.984375 -7.390625 "/></g></g></g><g fill="#ffffff" fill-opacity="1"><g transform="translate(61.969001, 26.862246)"><g/></g></g><g fill="#ffffff" fill-opacity="1"><g transform="translate(64.574607, 26.862246)"><g><path d="M 5.546875 -2.40625 L 1.171875 -2.40625 C 1.203125 -1.851562 1.40625 -1.410156 1.78125 -1.078125 C 2.164062 -0.742188 2.644531 -0.578125 3.21875 -0.578125 C 3.550781 -0.578125 3.851562 -0.632812 4.125 -0.75 C 4.394531 -0.863281 4.628906 -1.035156 4.828125 -1.265625 L 5.21875 -0.8125 C 4.988281 -0.53125 4.695312 -0.316406 4.34375 -0.171875 C 4 -0.0234375 3.617188 0.046875 3.203125 0.046875 C 2.671875 0.046875 2.195312 -0.0664062 1.78125 -0.296875 C 1.363281 -0.523438 1.035156 -0.835938 0.796875 -1.234375 C 0.566406 -1.640625 0.453125 -2.101562 0.453125 -2.625 C 0.453125 -3.132812 0.5625 -3.585938 0.78125 -3.984375 C 1.007812 -4.390625 1.316406 -4.707031 1.703125 -4.9375 C 2.097656 -5.164062 2.535156 -5.28125 3.015625 -5.28125 C 3.503906 -5.28125 3.9375 -5.164062 4.3125 -4.9375 C 4.695312 -4.707031 5 -4.390625 5.21875 -3.984375 C 5.4375 -3.585938 5.546875 -3.132812 5.546875 -2.625 Z M 3.015625 -4.671875 C 2.515625 -4.671875 2.09375 -4.507812 1.75 -4.1875 C 1.40625 -3.863281 1.210938 -3.441406 1.171875 -2.921875 L 4.875 -2.921875 C 4.832031 -3.441406 4.640625 -3.863281 4.296875 -4.1875 C 3.953125 -4.507812 3.523438 -4.671875 3.015625 -4.671875 Z M 3.015625 -4.671875 "/></g></g></g><g fill="#ffffff" fill-opacity="1"><g transform="translate(70.58142, 26.862246)"><g><path d="M 3.65625 -5.28125 C 4.3125 -5.28125 4.832031 -5.085938 5.21875 -4.703125 C 5.601562 -4.316406 5.796875 -3.757812 5.796875 -3.03125 L 5.796875 0 L 5.09375 0 L 5.09375 -2.96875 C 5.09375 -3.507812 4.957031 -3.921875 4.6875 -4.203125 C 4.414062 -4.492188 4.023438 -4.640625 3.515625 -4.640625 C 2.953125 -4.640625 2.503906 -4.472656 2.171875 -4.140625 C 1.847656 -3.804688 1.6875 -3.34375 1.6875 -2.75 L 1.6875 0 L 0.984375 0 L 0.984375 -5.234375 L 1.65625 -5.234375 L 1.65625 -4.265625 C 1.851562 -4.585938 2.117188 -4.835938 2.453125 -5.015625 C 2.796875 -5.191406 3.195312 -5.28125 3.65625 -5.28125 Z M 3.65625 -5.28125 "/></g></g></g><g fill="#ffffff" fill-opacity="1"><g transform="translate(77.314219, 26.862246)"><g><path d="M 4.671875 -0.59375 L 4.671875 0 L 0.421875 0 L 0.421875 -0.46875 L 3.71875 -4.640625 L 0.484375 -4.640625 L 0.484375 -5.234375 L 4.625 -5.234375 L 4.625 -4.765625 L 1.328125 -0.59375 Z M 4.671875 -0.59375 "/></g></g></g><g fill="#ffffff" fill-opacity="1"><g transform="translate(82.396148, 26.862246)"><g><path d="M 5.390625 -5.234375 L 2.765625 0.625 C 2.554688 1.113281 2.3125 1.460938 2.03125 1.671875 C 1.75 1.878906 1.414062 1.984375 1.03125 1.984375 C 0.769531 1.984375 0.53125 1.941406 0.3125 1.859375 C 0.09375 1.773438 -0.09375 1.65625 -0.25 1.5 L 0.078125 0.96875 C 0.347656 1.238281 0.664062 1.375 1.03125 1.375 C 1.269531 1.375 1.472656 1.304688 1.640625 1.171875 C 1.816406 1.035156 1.976562 0.8125 2.125 0.5 L 2.34375 -0.015625 L 0.015625 -5.234375 L 0.75 -5.234375 L 2.71875 -0.78125 L 4.6875 -5.234375 Z M 5.390625 -5.234375 "/></g></g></g><g fill="#ffffff" fill-opacity="1"><g transform="translate(87.786367, 26.862246)"><g><path d="M 7.515625 -5.28125 C 8.171875 -5.28125 8.6875 -5.085938 9.0625 -4.703125 C 9.4375 -4.328125 9.625 -3.769531 9.625 -3.03125 L 9.625 0 L 8.921875 0 L 8.921875 -2.96875 C 8.921875 -3.507812 8.785156 -3.921875 8.515625 -4.203125 C 8.253906 -4.492188 7.890625 -4.640625 7.421875 -4.640625 C 6.867188 -4.640625 6.4375 -4.472656 6.125 -4.140625 C 5.8125 -3.804688 5.65625 -3.34375 5.65625 -2.75 L 5.65625 0 L 4.953125 0 L 4.953125 -2.96875 C 4.953125 -3.507812 4.820312 -3.921875 4.5625 -4.203125 C 4.300781 -4.492188 3.925781 -4.640625 3.4375 -4.640625 C 2.90625 -4.640625 2.476562 -4.472656 2.15625 -4.140625 C 1.84375 -3.804688 1.6875 -3.34375 1.6875 -2.75 L 1.6875 0 L 0.984375 0 L 0.984375 -5.234375 L 1.65625 -5.234375 L 1.65625 -4.28125 C 1.84375 -4.59375 2.101562 -4.835938 2.4375 -5.015625 C 2.769531 -5.191406 3.148438 -5.28125 3.578125 -5.28125 C 4.015625 -5.28125 4.394531 -5.1875 4.71875 -5 C 5.039062 -4.8125 5.28125 -4.535156 5.4375 -4.171875 C 5.632812 -4.515625 5.910156 -4.785156 6.265625 -4.984375 C 6.628906 -5.179688 7.046875 -5.28125 7.515625 -5.28125 Z M 7.515625 -5.28125 "/></g></g></g><g fill="#ffffff" fill-opacity="1"><g transform="translate(98.338068, 26.862246)"><g><path d="M 5.546875 -2.40625 L 1.171875 -2.40625 C 1.203125 -1.851562 1.40625 -1.410156 1.78125 -1.078125 C 2.164062 -0.742188 2.644531 -0.578125 3.21875 -0.578125 C 3.550781 -0.578125 3.851562 -0.632812 4.125 -0.75 C 4.394531 -0.863281 4.628906 -1.035156 4.828125 -1.265625 L 5.21875 -0.8125 C 4.988281 -0.53125 4.695312 -0.316406 4.34375 -0.171875 C 4 -0.0234375 3.617188 0.046875 3.203125 0.046875 C 2.671875 0.046875 2.195312 -0.0664062 1.78125 -0.296875 C 1.363281 -0.523438 1.035156 -0.835938 0.796875 -1.234375 C 0.566406 -1.640625 0.453125 -2.101562 0.453125 -2.625 C 0.453125 -3.132812 0.5625 -3.585938 0.78125 -3.984375 C 1.007812 -4.390625 1.316406 -4.707031 1.703125 -4.9375 C 2.097656 -5.164062 2.535156 -5.28125 3.015625 -5.28125 C 3.503906 -5.28125 3.9375 -5.164062 4.3125 -4.9375 C 4.695312 -4.707031 5 -4.390625 5.21875 -3.984375 C 5.4375 -3.585938 5.546875 -3.132812 5.546875 -2.625 Z M 3.015625 -4.671875 C 2.515625 -4.671875 2.09375 -4.507812 1.75 -4.1875 C 1.40625 -3.863281 1.210938 -3.441406 1.171875 -2.921875 L 4.875 -2.921875 C 4.832031 -3.441406 4.640625 -3.863281 4.296875 -4.1875 C 3.953125 -4.507812 3.523438 -4.671875 3.015625 -4.671875 Z M 3.015625 -4.671875 "/></g></g></g><g fill="#ffffff" fill-opacity="1"><g transform="translate(104.34488, 26.862246)"><g><path d="M 2.390625 0.046875 C 1.960938 0.046875 1.554688 -0.0078125 1.171875 -0.125 C 0.785156 -0.25 0.484375 -0.40625 0.265625 -0.59375 L 0.578125 -1.15625 C 0.796875 -0.976562 1.070312 -0.832031 1.40625 -0.71875 C 1.738281 -0.613281 2.082031 -0.5625 2.4375 -0.5625 C 2.914062 -0.5625 3.269531 -0.632812 3.5 -0.78125 C 3.726562 -0.9375 3.84375 -1.148438 3.84375 -1.421875 C 3.84375 -1.617188 3.78125 -1.769531 3.65625 -1.875 C 3.53125 -1.988281 3.367188 -2.070312 3.171875 -2.125 C 2.984375 -2.175781 2.726562 -2.234375 2.40625 -2.296875 C 1.976562 -2.367188 1.632812 -2.445312 1.375 -2.53125 C 1.125 -2.613281 0.90625 -2.753906 0.71875 -2.953125 C 0.539062 -3.148438 0.453125 -3.425781 0.453125 -3.78125 C 0.453125 -4.21875 0.632812 -4.578125 1 -4.859375 C 1.363281 -5.140625 1.867188 -5.28125 2.515625 -5.28125 C 2.859375 -5.28125 3.195312 -5.234375 3.53125 -5.140625 C 3.875 -5.046875 4.15625 -4.925781 4.375 -4.78125 L 4.0625 -4.21875 C 3.625 -4.519531 3.109375 -4.671875 2.515625 -4.671875 C 2.066406 -4.671875 1.726562 -4.585938 1.5 -4.421875 C 1.269531 -4.265625 1.15625 -4.054688 1.15625 -3.796875 C 1.15625 -3.597656 1.21875 -3.4375 1.34375 -3.3125 C 1.476562 -3.195312 1.640625 -3.109375 1.828125 -3.046875 C 2.023438 -2.992188 2.289062 -2.941406 2.625 -2.890625 C 3.039062 -2.804688 3.375 -2.722656 3.625 -2.640625 C 3.882812 -2.566406 4.101562 -2.429688 4.28125 -2.234375 C 4.457031 -2.046875 4.546875 -1.78125 4.546875 -1.4375 C 4.546875 -0.976562 4.351562 -0.613281 3.96875 -0.34375 C 3.59375 -0.0820312 3.066406 0.046875 2.390625 0.046875 Z M 2.390625 0.046875 "/></g></g></g><g fill="#ffffff" fill-opacity="1"><g transform="translate(109.20801, 26.862246)"><g/></g></g><g fill="#ffffff" fill-opacity="1"><g transform="translate(111.813617, 26.862246)"><g><path d="M 2.71875 -6.84375 C 2.414062 -6.84375 2.1875 -6.757812 2.03125 -6.59375 C 1.875 -6.425781 1.796875 -6.179688 1.796875 -5.859375 L 1.796875 -5.234375 L 3.40625 -5.234375 L 3.40625 -4.640625 L 1.8125 -4.640625 L 1.8125 0 L 1.109375 0 L 1.109375 -4.640625 L 0.171875 -4.640625 L 0.171875 -5.234375 L 1.109375 -5.234375 L 1.109375 -5.875 C 1.109375 -6.351562 1.242188 -6.734375 1.515625 -7.015625 C 1.796875 -7.296875 2.1875 -7.4375 2.6875 -7.4375 C 2.882812 -7.4375 3.078125 -7.40625 3.265625 -7.34375 C 3.453125 -7.289062 3.609375 -7.210938 3.734375 -7.109375 L 3.5 -6.578125 C 3.289062 -6.753906 3.03125 -6.84375 2.71875 -6.84375 Z M 2.71875 -6.84375 "/></g></g></g><g fill="#ffffff" fill-opacity="1"><g transform="translate(115.184992, 26.862246)"><g><path d="M 3.125 0.046875 C 2.625 0.046875 2.171875 -0.0664062 1.765625 -0.296875 C 1.359375 -0.523438 1.035156 -0.835938 0.796875 -1.234375 C 0.566406 -1.640625 0.453125 -2.101562 0.453125 -2.625 C 0.453125 -3.132812 0.566406 -3.585938 0.796875 -3.984375 C 1.035156 -4.390625 1.359375 -4.707031 1.765625 -4.9375 C 2.171875 -5.164062 2.625 -5.28125 3.125 -5.28125 C 3.625 -5.28125 4.078125 -5.164062 4.484375 -4.9375 C 4.890625 -4.707031 5.207031 -4.390625 5.4375 -3.984375 C 5.664062 -3.585938 5.78125 -3.132812 5.78125 -2.625 C 5.78125 -2.101562 5.664062 -1.640625 5.4375 -1.234375 C 5.207031 -0.835938 4.890625 -0.523438 4.484375 -0.296875 C 4.078125 -0.0664062 3.625 0.046875 3.125 0.046875 Z M 3.125 -0.578125 C 3.5 -0.578125 3.832031 -0.660156 4.125 -0.828125 C 4.414062 -0.992188 4.644531 -1.234375 4.8125 -1.546875 C 4.976562 -1.859375 5.0625 -2.21875 5.0625 -2.625 C 5.0625 -3.019531 4.976562 -3.375 4.8125 -3.6875 C 4.644531 -4 4.414062 -4.238281 4.125 -4.40625 C 3.832031 -4.570312 3.5 -4.65625 3.125 -4.65625 C 2.75 -4.65625 2.414062 -4.570312 2.125 -4.40625 C 1.832031 -4.238281 1.597656 -4 1.421875 -3.6875 C 1.253906 -3.375 1.171875 -3.019531 1.171875 -2.625 C 1.171875 -2.21875 1.253906 -1.859375 1.421875 -1.546875 C 1.597656 -1.234375 1.832031 -0.992188 2.125 -0.828125 C 2.414062 -0.660156 2.75 -0.578125 3.125 -0.578125 Z M 3.125 -0.578125 "/></g></g></g><g fill="#ffffff" fill-opacity="1"><g transform="translate(121.420543, 26.862246)"><g><path d="M 1.65625 -4.203125 C 1.820312 -4.554688 2.066406 -4.820312 2.390625 -5 C 2.722656 -5.1875 3.132812 -5.28125 3.625 -5.28125 L 3.625 -4.59375 L 3.453125 -4.59375 C 2.898438 -4.59375 2.46875 -4.421875 2.15625 -4.078125 C 1.84375 -3.742188 1.6875 -3.273438 1.6875 -2.671875 L 1.6875 0 L 0.984375 0 L 0.984375 -5.234375 L 1.65625 -5.234375 Z M 1.65625 -4.203125 "/></g></g></g><g fill="#ffffff" fill-opacity="1"><g transform="translate(125.408511, 26.862246)"><g/></g></g><g fill="#ffffff" fill-opacity="1"><g transform="translate(128.014117, 26.862246)"><g><path d="M 5.765625 -7.390625 L 5.765625 0 L 5.09375 0 L 5.09375 -1.03125 C 4.875 -0.675781 4.585938 -0.40625 4.234375 -0.21875 C 3.890625 -0.0390625 3.5 0.046875 3.0625 0.046875 C 2.570312 0.046875 2.128906 -0.0625 1.734375 -0.28125 C 1.335938 -0.507812 1.023438 -0.828125 0.796875 -1.234375 C 0.566406 -1.640625 0.453125 -2.101562 0.453125 -2.625 C 0.453125 -3.132812 0.566406 -3.59375 0.796875 -4 C 1.023438 -4.40625 1.335938 -4.71875 1.734375 -4.9375 C 2.128906 -5.164062 2.570312 -5.28125 3.0625 -5.28125 C 3.488281 -5.28125 3.875 -5.191406 4.21875 -5.015625 C 4.5625 -4.835938 4.84375 -4.578125 5.0625 -4.234375 L 5.0625 -7.390625 Z M 3.125 -0.578125 C 3.488281 -0.578125 3.816406 -0.660156 4.109375 -0.828125 C 4.410156 -0.992188 4.644531 -1.234375 4.8125 -1.546875 C 4.976562 -1.859375 5.0625 -2.21875 5.0625 -2.625 C 5.0625 -3.019531 4.976562 -3.375 4.8125 -3.6875 C 4.644531 -4 4.410156 -4.238281 4.109375 -4.40625 C 3.816406 -4.570312 3.488281 -4.65625 3.125 -4.65625 C 2.75 -4.65625 2.414062 -4.570312 2.125 -4.40625 C 1.832031 -4.238281 1.597656 -4 1.421875 -3.6875 C 1.253906 -3.375 1.171875 -3.019531 1.171875 -2.625 C 1.171875 -2.21875 1.253906 -1.859375 1.421875 -1.546875 C 1.597656 -1.234375 1.832031 -0.992188 2.125 -0.828125 C 2.414062 -0.660156 2.75 -0.578125 3.125 -0.578125 Z M 3.125 -0.578125 "/></g></g></g><g fill="#ffffff" fill-opacity="1"><g transform="translate(134.756867, 26.862246)"><g><path d="M 5.546875 -2.40625 L 1.171875 -2.40625 C 1.203125 -1.851562 1.40625 -1.410156 1.78125 -1.078125 C 2.164062 -0.742188 2.644531 -0.578125 3.21875 -0.578125 C 3.550781 -0.578125 3.851562 -0.632812 4.125 -0.75 C 4.394531 -0.863281 4.628906 -1.035156 4.828125 -1.265625 L 5.21875 -0.8125 C 4.988281 -0.53125 4.695312 -0.316406 4.34375 -0.171875 C 4 -0.0234375 3.617188 0.046875 3.203125 0.046875 C 2.671875 0.046875 2.195312 -0.0664062 1.78125 -0.296875 C 1.363281 -0.523438 1.035156 -0.835938 0.796875 -1.234375 C 0.566406 -1.640625 0.453125 -2.101562 0.453125 -2.625 C 0.453125 -3.132812 0.5625 -3.585938 0.78125 -3.984375 C 1.007812 -4.390625 1.316406 -4.707031 1.703125 -4.9375 C 2.097656 -5.164062 2.535156 -5.28125 3.015625 -5.28125 C 3.503906 -5.28125 3.9375 -5.164062 4.3125 -4.9375 C 4.695312 -4.707031 5 -4.390625 5.21875 -3.984375 C 5.4375 -3.585938 5.546875 -3.132812 5.546875 -2.625 Z M 3.015625 -4.671875 C 2.515625 -4.671875 2.09375 -4.507812 1.75 -4.1875 C 1.40625 -3.863281 1.210938 -3.441406 1.171875 -2.921875 L 4.875 -2.921875 C 4.832031 -3.441406 4.640625 -3.863281 4.296875 -4.1875 C 3.953125 -4.507812 3.523438 -4.671875 3.015625 -4.671875 Z M 3.015625 -4.671875 "/></g></g></g><g fill="#ffffff" fill-opacity="1"><g transform="translate(140.76368, 26.862246)"><g><path d="M 5.546875 -2.40625 L 1.171875 -2.40625 C 1.203125 -1.851562 1.40625 -1.410156 1.78125 -1.078125 C 2.164062 -0.742188 2.644531 -0.578125 3.21875 -0.578125 C 3.550781 -0.578125 3.851562 -0.632812 4.125 -0.75 C 4.394531 -0.863281 4.628906 -1.035156 4.828125 -1.265625 L 5.21875 -0.8125 C 4.988281 -0.53125 4.695312 -0.316406 4.34375 -0.171875 C 4 -0.0234375 3.617188 0.046875 3.203125 0.046875 C 2.671875 0.046875 2.195312 -0.0664062 1.78125 -0.296875 C 1.363281 -0.523438 1.035156 -0.835938 0.796875 -1.234375 C 0.566406 -1.640625 0.453125 -2.101562 0.453125 -2.625 C 0.453125 -3.132812 0.5625 -3.585938 0.78125 -3.984375 C 1.007812 -4.390625 1.316406 -4.707031 1.703125 -4.9375 C 2.097656 -5.164062 2.535156 -5.28125 3.015625 -5.28125 C 3.503906 -5.28125 3.9375 -5.164062 4.3125 -4.9375 C 4.695312 -4.707031 5 -4.390625 5.21875 -3.984375 C 5.4375 -3.585938 5.546875 -3.132812 5.546875 -2.625 Z M 3.015625 -4.671875 C 2.515625 -4.671875 2.09375 -4.507812 1.75 -4.1875 C 1.40625 -3.863281 1.210938 -3.441406 1.171875 -2.921875 L 4.875 -2.921875 C 4.832031 -3.441406 4.640625 -3.863281 4.296875 -4.1875 C 3.953125 -4.507812 3.523438 -4.671875 3.015625 -4.671875 Z M 3.015625 -4.671875 "/></g></g></g><g fill="#ffffff" fill-opacity="1"><g transform="translate(146.770492, 26.862246)"><g><path d="M 3.6875 -5.28125 C 4.175781 -5.28125 4.617188 -5.164062 5.015625 -4.9375 C 5.410156 -4.71875 5.722656 -4.40625 5.953125 -4 C 6.179688 -3.59375 6.296875 -3.132812 6.296875 -2.625 C 6.296875 -2.09375 6.179688 -1.625 5.953125 -1.21875 C 5.722656 -0.8125 5.410156 -0.5 5.015625 -0.28125 C 4.617188 -0.0625 4.175781 0.046875 3.6875 0.046875 C 3.257812 0.046875 2.875 -0.0390625 2.53125 -0.21875 C 2.1875 -0.394531 1.90625 -0.648438 1.6875 -0.984375 L 1.6875 1.9375 L 0.984375 1.9375 L 0.984375 -5.234375 L 1.65625 -5.234375 L 1.65625 -4.203125 C 1.875 -4.546875 2.15625 -4.8125 2.5 -5 C 2.851562 -5.1875 3.25 -5.28125 3.6875 -5.28125 Z M 3.640625 -0.578125 C 4.003906 -0.578125 4.332031 -0.660156 4.625 -0.828125 C 4.925781 -0.992188 5.160156 -1.234375 5.328125 -1.546875 C 5.492188 -1.859375 5.578125 -2.21875 5.578125 -2.625 C 5.578125 -3.019531 5.492188 -3.367188 5.328125 -3.671875 C 5.160156 -3.984375 4.925781 -4.222656 4.625 -4.390625 C 4.332031 -4.566406 4.003906 -4.65625 3.640625 -4.65625 C 3.265625 -4.65625 2.925781 -4.566406 2.625 -4.390625 C 2.332031 -4.222656 2.101562 -3.984375 1.9375 -3.671875 C 1.769531 -3.367188 1.6875 -3.019531 1.6875 -2.625 C 1.6875 -2.21875 1.769531 -1.859375 1.9375 -1.546875 C 2.101562 -1.234375 2.332031 -0.992188 2.625 -0.828125 C 2.925781 -0.660156 3.265625 -0.578125 3.640625 -0.578125 Z M 3.640625 -0.578125 "/></g></g></g><g fill="#ffffff" fill-opacity="1"><g transform="translate(153.513242, 26.862246)"><g><path d="M 1.0625 -1.03125 C 1.21875 -1.03125 1.34375 -0.976562 1.4375 -0.875 C 1.539062 -0.78125 1.59375 -0.65625 1.59375 -0.5 C 1.59375 -0.414062 1.578125 -0.328125 1.546875 -0.234375 C 1.523438 -0.140625 1.492188 -0.0351562 1.453125 0.078125 L 1.03125 1.453125 L 0.5625 1.453125 L 0.890625 0.015625 C 0.785156 -0.0234375 0.695312 -0.0859375 0.625 -0.171875 C 0.5625 -0.265625 0.53125 -0.375 0.53125 -0.5 C 0.53125 -0.65625 0.582031 -0.78125 0.6875 -0.875 C 0.789062 -0.976562 0.914062 -1.03125 1.0625 -1.03125 Z M 1.0625 -1.03125 "/></g></g></g><g fill="#ffffff" fill-opacity="1"><g transform="translate(155.62159, 26.862246)"><g/></g></g><g fill="#ffffff" fill-opacity="1"><g transform="translate(158.227197, 26.862246)"><g><path d="M 5.546875 -2.40625 L 1.171875 -2.40625 C 1.203125 -1.851562 1.40625 -1.410156 1.78125 -1.078125 C 2.164062 -0.742188 2.644531 -0.578125 3.21875 -0.578125 C 3.550781 -0.578125 3.851562 -0.632812 4.125 -0.75 C 4.394531 -0.863281 4.628906 -1.035156 4.828125 -1.265625 L 5.21875 -0.8125 C 4.988281 -0.53125 4.695312 -0.316406 4.34375 -0.171875 C 4 -0.0234375 3.617188 0.046875 3.203125 0.046875 C 2.671875 0.046875 2.195312 -0.0664062 1.78125 -0.296875 C 1.363281 -0.523438 1.035156 -0.835938 0.796875 -1.234375 C 0.566406 -1.640625 0.453125 -2.101562 0.453125 -2.625 C 0.453125 -3.132812 0.5625 -3.585938 0.78125 -3.984375 C 1.007812 -4.390625 1.316406 -4.707031 1.703125 -4.9375 C 2.097656 -5.164062 2.535156 -5.28125 3.015625 -5.28125 C 3.503906 -5.28125 3.9375 -5.164062 4.3125 -4.9375 C 4.695312 -4.707031 5 -4.390625 5.21875 -3.984375 C 5.4375 -3.585938 5.546875 -3.132812 5.546875 -2.625 Z M 3.015625 -4.671875 C 2.515625 -4.671875 2.09375 -4.507812 1.75 -4.1875 C 1.40625 -3.863281 1.210938 -3.441406 1.171875 -2.921875 L 4.875 -2.921875 C 4.832031 -3.441406 4.640625 -3.863281 4.296875 -4.1875 C 3.953125 -4.507812 3.523438 -4.671875 3.015625 -4.671875 Z M 3.015625 -4.671875 "/></g></g></g><g fill="#ffffff" fill-opacity="1"><g transform="translate(164.234009, 26.862246)"><g><path d="M 2.71875 -6.84375 C 2.414062 -6.84375 2.1875 -6.757812 2.03125 -6.59375 C 1.875 -6.425781 1.796875 -6.179688 1.796875 -5.859375 L 1.796875 -5.234375 L 3.40625 -5.234375 L 3.40625 -4.640625 L 1.8125 -4.640625 L 1.8125 0 L 1.109375 0 L 1.109375 -4.640625 L 0.171875 -4.640625 L 0.171875 -5.234375 L 1.109375 -5.234375 L 1.109375 -5.875 C 1.109375 -6.351562 1.242188 -6.734375 1.515625 -7.015625 C 1.796875 -7.296875 2.1875 -7.4375 2.6875 -7.4375 C 2.882812 -7.4375 3.078125 -7.40625 3.265625 -7.34375 C 3.453125 -7.289062 3.609375 -7.210938 3.734375 -7.109375 L 3.5 -6.578125 C 3.289062 -6.753906 3.03125 -6.84375 2.71875 -6.84375 Z M 2.71875 -6.84375 "/></g></g></g><g fill="#ffffff" fill-opacity="1"><g transform="translate(167.605384, 26.862246)"><g><path d="M 2.71875 -6.84375 C 2.414062 -6.84375 2.1875 -6.757812 2.03125 -6.59375 C 1.875 -6.425781 1.796875 -6.179688 1.796875 -5.859375 L 1.796875 -5.234375 L 3.40625 -5.234375 L 3.40625 -4.640625 L 1.8125 -4.640625 L 1.8125 0 L 1.109375 0 L 1.109375 -4.640625 L 0.171875 -4.640625 L 0.171875 -5.234375 L 1.109375 -5.234375 L 1.109375 -5.875 C 1.109375 -6.351562 1.242188 -6.734375 1.515625 -7.015625 C 1.796875 -7.296875 2.1875 -7.4375 2.6875 -7.4375 C 2.882812 -7.4375 3.078125 -7.40625 3.265625 -7.34375 C 3.453125 -7.289062 3.609375 -7.210938 3.734375 -7.109375 L 3.5 -6.578125 C 3.289062 -6.753906 3.03125 -6.84375 2.71875 -6.84375 Z M 2.71875 -6.84375 "/></g></g></g><g fill="#ffffff" fill-opacity="1"><g transform="translate(170.976759, 26.862246)"><g><path d="M 5.546875 -2.40625 L 1.171875 -2.40625 C 1.203125 -1.851562 1.40625 -1.410156 1.78125 -1.078125 C 2.164062 -0.742188 2.644531 -0.578125 3.21875 -0.578125 C 3.550781 -0.578125 3.851562 -0.632812 4.125 -0.75 C 4.394531 -0.863281 4.628906 -1.035156 4.828125 -1.265625 L 5.21875 -0.8125 C 4.988281 -0.53125 4.695312 -0.316406 4.34375 -0.171875 C 4 -0.0234375 3.617188 0.046875 3.203125 0.046875 C 2.671875 0.046875 2.195312 -0.0664062 1.78125 -0.296875 C 1.363281 -0.523438 1.035156 -0.835938 0.796875 -1.234375 C 0.566406 -1.640625 0.453125 -2.101562 0.453125 -2.625 C 0.453125 -3.132812 0.5625 -3.585938 0.78125 -3.984375 C 1.007812 -4.390625 1.316406 -4.707031 1.703125 -4.9375 C 2.097656 -5.164062 2.535156 -5.28125 3.015625 -5.28125 C 3.503906 -5.28125 3.9375 -5.164062 4.3125 -4.9375 C 4.695312 -4.707031 5 -4.390625 5.21875 -3.984375 C 5.4375 -3.585938 5.546875 -3.132812 5.546875 -2.625 Z M 3.015625 -4.671875 C 2.515625 -4.671875 2.09375 -4.507812 1.75 -4.1875 C 1.40625 -3.863281 1.210938 -3.441406 1.171875 -2.921875 L 4.875 -2.921875 C 4.832031 -3.441406 4.640625 -3.863281 4.296875 -4.1875 C 3.953125 -4.507812 3.523438 -4.671875 3.015625 -4.671875 Z M 3.015625 -4.671875 "/></g></g></g><g fill="#ffffff" fill-opacity="1"><g transform="translate(176.983571, 26.862246)"><g><path d="M 3.15625 0.046875 C 2.632812 0.046875 2.171875 -0.0625 1.765625 -0.28125 C 1.359375 -0.507812 1.035156 -0.828125 0.796875 -1.234375 C 0.566406 -1.640625 0.453125 -2.101562 0.453125 -2.625 C 0.453125 -3.132812 0.566406 -3.585938 0.796875 -3.984375 C 1.035156 -4.390625 1.359375 -4.707031 1.765625 -4.9375 C 2.171875 -5.164062 2.632812 -5.28125 3.15625 -5.28125 C 3.601562 -5.28125 4.003906 -5.191406 4.359375 -5.015625 C 4.710938 -4.835938 4.992188 -4.578125 5.203125 -4.234375 L 4.671875 -3.875 C 4.503906 -4.132812 4.285156 -4.328125 4.015625 -4.453125 C 3.753906 -4.585938 3.46875 -4.65625 3.15625 -4.65625 C 2.78125 -4.65625 2.441406 -4.570312 2.140625 -4.40625 C 1.835938 -4.238281 1.597656 -4 1.421875 -3.6875 C 1.253906 -3.375 1.171875 -3.019531 1.171875 -2.625 C 1.171875 -2.21875 1.253906 -1.859375 1.421875 -1.546875 C 1.597656 -1.234375 1.835938 -0.992188 2.140625 -0.828125 C 2.441406 -0.660156 2.78125 -0.578125 3.15625 -0.578125 C 3.46875 -0.578125 3.753906 -0.640625 4.015625 -0.765625 C 4.285156 -0.890625 4.503906 -1.082031 4.671875 -1.34375 L 5.203125 -0.984375 C 4.992188 -0.648438 4.710938 -0.394531 4.359375 -0.21875 C 4.003906 -0.0390625 3.601562 0.046875 3.15625 0.046875 Z M 3.15625 0.046875 "/></g></g></g><g fill="#ffffff" fill-opacity="1"><g transform="translate(182.582639, 26.862246)"><g><path d="M 3.75 -0.3125 C 3.613281 -0.195312 3.445312 -0.109375 3.25 -0.046875 C 3.050781 0.015625 2.847656 0.046875 2.640625 0.046875 C 2.148438 0.046875 1.769531 -0.0820312 1.5 -0.34375 C 1.238281 -0.613281 1.109375 -0.988281 1.109375 -1.46875 L 1.109375 -4.640625 L 0.171875 -4.640625 L 0.171875 -5.234375 L 1.109375 -5.234375 L 1.109375 -6.375 L 1.8125 -6.375 L 1.8125 -5.234375 L 3.40625 -5.234375 L 3.40625 -4.640625 L 1.8125 -4.640625 L 1.8125 -1.515625 C 1.8125 -1.203125 1.890625 -0.960938 2.046875 -0.796875 C 2.203125 -0.640625 2.425781 -0.5625 2.71875 -0.5625 C 2.863281 -0.5625 3.003906 -0.582031 3.140625 -0.625 C 3.273438 -0.675781 3.394531 -0.742188 3.5 -0.828125 Z M 3.75 -0.3125 "/></g></g></g><g fill="#ffffff" fill-opacity="1"><g transform="translate(186.620328, 26.862246)"><g><path d="M 0.984375 -5.234375 L 1.6875 -5.234375 L 1.6875 0 L 0.984375 0 Z M 1.34375 -6.375 C 1.195312 -6.375 1.070312 -6.421875 0.96875 -6.515625 C 0.875 -6.617188 0.828125 -6.742188 0.828125 -6.890625 C 0.828125 -7.023438 0.875 -7.140625 0.96875 -7.234375 C 1.070312 -7.335938 1.195312 -7.390625 1.34375 -7.390625 C 1.488281 -7.390625 1.609375 -7.335938 1.703125 -7.234375 C 1.804688 -7.140625 1.859375 -7.023438 1.859375 -6.890625 C 1.859375 -6.742188 1.804688 -6.617188 1.703125 -6.515625 C 1.609375 -6.421875 1.488281 -6.375 1.34375 -6.375 Z M 1.34375 -6.375 "/></g></g></g><g fill="#ffffff" fill-opacity="1"><g transform="translate(189.295547, 26.862246)"><g><path d="M 5.390625 -5.234375 L 3.0625 0 L 2.328125 0 L 0.015625 -5.234375 L 0.75 -5.234375 L 2.703125 -0.78125 L 4.6875 -5.234375 Z M 5.390625 -5.234375 "/></g></g></g><g fill="#ffffff" fill-opacity="1"><g transform="translate(194.685767, 26.862246)"><g><path d="M 5.546875 -2.40625 L 1.171875 -2.40625 C 1.203125 -1.851562 1.40625 -1.410156 1.78125 -1.078125 C 2.164062 -0.742188 2.644531 -0.578125 3.21875 -0.578125 C 3.550781 -0.578125 3.851562 -0.632812 4.125 -0.75 C 4.394531 -0.863281 4.628906 -1.035156 4.828125 -1.265625 L 5.21875 -0.8125 C 4.988281 -0.53125 4.695312 -0.316406 4.34375 -0.171875 C 4 -0.0234375 3.617188 0.046875 3.203125 0.046875 C 2.671875 0.046875 2.195312 -0.0664062 1.78125 -0.296875 C 1.363281 -0.523438 1.035156 -0.835938 0.796875 -1.234375 C 0.566406 -1.640625 0.453125 -2.101562 0.453125 -2.625 C 0.453125 -3.132812 0.5625 -3.585938 0.78125 -3.984375 C 1.007812 -4.390625 1.316406 -4.707031 1.703125 -4.9375 C 2.097656 -5.164062 2.535156 -5.28125 3.015625 -5.28125 C 3.503906 -5.28125 3.9375 -5.164062 4.3125 -4.9375 C 4.695312 -4.707031 5 -4.390625 5.21875 -3.984375 C 5.4375 -3.585938 5.546875 -3.132812 5.546875 -2.625 Z M 3.015625 -4.671875 C 2.515625 -4.671875 2.09375 -4.507812 1.75 -4.1875 C 1.40625 -3.863281 1.210938 -3.441406 1.171875 -2.921875 L 4.875 -2.921875 C 4.832031 -3.441406 4.640625 -3.863281 4.296875 -4.1875 C 3.953125 -4.507812 3.523438 -4.671875 3.015625 -4.671875 Z M 3.015625 -4.671875 "/></g></g></g><g fill="#ffffff" fill-opacity="1"><g transform="translate(91.164039, 39.547195)"><g><path d="M 3.15625 0.046875 C 2.632812 0.046875 2.171875 -0.0625 1.765625 -0.28125 C 1.359375 -0.507812 1.035156 -0.828125 0.796875 -1.234375 C 0.566406 -1.640625 0.453125 -2.101562 0.453125 -2.625 C 0.453125 -3.132812 0.566406 -3.585938 0.796875 -3.984375 C 1.035156 -4.390625 1.359375 -4.707031 1.765625 -4.9375 C 2.171875 -5.164062 2.632812 -5.28125 3.15625 -5.28125 C 3.601562 -5.28125 4.003906 -5.191406 4.359375 -5.015625 C 4.710938 -4.835938 4.992188 -4.578125 5.203125 -4.234375 L 4.671875 -3.875 C 4.503906 -4.132812 4.285156 -4.328125 4.015625 -4.453125 C 3.753906 -4.585938 3.46875 -4.65625 3.15625 -4.65625 C 2.78125 -4.65625 2.441406 -4.570312 2.140625 -4.40625 C 1.835938 -4.238281 1.597656 -4 1.421875 -3.6875 C 1.253906 -3.375 1.171875 -3.019531 1.171875 -2.625 C 1.171875 -2.21875 1.253906 -1.859375 1.421875 -1.546875 C 1.597656 -1.234375 1.835938 -0.992188 2.140625 -0.828125 C 2.441406 -0.660156 2.78125 -0.578125 3.15625 -0.578125 C 3.46875 -0.578125 3.753906 -0.640625 4.015625 -0.765625 C 4.285156 -0.890625 4.503906 -1.082031 4.671875 -1.34375 L 5.203125 -0.984375 C 4.992188 -0.648438 4.710938 -0.394531 4.359375 -0.21875 C 4.003906 -0.0390625 3.601562 0.046875 3.15625 0.046875 Z M 3.15625 0.046875 "/></g></g></g><g fill="#ffffff" fill-opacity="1"><g transform="translate(96.763106, 39.547195)"><g><path d="M 0.984375 -7.390625 L 1.6875 -7.390625 L 1.6875 0 L 0.984375 0 Z M 0.984375 -7.390625 "/></g></g></g><g fill="#ffffff" fill-opacity="1"><g transform="translate(99.438325, 39.547195)"><g><path d="M 5.546875 -2.40625 L 1.171875 -2.40625 C 1.203125 -1.851562 1.40625 -1.410156 1.78125 -1.078125 C 2.164062 -0.742188 2.644531 -0.578125 3.21875 -0.578125 C 3.550781 -0.578125 3.851562 -0.632812 4.125 -0.75 C 4.394531 -0.863281 4.628906 -1.035156 4.828125 -1.265625 L 5.21875 -0.8125 C 4.988281 -0.53125 4.695312 -0.316406 4.34375 -0.171875 C 4 -0.0234375 3.617188 0.046875 3.203125 0.046875 C 2.671875 0.046875 2.195312 -0.0664062 1.78125 -0.296875 C 1.363281 -0.523438 1.035156 -0.835938 0.796875 -1.234375 C 0.566406 -1.640625 0.453125 -2.101562 0.453125 -2.625 C 0.453125 -3.132812 0.5625 -3.585938 0.78125 -3.984375 C 1.007812 -4.390625 1.316406 -4.707031 1.703125 -4.9375 C 2.097656 -5.164062 2.535156 -5.28125 3.015625 -5.28125 C 3.503906 -5.28125 3.9375 -5.164062 4.3125 -4.9375 C 4.695312 -4.707031 5 -4.390625 5.21875 -3.984375 C 5.4375 -3.585938 5.546875 -3.132812 5.546875 -2.625 Z M 3.015625 -4.671875 C 2.515625 -4.671875 2.09375 -4.507812 1.75 -4.1875 C 1.40625 -3.863281 1.210938 -3.441406 1.171875 -2.921875 L 4.875 -2.921875 C 4.832031 -3.441406 4.640625 -3.863281 4.296875 -4.1875 C 3.953125 -4.507812 3.523438 -4.671875 3.015625 -4.671875 Z M 3.015625 -4.671875 "/></g></g></g><g fill="#ffffff" fill-opacity="1"><g transform="translate(105.445138, 39.547195)"><g><path d="M 2.8125 -5.28125 C 3.5 -5.28125 4.023438 -5.109375 4.390625 -4.765625 C 4.753906 -4.421875 4.9375 -3.914062 4.9375 -3.25 L 4.9375 0 L 4.265625 0 L 4.265625 -0.8125 C 4.097656 -0.539062 3.859375 -0.328125 3.546875 -0.171875 C 3.242188 -0.0234375 2.878906 0.046875 2.453125 0.046875 C 1.867188 0.046875 1.40625 -0.0859375 1.0625 -0.359375 C 0.71875 -0.640625 0.546875 -1.007812 0.546875 -1.46875 C 0.546875 -1.914062 0.707031 -2.273438 1.03125 -2.546875 C 1.351562 -2.816406 1.863281 -2.953125 2.5625 -2.953125 L 4.234375 -2.953125 L 4.234375 -3.28125 C 4.234375 -3.726562 4.101562 -4.066406 3.84375 -4.296875 C 3.59375 -4.535156 3.226562 -4.65625 2.75 -4.65625 C 2.414062 -4.65625 2.09375 -4.597656 1.78125 -4.484375 C 1.476562 -4.378906 1.21875 -4.234375 1 -4.046875 L 0.6875 -4.5625 C 0.945312 -4.789062 1.265625 -4.96875 1.640625 -5.09375 C 2.015625 -5.21875 2.40625 -5.28125 2.8125 -5.28125 Z M 2.5625 -0.5 C 2.96875 -0.5 3.3125 -0.59375 3.59375 -0.78125 C 3.875 -0.96875 4.085938 -1.234375 4.234375 -1.578125 L 4.234375 -2.421875 L 2.59375 -2.421875 C 1.695312 -2.421875 1.25 -2.113281 1.25 -1.5 C 1.25 -1.1875 1.363281 -0.941406 1.59375 -0.765625 C 1.820312 -0.585938 2.144531 -0.5 2.5625 -0.5 Z M 2.5625 -0.5 "/></g></g></g><g fill="#ffffff" fill-opacity="1"><g transform="translate(111.312726, 39.547195)"><g><path d="M 3.65625 -5.28125 C 4.3125 -5.28125 4.832031 -5.085938 5.21875 -4.703125 C 5.601562 -4.316406 5.796875 -3.757812 5.796875 -3.03125 L 5.796875 0 L 5.09375 0 L 5.09375 -2.96875 C 5.09375 -3.507812 4.957031 -3.921875 4.6875 -4.203125 C 4.414062 -4.492188 4.023438 -4.640625 3.515625 -4.640625 C 2.953125 -4.640625 2.503906 -4.472656 2.171875 -4.140625 C 1.847656 -3.804688 1.6875 -3.34375 1.6875 -2.75 L 1.6875 0 L 0.984375 0 L 0.984375 -5.234375 L 1.65625 -5.234375 L 1.65625 -4.265625 C 1.851562 -4.585938 2.117188 -4.835938 2.453125 -5.015625 C 2.796875 -5.191406 3.195312 -5.28125 3.65625 -5.28125 Z M 3.65625 -5.28125 "/></g></g></g><g fill="#ffffff" fill-opacity="1"><g transform="translate(118.045524, 39.547195)"><g><path d="M 0.984375 -5.234375 L 1.6875 -5.234375 L 1.6875 0 L 0.984375 0 Z M 1.34375 -6.375 C 1.195312 -6.375 1.070312 -6.421875 0.96875 -6.515625 C 0.875 -6.617188 0.828125 -6.742188 0.828125 -6.890625 C 0.828125 -7.023438 0.875 -7.140625 0.96875 -7.234375 C 1.070312 -7.335938 1.195312 -7.390625 1.34375 -7.390625 C 1.488281 -7.390625 1.609375 -7.335938 1.703125 -7.234375 C 1.804688 -7.140625 1.859375 -7.023438 1.859375 -6.890625 C 1.859375 -6.742188 1.804688 -6.617188 1.703125 -6.515625 C 1.609375 -6.421875 1.488281 -6.375 1.34375 -6.375 Z M 1.34375 -6.375 "/></g></g></g><g fill="#ffffff" fill-opacity="1"><g transform="translate(120.720743, 39.547195)"><g><path d="M 3.65625 -5.28125 C 4.3125 -5.28125 4.832031 -5.085938 5.21875 -4.703125 C 5.601562 -4.316406 5.796875 -3.757812 5.796875 -3.03125 L 5.796875 0 L 5.09375 0 L 5.09375 -2.96875 C 5.09375 -3.507812 4.957031 -3.921875 4.6875 -4.203125 C 4.414062 -4.492188 4.023438 -4.640625 3.515625 -4.640625 C 2.953125 -4.640625 2.503906 -4.472656 2.171875 -4.140625 C 1.847656 -3.804688 1.6875 -3.34375 1.6875 -2.75 L 1.6875 0 L 0.984375 0 L 0.984375 -5.234375 L 1.65625 -5.234375 L 1.65625 -4.265625 C 1.851562 -4.585938 2.117188 -4.835938 2.453125 -5.015625 C 2.796875 -5.191406 3.195312 -5.28125 3.65625 -5.28125 Z M 3.65625 -5.28125 "/></g></g></g><g fill="#ffffff" fill-opacity="1"><g transform="translate(127.453542, 39.547195)"><g><path d="M 5.828125 -5.234375 L 5.828125 -0.640625 C 5.828125 0.253906 5.609375 0.914062 5.171875 1.34375 C 4.742188 1.769531 4.09375 1.984375 3.21875 1.984375 C 2.726562 1.984375 2.265625 1.910156 1.828125 1.765625 C 1.398438 1.617188 1.050781 1.421875 0.78125 1.171875 L 1.140625 0.640625 C 1.390625 0.859375 1.691406 1.03125 2.046875 1.15625 C 2.410156 1.289062 2.789062 1.359375 3.1875 1.359375 C 3.851562 1.359375 4.34375 1.203125 4.65625 0.890625 C 4.96875 0.578125 5.125 0.0976562 5.125 -0.546875 L 5.125 -1.21875 C 4.90625 -0.882812 4.617188 -0.628906 4.265625 -0.453125 C 3.910156 -0.285156 3.515625 -0.203125 3.078125 -0.203125 C 2.585938 -0.203125 2.140625 -0.304688 1.734375 -0.515625 C 1.335938 -0.734375 1.023438 -1.035156 0.796875 -1.421875 C 0.566406 -1.816406 0.453125 -2.257812 0.453125 -2.75 C 0.453125 -3.238281 0.566406 -3.675781 0.796875 -4.0625 C 1.023438 -4.445312 1.335938 -4.742188 1.734375 -4.953125 C 2.140625 -5.171875 2.585938 -5.28125 3.078125 -5.28125 C 3.523438 -5.28125 3.925781 -5.1875 4.28125 -5 C 4.644531 -4.820312 4.9375 -4.566406 5.15625 -4.234375 L 5.15625 -5.234375 Z M 3.15625 -0.828125 C 3.53125 -0.828125 3.867188 -0.90625 4.171875 -1.0625 C 4.484375 -1.226562 4.722656 -1.457031 4.890625 -1.75 C 5.054688 -2.039062 5.140625 -2.375 5.140625 -2.75 C 5.140625 -3.113281 5.054688 -3.441406 4.890625 -3.734375 C 4.722656 -4.023438 4.488281 -4.25 4.1875 -4.40625 C 3.882812 -4.570312 3.539062 -4.65625 3.15625 -4.65625 C 2.78125 -4.65625 2.441406 -4.578125 2.140625 -4.421875 C 1.835938 -4.265625 1.597656 -4.035156 1.421875 -3.734375 C 1.253906 -3.441406 1.171875 -3.113281 1.171875 -2.75 C 1.171875 -2.375 1.253906 -2.039062 1.421875 -1.75 C 1.597656 -1.457031 1.835938 -1.226562 2.140625 -1.0625 C 2.441406 -0.90625 2.78125 -0.828125 3.15625 -0.828125 Z M 3.15625 -0.828125 "/></g></g></g></svg>